<svg width="24" height="25" viewBox="0 0 24 25" fill="none" xmlns="http://www.w3.org/2000/svg">
<path opacity="0.9" fill-rule="evenodd" clip-rule="evenodd" d="M23.5 20.6667C23.5 21.2167 23.05 21.6667 22.5 21.6667H1.5C0.95 21.6667 0.5 21.2167 0.5 20.6667V16.2667C1.94013 16.2667 3.1 15.1069 3.1 13.6667C3.1 12.2266 1.94013 11.0667 0.5 11.0667V5.66675C0.5 5.11675 0.95 4.66675 1.5 4.66675H22.5C23.05 4.66675 23.5 5.11675 23.5 5.66675V11.0667C22.0599 11.0667 20.9 12.2266 20.9 13.6667C20.9 15.1069 22.0599 16.2667 23.5 16.2667V20.6667Z" fill="#FF3838"/>
<path d="M16 9.16675L8 17.1667" stroke="white" stroke-width="1.4" stroke-miterlimit="10" stroke-linecap="square"/>
<path d="M9.86507 10.1453C9.86507 10.7432 9.3804 11.2279 8.78254 11.2279C8.18467 11.2279 7.7 10.7432 7.7 10.1453C7.7 9.54746 8.18467 9.06279 8.78254 9.06279C9.3804 9.06279 9.86507 9.54746 9.86507 10.1453Z" stroke="white" stroke-width="1.4" stroke-miterlimit="10" stroke-linecap="round"/>
<path d="M15.8651 16.3841C15.8651 16.982 15.3804 17.4666 14.7825 17.4666C14.1847 17.4666 13.7 16.982 13.7 16.3841C13.7 15.7862 14.1847 15.3016 14.7825 15.3016C15.3804 15.3016 15.8651 15.7862 15.8651 16.3841Z" stroke="white" stroke-width="1.4" stroke-miterlimit="10" stroke-linecap="round"/>
</svg>
