<svg width="24" height="25" viewBox="0 0 24 25" fill="none" xmlns="http://www.w3.org/2000/svg">
<mask id="path-1-inside-1_406_67051" fill="white">
<path d="M23.5 17.6667C21.2867 17.6667 19.5 15.8801 19.5 13.6667C19.5 11.4534 21.2867 9.66675 23.5 9.66675"/>
</mask>
<path d="M23.5 19.0667C24.2732 19.0667 24.9 18.4399 24.9 17.6667C24.9 16.8935 24.2732 16.2667 23.5 16.2667V19.0667ZM23.5 11.0667C24.2732 11.0667 24.9 10.4399 24.9 9.66675C24.9 8.89355 24.2732 8.26675 23.5 8.26675V11.0667ZM23.5 16.2667C22.0599 16.2667 20.9 15.1069 20.9 13.6667H18.1C18.1 16.6533 20.5135 19.0667 23.5 19.0667V16.2667ZM20.9 13.6667C20.9 12.2266 22.0599 11.0667 23.5 11.0667V8.26675C20.5135 8.26675 18.1 10.6802 18.1 13.6667H20.9Z" fill="#303030" mask="url(#path-1-inside-1_406_67051)"/>
<mask id="path-3-inside-2_406_67051" fill="white">
<path d="M0.5 17.6667C2.71333 17.6667 4.5 15.8801 4.5 13.6667C4.5 11.4534 2.71333 9.66675 0.5 9.66675"/>
</mask>
<path d="M0.5 19.0667C-0.273199 19.0667 -0.9 18.4399 -0.9 17.6667C-0.9 16.8935 -0.273199 16.2667 0.5 16.2667V19.0667ZM0.5 11.0667C-0.273199 11.0667 -0.9 10.4399 -0.9 9.66675C-0.9 8.89355 -0.273199 8.26675 0.5 8.26675V11.0667ZM0.5 16.2667C1.94013 16.2667 3.1 15.1069 3.1 13.6667H5.9C5.9 16.6533 3.48653 19.0667 0.5 19.0667V16.2667ZM3.1 13.6667C3.1 12.2266 1.94013 11.0667 0.5 11.0667V8.26675C3.48653 8.26675 5.9 10.6802 5.9 13.6667H3.1Z" fill="#303030" mask="url(#path-3-inside-2_406_67051)"/>
<path d="M16 9.16675L8 17.1667" stroke="#303030" stroke-width="1.4" stroke-miterlimit="10" stroke-linecap="square"/>
<path d="M9.86507 10.1453C9.86507 10.7432 9.3804 11.2279 8.78254 11.2279C8.18467 11.2279 7.7 10.7432 7.7 10.1453C7.7 9.54746 8.18467 9.06279 8.78254 9.06279C9.3804 9.06279 9.86507 9.54746 9.86507 10.1453Z" stroke="#303030" stroke-width="1.4" stroke-miterlimit="10" stroke-linecap="round"/>
<path d="M15.8651 16.3841C15.8651 16.982 15.3804 17.4666 14.7825 17.4666C14.1847 17.4666 13.7 16.982 13.7 16.3841C13.7 15.7862 14.1847 15.3016 14.7825 15.3016C15.3804 15.3016 15.8651 15.7862 15.8651 16.3841Z" stroke="#303030" stroke-width="1.4" stroke-miterlimit="10" stroke-linecap="round"/>
<mask id="path-8-inside-3_406_67051" fill="white">
<path d="M0.5 10.6667V5.66675C0.5 5.11675 0.95 4.66675 1.5 4.66675H22.5C23.05 4.66675 23.5 5.11675 23.5 5.66675V10.6667"/>
</mask>
<path d="M-0.9 10.6667C-0.9 11.4399 -0.273199 12.0667 0.5 12.0667C1.2732 12.0667 1.9 11.4399 1.9 10.6667H-0.9ZM22.1 10.6667C22.1 11.4399 22.7268 12.0667 23.5 12.0667C24.2732 12.0667 24.9 11.4399 24.9 10.6667H22.1ZM1.9 10.6667V5.66675H-0.9V10.6667H1.9ZM1.9 5.66675C1.9 5.88995 1.7232 6.06675 1.5 6.06675V3.26675C0.176801 3.26675 -0.9 4.34355 -0.9 5.66675H1.9ZM1.5 6.06675H22.5V3.26675H1.5V6.06675ZM22.5 6.06675C22.2768 6.06675 22.1 5.88995 22.1 5.66675H24.9C24.9 4.34355 23.8232 3.26675 22.5 3.26675V6.06675ZM22.1 5.66675V10.6667H24.9V5.66675H22.1Z" fill="#303030" mask="url(#path-8-inside-3_406_67051)"/>
<mask id="path-10-inside-4_406_67051" fill="white">
<path d="M23.5 16.6667V20.6667C23.5 21.2167 23.05 21.6667 22.5 21.6667H1.5C0.95 21.6667 0.5 21.2167 0.5 20.6667V16.6667"/>
</mask>
<path d="M24.9 16.6667C24.9 15.8935 24.2732 15.2667 23.5 15.2667C22.7268 15.2667 22.1 15.8935 22.1 16.6667H24.9ZM1.9 16.6667C1.9 15.8935 1.2732 15.2667 0.5 15.2667C-0.273199 15.2667 -0.9 15.8935 -0.9 16.6667H1.9ZM22.1 16.6667V20.6667H24.9V16.6667H22.1ZM22.1 20.6667C22.1 20.4435 22.2768 20.2667 22.5 20.2667V23.0667C23.8232 23.0667 24.9 21.9899 24.9 20.6667H22.1ZM22.5 20.2667H1.5V23.0667H22.5V20.2667ZM1.5 20.2667C1.7232 20.2667 1.9 20.4435 1.9 20.6667H-0.9C-0.9 21.9899 0.176801 23.0667 1.5 23.0667V20.2667ZM1.9 20.6667V16.6667H-0.9V20.6667H1.9Z" fill="#303030" mask="url(#path-10-inside-4_406_67051)"/>
</svg>
