<svg width="196" height="109" viewBox="0 0 196 109" fill="none" xmlns="http://www.w3.org/2000/svg">
<rect x="0.5" y="0.5" width="195" height="108" rx="7.5" fill="#F4F4F4" stroke="#E1E1E1"/>
<rect x="83.2" y="28.7" width="28.6" height="28.6" rx="7.3" stroke="#767676" stroke-width="1.4"/>
<line x1="97.6614" y1="36" x2="97.6614" y2="50" stroke="#767676" stroke-width="1.4"/>
<line x1="104.5" y1="43.1614" x2="90.5" y2="43.1614" stroke="#767676" stroke-width="1.4"/>
<path d="M80.916 69.348C80.916 70.516 80.78 71.572 80.508 72.516C80.236 73.452 79.748 74.328 79.044 75.144C78.348 75.96 77.372 76.68 76.116 77.304L75.432 76.32C76.512 75.776 77.36 75.168 77.976 74.496C78.6 73.824 79.036 73.088 79.284 72.288C79.54 71.48 79.668 70.552 79.668 69.504V69.348H80.916ZM80.424 69.348V70.38H76.056V69.348H80.424ZM79.62 72.972L75.684 73.356L75.516 72.24L79.62 71.988V72.972ZM83.7 68.28V78.948H82.404V68.28H83.7ZM85.284 72.468V73.536H83.376V72.468H85.284ZM94.5003 73.296V74.328H87.0723V73.296H94.5003ZM95.5563 76.536V77.604H85.8963V76.536H95.5563ZM94.3923 69.204V70.26H88.3443V73.728H87.0723V69.204H94.3923ZM104.61 75.096V78.972H103.326V75.096H104.61ZM108.798 74.7V75.756H99.1502V74.7H108.798ZM104.454 70.176V70.428C104.454 71.028 104.274 71.584 103.914 72.096C103.554 72.6 103.046 73.024 102.39 73.368C101.742 73.712 100.994 73.94 100.146 74.052L99.6902 73.032C100.402 72.944 101.034 72.768 101.586 72.504C102.138 72.232 102.566 71.916 102.87 71.556C103.174 71.188 103.326 70.812 103.326 70.428V70.176H104.454ZM104.622 70.176V70.428C104.622 70.804 104.77 71.176 105.066 71.544C105.37 71.912 105.798 72.232 106.35 72.504C106.902 72.768 107.53 72.944 108.234 73.032L107.778 74.052C106.93 73.94 106.182 73.712 105.534 73.368C104.886 73.024 104.382 72.596 104.022 72.084C103.662 71.572 103.482 71.02 103.482 70.428V70.176H104.622ZM107.898 69.552V70.584H100.05V69.552H107.898ZM104.61 68.304V69.912H103.326V68.304H104.61ZM117.93 68.28V78.948H116.634V68.28H117.93ZM119.514 72.468V73.536H117.606V72.468H119.514ZM115.134 69.408C115.134 71.056 114.754 72.528 113.994 73.824C113.234 75.12 112.014 76.188 110.334 77.028L109.602 76.044C110.562 75.556 111.354 74.996 111.978 74.364C112.61 73.732 113.082 73.024 113.394 72.24C113.706 71.456 113.862 70.584 113.862 69.624V69.408H115.134ZM114.534 69.408V70.452H110.154V69.408H114.534Z" fill="#767676"/>
</svg>
