<svg width="153" height="195" viewBox="0 0 153 195" fill="none" xmlns="http://www.w3.org/2000/svg">
<path d="M32.0913 4.178V5.354H24.1673V4.178H32.0913ZM32.6513 4.178V5.214C32.6513 5.942 32.6327 6.59067 32.5953 7.16C32.558 7.72 32.4647 8.34067 32.3153 9.022L30.8313 8.868C30.9807 8.196 31.074 7.59867 31.1113 7.076C31.1487 6.544 31.1673 5.92333 31.1673 5.214V4.178H32.6513ZM31.6153 7.314L24.0133 7.636L23.8313 6.474L31.6153 6.264V7.314ZM33.9813 8.602V9.792H22.7813V8.602H33.9813ZM32.7353 10.702V13.838H25.5393V15.322H24.0553V12.746H31.2373V11.864H24.0273V10.702H32.7353ZM33.1553 14.818V15.98H24.0553V14.818H33.1553ZM45.2657 3.674V11.318H43.7537V3.674H45.2657ZM45.2657 11.906V16.12H43.7537V13.124H36.8517V11.906H45.2657ZM36.6837 9.498C37.9623 9.498 39.031 9.47467 39.8897 9.428C40.7577 9.372 41.635 9.26933 42.5217 9.12L42.6897 10.338C41.7937 10.4873 40.907 10.59 40.0297 10.646C39.1523 10.6927 38.037 10.716 36.6837 10.716H35.6337V9.498H36.6837ZM41.3037 4.388V8.042H37.1037V10.072H35.6337V6.908H39.8197V5.592H35.6057V4.388H41.3037ZM54.8206 4.682V6.67C54.8206 7.706 54.6759 8.68133 54.3866 9.596C54.1066 10.5107 53.6959 11.3227 53.1546 12.032C52.6132 12.732 51.9692 13.2593 51.2226 13.614L50.3266 12.368C50.9799 12.0693 51.5539 11.626 52.0486 11.038C52.5432 10.45 52.9212 9.778 53.1826 9.022C53.4439 8.266 53.5746 7.482 53.5746 6.67V4.682H54.8206ZM55.0866 4.682V6.67C55.0866 7.44467 55.2126 8.196 55.4646 8.924C55.7259 9.64267 56.0992 10.2867 56.5846 10.856C57.0699 11.4253 57.6346 11.85 58.2786 12.13L57.3966 13.348C56.6686 13.0027 56.0339 12.494 55.4926 11.822C54.9606 11.15 54.5546 10.3753 54.2746 9.498C54.0039 8.61133 53.8686 7.66867 53.8686 6.67V4.682H55.0866ZM60.7006 3.66V16.148H59.1886V3.66H60.7006ZM63.7949 16.904H62.7169L63.2349 13.726H64.7329L63.7949 16.904ZM76.975 4.752V5.956H70.311V4.752H76.975ZM70.003 9.876C71.431 9.86667 72.761 9.83867 73.993 9.792C75.2343 9.74533 76.3963 9.65667 77.479 9.526L77.563 10.632C76.4617 10.8187 75.281 10.9447 74.021 11.01C72.761 11.0753 71.4777 11.108 70.171 11.108L70.003 9.876ZM72.873 5.676V10.1H71.417V5.676H72.873ZM75.869 5.676V10.1H74.441V5.676H75.869ZM79.747 3.688V12.844H78.249V3.688H79.747ZM81.483 7.3V8.546H79.327V7.3H81.483ZM80.251 14.664V15.882H71.851V14.664H80.251ZM73.349 11.976V14.986H71.851V11.976H73.349ZM92.8933 3.674V16.12H91.4513V3.674H92.8933ZM91.9553 8.504V9.722H89.7573V8.504H91.9553ZM90.1213 3.912V15.532H88.7213V3.912H90.1213ZM87.4893 5.018V12.914H82.6593V5.018H87.4893ZM84.0593 6.208V11.738H86.0893V6.208H84.0593ZM98.6057 5.564V7.23C98.6057 8.14467 98.461 9.036 98.1717 9.904C97.8823 10.772 97.4717 11.5467 96.9397 12.228C96.417 12.9093 95.8103 13.418 95.1197 13.754L94.2517 12.578C94.877 12.27 95.4277 11.8313 95.9037 11.262C96.389 10.6833 96.7623 10.0393 97.0237 9.33C97.285 8.62067 97.4157 7.92067 97.4157 7.23V5.564H98.6057ZM98.8997 5.564V7.23C98.8997 7.88333 99.0257 8.54133 99.2777 9.204C99.5297 9.86667 99.889 10.4687 100.356 11.01C100.822 11.5513 101.373 11.9667 102.008 12.256L101.168 13.446C100.458 13.11 99.8423 12.62 99.3197 11.976C98.8063 11.3227 98.4097 10.5853 98.1297 9.764C97.8497 8.94267 97.7097 8.098 97.7097 7.23V5.564H98.8997ZM101.49 4.892V6.152H94.7137V4.892H101.49ZM104.164 3.674V16.12H102.652V3.674H104.164ZM106.068 8.546V9.792H103.828V8.546H106.068ZM113.908 8.364V9.582H111.724V8.364H113.908ZM117.366 3.674V16.12H115.924V3.674H117.366ZM114.832 3.912V15.532H113.418V3.912H114.832ZM109.512 4.612C110.063 4.612 110.539 4.794 110.94 5.158C111.341 5.51267 111.649 6.026 111.864 6.698C112.088 7.36067 112.2 8.14467 112.2 9.05C112.2 9.96467 112.088 10.758 111.864 11.43C111.649 12.0927 111.341 12.606 110.94 12.97C110.539 13.3247 110.063 13.502 109.512 13.502C108.98 13.502 108.513 13.3247 108.112 12.97C107.711 12.606 107.398 12.0927 107.174 11.43C106.959 10.758 106.852 9.96467 106.852 9.05C106.852 8.14467 106.959 7.36067 107.174 6.698C107.398 6.026 107.711 5.51267 108.112 5.158C108.513 4.794 108.98 4.612 109.512 4.612ZM109.512 6.04C109.251 6.04 109.022 6.15667 108.826 6.39C108.63 6.614 108.481 6.95467 108.378 7.412C108.275 7.86 108.224 8.406 108.224 9.05C108.224 9.70333 108.275 10.2587 108.378 10.716C108.481 11.164 108.63 11.5047 108.826 11.738C109.022 11.9713 109.251 12.088 109.512 12.088C109.792 12.088 110.03 11.9713 110.226 11.738C110.422 11.5047 110.571 11.164 110.674 10.716C110.777 10.2587 110.828 9.70333 110.828 9.05C110.828 8.406 110.777 7.86 110.674 7.412C110.571 6.95467 110.422 6.614 110.226 6.39C110.03 6.15667 109.792 6.04 109.512 6.04ZM129.616 3.674V16.12H128.174V3.674H129.616ZM125.892 8.588V9.778H123.05V8.588H125.892ZM126.984 3.968V15.518H125.57V3.968H126.984ZM124.338 5.186C124.338 6.37133 124.189 7.468 123.89 8.476C123.592 9.47467 123.097 10.3987 122.406 11.248C121.725 12.0973 120.834 12.8487 119.732 13.502L118.864 12.424C119.807 11.8547 120.572 11.2247 121.16 10.534C121.758 9.84333 122.192 9.08267 122.462 8.252C122.733 7.42133 122.868 6.49733 122.868 5.48V5.186H124.338ZM123.372 5.186V6.404H119.48V5.186H123.372ZM35.1088 23.674V36.12H33.6808V23.674H35.1088ZM34.0448 28.546V29.778H31.8188V28.546H34.0448ZM32.2808 23.912V35.504H30.8808V23.912H32.2808ZM25.7288 31.948C26.6342 31.948 27.4182 31.9293 28.0808 31.892C28.7435 31.8453 29.4108 31.7567 30.0828 31.626L30.2368 32.858C29.5275 32.998 28.8322 33.0913 28.1508 33.138C27.4788 33.1753 26.6715 33.194 25.7288 33.194H24.8888V31.948H25.7288ZM29.4808 25.144V26.362H26.3728V32.536H24.8888V25.144H29.4808ZM46.0712 24.276V25.494H38.1332V24.276H46.0712ZM47.9892 28.798V30.016H36.7192V28.798H47.9892ZM46.6172 24.276V25.242C46.6172 25.97 46.5938 26.6187 46.5472 27.188C46.5005 27.7573 46.3932 28.4107 46.2252 29.148L44.7412 29.106C44.9185 28.378 45.0258 27.734 45.0632 27.174C45.1098 26.6047 45.1332 25.9607 45.1332 25.242V24.276H46.6172ZM46.6032 31.472V35.98H38.0772V31.472H46.6032ZM39.5472 32.662V34.79H45.1332V32.662H39.5472ZM59.2175 23.66V36.148H57.7055V23.66H59.2175ZM52.5675 24.57C53.1928 24.57 53.7482 24.752 54.2335 25.116C54.7188 25.48 55.0968 25.9933 55.3675 26.656C55.6475 27.3187 55.7875 28.0887 55.7875 28.966C55.7875 29.8527 55.6475 30.632 55.3675 31.304C55.0968 31.9667 54.7188 32.48 54.2335 32.844C53.7482 33.208 53.1928 33.39 52.5675 33.39C51.9422 33.39 51.3868 33.208 50.9015 32.844C50.4162 32.48 50.0335 31.9667 49.7535 31.304C49.4828 30.632 49.3475 29.8527 49.3475 28.966C49.3475 28.0887 49.4828 27.3187 49.7535 26.656C50.0335 25.9933 50.4162 25.48 50.9015 25.116C51.3868 24.752 51.9422 24.57 52.5675 24.57ZM52.5675 25.942C52.2128 25.942 51.9048 26.0633 51.6435 26.306C51.3822 26.5393 51.1768 26.8847 51.0275 27.342C50.8782 27.7993 50.8035 28.3407 50.8035 28.966C50.8035 29.6007 50.8782 30.1467 51.0275 30.604C51.1768 31.0613 51.3822 31.4113 51.6435 31.654C51.9048 31.8967 52.2128 32.018 52.5675 32.018C52.9222 32.018 53.2302 31.8967 53.4915 31.654C53.7622 31.4113 53.9722 31.0613 54.1215 30.604C54.2708 30.1373 54.3455 29.5913 54.3455 28.966C54.3455 28.3407 54.2708 27.7993 54.1215 27.342C53.9722 26.8847 53.7622 26.5393 53.4915 26.306C53.2302 26.0633 52.9222 25.942 52.5675 25.942ZM68.7304 25.564V27.23C68.7304 28.154 68.5857 29.0547 68.2964 29.932C68.0164 30.8 67.6104 31.57 67.0784 32.242C66.5464 32.914 65.921 33.418 65.2024 33.754L64.3484 32.578C64.983 32.2793 65.543 31.8453 66.0284 31.276C66.5137 30.7067 66.8824 30.072 67.1344 29.372C67.3957 28.6627 67.5264 27.9487 67.5264 27.23V25.564H68.7304ZM69.0524 25.564V27.23C69.0524 27.9207 69.183 28.602 69.4444 29.274C69.7057 29.9367 70.0744 30.534 70.5504 31.066C71.0357 31.5887 71.6004 31.9853 72.2444 32.256L71.4044 33.446C70.6857 33.1287 70.0557 32.6527 69.5144 32.018C68.973 31.3833 68.5577 30.6553 68.2684 29.834C67.9884 29.0033 67.8484 28.1353 67.8484 27.23V25.564H69.0524ZM71.7824 24.892V26.152H64.7964V24.892H71.7824ZM74.6664 23.674V36.12H73.1544V23.674H74.6664ZM79.5387 30.772V32.228H85.0407V30.772H86.5247V35.98H78.0547V30.772H79.5387ZM79.5387 34.776H85.0407V33.39H79.5387V34.776ZM86.0067 24.192V25.41H78.0687V24.192H86.0067ZM87.9247 28.616V29.848H76.6547V28.616H87.9247ZM86.5527 24.192V25.158C86.5527 25.858 86.5294 26.4833 86.4827 27.034C86.4454 27.5753 86.3474 28.2053 86.1887 28.924L84.6767 28.994C84.854 28.266 84.9614 27.6267 84.9987 27.076C85.0454 26.516 85.0687 25.8767 85.0687 25.158V24.192H86.5527ZM93.735 27.874V29.904H92.223V27.874H93.735ZM99.181 23.674V30.884H97.683V23.674H99.181ZM88.919 29.484C90.4217 29.484 91.8217 29.4607 93.119 29.414C94.4257 29.358 95.653 29.2507 96.801 29.092L96.899 30.128C95.723 30.3427 94.4957 30.4873 93.217 30.562C91.9477 30.6273 90.5757 30.66 89.101 30.66L88.919 29.484ZM96.017 27.118V28.308H89.997V27.118H96.017ZM95.919 24.262V25.48H91.495V27.524H89.997V24.262H95.919ZM92.363 31.388V32.48H97.697V31.388H99.181V35.966H90.879V31.388H92.363ZM92.363 34.776H97.697V33.628H92.363V34.776ZM111.431 23.674V36.12H109.933V23.674H111.431ZM103.339 24.864V32.592H101.827V24.864H103.339ZM102.919 31.71C105.029 31.71 106.998 31.5233 108.827 31.15L109.009 32.41C107.983 32.6153 106.965 32.7647 105.957 32.858C104.959 32.942 103.946 32.984 102.919 32.984H101.827V31.71H102.919ZM123.052 23.66V36.148H121.54V23.66H123.052ZM124.942 28.406V29.652H122.702V28.406H124.942ZM114.89 31.836C116.103 31.836 117.134 31.8127 117.984 31.766C118.833 31.71 119.687 31.598 120.546 31.43L120.7 32.69C119.813 32.858 118.936 32.97 118.068 33.026C117.2 33.0727 116.14 33.096 114.89 33.096H113.882V31.836H114.89ZM119.678 24.85V26.068H115.38V32.438H113.882V24.85H119.678ZM126.734 33.6C126.995 33.6 127.201 33.6793 127.35 33.838C127.509 33.9967 127.588 34.202 127.588 34.454C127.588 34.7153 127.509 34.9253 127.35 35.084C127.201 35.2427 126.995 35.322 126.734 35.322C126.491 35.322 126.286 35.238 126.118 35.07C125.95 34.9113 125.866 34.706 125.866 34.454C125.866 34.202 125.945 33.9967 126.104 33.838C126.272 33.6793 126.482 33.6 126.734 33.6Z" fill="white"/>
<path d="M75.2929 194.207C75.6834 194.598 76.3166 194.598 76.7071 194.207L83.0711 187.843C83.4616 187.453 83.4616 186.819 83.0711 186.429C82.6806 186.038 82.0474 186.038 81.6569 186.429L76 192.086L70.3432 186.429C69.9526 186.038 69.3195 186.038 68.929 186.429C68.5384 186.819 68.5384 187.453 68.929 187.843L75.2929 194.207ZM75 55L75 193.5H77L77 55L75 55Z" fill="white"/>
</svg>
