<svg width="22" height="22" viewBox="0 0 22 22" fill="none" xmlns="http://www.w3.org/2000/svg">
<path d="M11.3823 16.6079C10.5619 16.6079 9.79714 16.4762 9.08811 16.2129C8.38922 15.9394 7.78148 15.5545 7.26491 15.0582C6.74833 14.5619 6.34318 13.9795 6.04944 13.3109C5.76583 12.6424 5.62402 11.9081 5.62402 11.1079C5.62402 10.3077 5.76583 9.57338 6.04944 8.90487C6.34318 8.23636 6.74833 7.65395 7.26491 7.15763C7.79161 6.66132 8.40441 6.28148 9.10331 6.01813C9.8022 5.74465 10.5669 5.60791 11.3975 5.60791C12.3192 5.60791 13.1498 5.76997 13.8892 6.0941C14.6388 6.40809 15.2667 6.87402 15.7732 7.49189L14.1931 8.95045C13.8284 8.53517 13.4233 8.22623 12.9776 8.02366C12.5319 7.81095 12.0458 7.7046 11.5191 7.7046C11.0227 7.7046 10.5669 7.78563 10.1516 7.94769C9.73636 8.10975 9.37679 8.34272 9.07292 8.64658C8.76905 8.95045 8.53102 9.31003 8.35883 9.72531C8.19677 10.1406 8.11574 10.6015 8.11574 11.1079C8.11574 11.6144 8.19677 12.0752 8.35883 12.4905C8.53102 12.9058 8.76905 13.2654 9.07292 13.5692C9.37679 13.8731 9.73636 14.1061 10.1516 14.2681C10.5669 14.4302 11.0227 14.5112 11.5191 14.5112C12.0458 14.5112 12.5319 14.4099 12.9776 14.2074C13.4233 13.9946 13.8284 13.6756 14.1931 13.2502L15.7732 14.7087C15.2667 15.3266 14.6388 15.7976 13.8892 16.1217C13.1498 16.4458 12.3142 16.6079 11.3823 16.6079Z" fill="#FF3838"/>
<circle cx="11" cy="11" r="9.3" stroke="#EBEBEB" stroke-width="1.4"/>
</svg>
