<svg width="51" height="51" viewBox="0 0 51 51" fill="none" xmlns="http://www.w3.org/2000/svg">
<path d="M8.53708 39.0023C6.80981 40.7266 6.80981 43.5243 8.53708 45.2499C10.2658 46.9754 13.0668 46.9754 14.7941 45.2499C16.5214 43.5243 16.5214 40.7263 14.7941 39.0023C13.0668 37.2749 10.2659 37.2749 8.53708 39.0023Z" fill="white"/>
<path d="M10.4527 27.1992C10.4527 24.4557 8.22435 22.2274 5.47634 22.2274C2.72833 22.2274 0.5 24.4557 0.5 27.1992C0.5 29.9456 2.72833 32.1709 5.47634 32.1709C8.22435 32.1709 10.4527 29.9459 10.4527 27.1992Z" fill="white"/>
<path d="M11.6648 6.75049C8.61177 6.75049 6.13605 9.22322 6.13605 12.2747C6.13605 15.3247 8.61177 17.7973 11.6648 17.7973C14.7194 17.7973 17.1936 15.3247 17.1936 12.2747C17.1935 9.22312 14.7194 6.75049 11.6648 6.75049Z" fill="white"/>
<path d="M26.6048 0C23.2468 0 20.5235 2.72162 20.5235 6.07666C20.5235 9.43159 23.2466 12.1532 26.6048 12.1532C29.9659 12.1532 32.6873 9.43159 32.6873 6.07666C32.6891 2.72162 29.9659 0 26.6048 0Z" fill="white"/>
<path d="M26.6048 43.2567C24.4683 43.2567 22.7364 44.9871 22.7364 47.1251C22.7364 49.2586 24.4684 50.9908 26.6048 50.9908C28.7429 50.9908 30.4763 49.2585 30.4763 47.1251C30.4763 44.9871 28.7429 43.2567 26.6048 43.2567Z" fill="white"/>
<path d="M47.7334 24.4372C46.2069 24.4372 44.9697 25.6727 44.9697 27.1992C44.9697 28.7258 46.2069 29.9612 47.7334 29.9612C49.2614 29.9612 50.5 28.7258 50.5 27.1992C50.5 25.6727 49.2614 24.4372 47.7334 24.4372Z" fill="white"/>
<path d="M39.1998 39.7819C37.9052 41.0748 37.9052 43.1742 39.1998 44.4689C40.4961 45.7636 42.5952 45.7636 43.893 44.4689C45.1876 43.1742 45.1876 41.0751 43.893 39.7819C42.5951 38.4872 40.496 38.4872 39.1998 39.7819Z" fill="white"/>
<path d="M41.758 14.2711C42.981 14.2711 43.9708 13.2829 43.9708 12.0614C43.9708 10.8414 42.981 9.85158 41.758 9.85327C40.5381 9.85327 39.5452 10.8414 39.5468 12.0614C39.5468 13.2829 40.5381 14.2711 41.758 14.2711Z" fill="white"/>
</svg>
