<svg width="30" height="30" viewBox="0 0 30 30" fill="none" xmlns="http://www.w3.org/2000/svg">
  <path
    d="M8.52334 13.9761C8.2283 13.9833 7.99083 14.2354 8.00522 14.538C8.01242 14.8334 8.25708 15.0567 8.54493 15.0567H8.56651C10.272 14.9919 11.9199 15.6403 13.1432 16.865C15.5539 19.2785 15.5539 23.2048 13.1432 25.6183C10.7325 28.0317 6.81068 28.0317 4.40001 25.6183C3.23425 24.4512 2.5866 22.895 2.5866 21.2452C2.5866 19.9269 3.03995 18.6373 3.89628 17.5206L10.8621 10.5468V12.1246C10.8621 12.42 11.1067 12.6649 11.4018 12.6649C11.6968 12.6649 11.9415 12.42 11.9415 12.1246V9.24285C11.9415 9.1708 11.9271 9.10596 11.8983 9.03392C11.8407 8.90424 11.74 8.79618 11.6032 8.73854C11.5385 8.70973 11.4665 8.69532 11.3946 8.69532H8.51614C8.2211 8.69532 7.97644 8.94026 7.97644 9.23564C7.97644 9.53102 8.2211 9.77597 8.51614 9.77597H10.0921L3.10472 16.7786C3.10472 16.7786 3.09033 16.8002 3.08313 16.8074C3.07593 16.8146 3.06154 16.8218 3.05435 16.829C2.0397 18.1474 1.5 19.6675 1.5 21.238C1.5 23.176 2.25558 25.0059 3.63003 26.3747C5.00447 27.7435 6.90423 28.5 8.76081 28.5C10.6174 28.5 12.4812 27.794 13.8916 26.3747C16.7196 23.5434 16.7196 18.9327 13.8916 16.0942C12.474 14.6749 10.531 13.9112 8.51614 13.9689L8.52334 13.9761ZM26.3623 3.62347C23.5343 0.792175 18.9288 0.792175 16.0936 3.62347C13.2655 6.45477 13.2655 11.0655 16.0936 13.904C17.4392 15.2512 19.231 16.0077 21.1308 16.0293C21.4258 16.0293 21.6633 15.7916 21.6705 15.4962C21.6705 15.2008 21.433 14.9559 21.138 14.9487C19.5189 14.9271 17.9933 14.2859 16.8492 13.1404C14.4385 10.7269 14.4385 6.80058 16.8492 4.38713C19.2598 1.97368 23.1817 1.97368 25.5924 4.38713C26.7797 5.57585 27.4201 7.14639 27.4058 8.825C27.3914 10.1218 26.938 11.3897 26.0961 12.492L19.1303 19.4658V17.888C19.1303 17.5927 18.8856 17.3477 18.5906 17.3477C18.2956 17.3477 18.0509 17.5927 18.0509 17.888V20.7698C18.0509 20.8418 18.0653 20.9066 18.0941 20.9787C18.1516 21.1084 18.2524 21.2164 18.3891 21.2741C18.4539 21.3029 18.5258 21.3173 18.5978 21.3173H21.4762C21.7713 21.3173 22.0159 21.0723 22.0159 20.777C22.0159 20.4816 21.7713 20.2366 21.4762 20.2366H19.9003L26.8948 13.234C26.8948 13.234 26.9092 13.2124 26.9164 13.2052C26.9236 13.198 26.938 13.1908 26.9452 13.1836C27.9455 11.8868 28.478 10.3883 28.4995 8.84661C28.5211 6.87983 27.7656 5.02832 26.3695 3.63068L26.3623 3.62347Z"
    fill="#767676"/>
  <path
    d="M9.80422 23.3057C10.1065 23.176 10.3583 23.0103 10.5742 22.7942L11.3514 23.5434C11.0635 23.8388 10.6965 24.0837 10.2576 24.2711C9.81861 24.4584 9.39405 24.552 8.99827 24.552C8.35062 24.552 7.77494 24.4079 7.27122 24.127C6.7603 23.8388 6.36451 23.4498 6.08387 22.9455C5.79603 22.4412 5.6593 21.872 5.6593 21.2236C5.6593 20.5752 5.80322 20.0061 6.08387 19.4946C6.36451 18.9903 6.76749 18.5941 7.27122 18.3131C7.78213 18.0321 8.35782 17.8952 8.99827 17.8952C9.40844 17.8952 9.82581 17.9889 10.2576 18.1762C10.6893 18.3635 11.0563 18.6085 11.3514 18.9038L10.5742 19.6459C10.3655 19.4442 10.1065 19.2785 9.81142 19.1488C9.51638 19.0191 9.22854 18.9543 8.94789 18.9543C8.52333 18.9543 8.14913 19.0479 7.82531 19.2424C7.50149 19.437 7.24243 19.7035 7.05533 20.0421C6.86824 20.3879 6.77469 20.777 6.77469 21.2236C6.77469 21.6703 6.86824 22.0593 7.05533 22.4051C7.24243 22.7509 7.50149 23.0175 7.82531 23.2048C8.14913 23.3993 8.53052 23.493 8.94789 23.493C9.22134 23.493 9.50918 23.4282 9.80422 23.2985V23.3057Z"
    fill="#767676"/>
  <path d="M23.1386 5.37394C23.4624 5.55405 23.7214 5.8134 23.9013 6.15201C24.0812 6.49061 24.1748 6.86523 24.1748 7.28308C24.1748 7.70093 24.0812 8.08997 23.9013 8.42137C23.7214 8.75277 23.4624 9.00492 23.1386 9.19223C22.8147 9.37234 22.4406 9.46599 22.016 9.46599H20.109V12.0235H19.2743V5.10017H22.0088C22.4334 5.10017 22.8075 5.19383 23.1314 5.37394H23.1386ZM22.6996 8.54384C22.9083 8.42857 23.0738 8.25567 23.1889 8.03233C23.3041 7.809 23.3616 7.55685 23.3616 7.27588C23.3616 6.85082 23.2321 6.50502 22.9803 6.23846C22.7284 5.9719 22.3974 5.83501 21.9872 5.83501H20.1018V8.71674H21.9872C22.2535 8.71674 22.4909 8.65911 22.6996 8.54384Z" fill="#767676"/>
  <path
    d="M20.253 12.1678H19.1304V4.94907H22.0088C22.4549 4.94907 22.8579 5.04993 23.2033 5.24444C23.5487 5.43896 23.8294 5.71993 24.0237 6.08014C24.218 6.43316 24.3187 6.8366 24.3187 7.27606C24.3187 7.71553 24.218 8.13338 24.0237 8.48639C23.8294 8.8394 23.5559 9.11316 23.2033 9.30768C22.8579 9.5022 22.4549 9.60306 22.0088 9.60306H20.2458V12.1606L20.253 12.1678ZM19.4182 11.8796H19.9651V9.32209H22.016C22.4118 9.32209 22.7644 9.23564 23.0666 9.06273C23.3688 8.89703 23.6063 8.65209 23.7718 8.34951C23.9445 8.04692 24.0309 7.68671 24.0309 7.28327C24.0309 6.87982 23.9445 6.53402 23.7718 6.22423C23.6063 5.91445 23.3688 5.6695 23.0666 5.5038C22.7644 5.3309 22.4118 5.24444 22.016 5.24444H19.4254V11.8796H19.4182ZM21.98 8.86822H19.9579V5.69832H21.98C22.4262 5.69832 22.8004 5.84961 23.081 6.14498C23.3616 6.44036 23.4984 6.82219 23.4984 7.28327C23.4984 7.58585 23.4336 7.85961 23.3113 8.10456C23.1817 8.35671 23.0018 8.55123 22.7644 8.68091C22.5341 8.81058 22.2678 8.87542 21.98 8.87542V8.86822ZM20.2458 8.58004H21.98C22.2175 8.58004 22.4334 8.52961 22.6276 8.42155C22.8147 8.32069 22.9587 8.1694 23.0594 7.96768C23.1602 7.76596 23.2105 7.53542 23.2105 7.27606C23.2105 6.88703 23.1026 6.57724 22.8723 6.3395C22.6492 6.10176 22.3542 5.97928 21.98 5.97928H20.2386V8.57284L20.2458 8.58004Z"
    fill="#767676"/>
</svg>
