<svg width="96" height="96" viewBox="0 0 96 96" fill="none" xmlns="http://www.w3.org/2000/svg">
<rect width="96" height="96" rx="10" fill="#303030"/>
<path d="M66.3333 59.6667C66.3333 60.5507 65.9821 61.3986 65.357 62.0237C64.7319 62.6488 63.884 63 63 63H33C32.1159 63 31.2681 62.6488 30.6429 62.0237C30.0178 61.3986 29.6666 60.5507 29.6666 59.6667V41.3333C29.6666 40.4493 30.0178 39.6014 30.6429 38.9763C31.2681 38.3512 32.1159 38 33 38H39.6666L43 33H53L56.3333 38H63C63.884 38 64.7319 38.3512 65.357 38.9763C65.9821 39.6014 66.3333 40.4493 66.3333 41.3333V59.6667Z" stroke="white" stroke-width="2" stroke-linecap="round" stroke-linejoin="round"/>
<path d="M48 56.3333C51.6819 56.3333 54.6667 53.3486 54.6667 49.6667C54.6667 45.9848 51.6819 43 48 43C44.3181 43 41.3334 45.9848 41.3334 49.6667C41.3334 53.3486 44.3181 56.3333 48 56.3333Z" stroke="white" stroke-width="2" stroke-linecap="round" stroke-linejoin="round"/>
</svg>
