<svg width="110" height="122" viewBox="0 0 110 122" fill="none" xmlns="http://www.w3.org/2000/svg">
<g filter="url(#filter0_d_1900_24738)">
<rect x="6" y="6" width="98" height="110" rx="14" fill="white"/>
<rect x="6.5" y="6.5" width="97" height="109" rx="13.5" stroke="#E1E1E1"/>
</g>
<path d="M36.5076 94.21C35.5276 94.21 34.6503 93.986 33.8756 93.538C33.1103 93.09 32.5083 92.4693 32.0696 91.676C31.6403 90.8733 31.4256 89.9633 31.4256 88.946C31.4256 87.9287 31.6403 87.0187 32.0696 86.216C32.5083 85.4133 33.1103 84.7927 33.8756 84.354C34.6503 83.906 35.5276 83.682 36.5076 83.682C37.2076 83.682 37.8656 83.8173 38.4816 84.088C39.0976 84.3587 39.639 84.7367 40.1056 85.222L39.1536 86.16C38.8456 85.7867 38.4536 85.4927 37.9776 85.278C37.511 85.0633 37.021 84.956 36.5076 84.956C35.7983 84.956 35.1683 85.124 34.6176 85.46C34.0763 85.7867 33.6516 86.2533 33.3436 86.86C33.045 87.4667 32.8956 88.162 32.8956 88.946C32.8956 89.73 33.045 90.4253 33.3436 91.032C33.6516 91.6293 34.0763 92.096 34.6176 92.432C35.1683 92.768 35.7983 92.936 36.5076 92.936C37.0396 92.936 37.525 92.8333 37.9636 92.628C38.4116 92.4133 38.7896 92.1287 39.0976 91.774L40.1056 92.67C39.6296 93.1647 39.0883 93.5473 38.4816 93.818C37.8843 94.0887 37.2263 94.2193 36.5076 94.21ZM42.3229 92.6C42.5842 92.6 42.7896 92.6793 42.9389 92.838C43.0976 92.9967 43.1769 93.202 43.1769 93.454C43.1769 93.7153 43.0976 93.9253 42.9389 94.084C42.7896 94.2427 42.5842 94.322 42.3229 94.322C42.0802 94.322 41.8749 94.238 41.7069 94.07C41.5389 93.9113 41.4549 93.706 41.4549 93.454C41.4549 93.202 41.5342 92.9967 41.6929 92.838C41.8609 92.6793 42.0709 92.6 42.3229 92.6ZM49.342 92.964C49.762 92.964 50.1307 92.8613 50.448 92.656C50.7654 92.4413 51.0127 92.1427 51.19 91.76C51.3674 91.3773 51.456 90.9433 51.456 90.458C51.456 89.9633 51.3674 89.5293 51.19 89.156C51.0127 88.7827 50.7654 88.4933 50.448 88.288C50.1307 88.0827 49.762 87.98 49.342 87.98C48.9594 87.98 48.6 88.092 48.264 88.316C47.928 88.54 47.6574 88.8433 47.452 89.226C47.256 89.5993 47.158 90.01 47.158 90.458C47.158 90.906 47.256 91.3213 47.452 91.704C47.6574 92.0867 47.928 92.3947 48.264 92.628C48.6 92.852 48.9594 92.964 49.342 92.964ZM49.426 86.776C50.1074 86.776 50.7094 86.9347 51.232 87.252C51.764 87.56 52.1747 87.994 52.464 88.554C52.7627 89.1047 52.912 89.7393 52.912 90.458C52.912 91.1767 52.7627 91.8207 52.464 92.39C52.1747 92.95 51.764 93.3887 51.232 93.706C50.7094 94.014 50.1074 94.168 49.426 94.168C49.0434 94.168 48.6327 94.0607 48.194 93.846C47.7554 93.6313 47.4054 93.3093 47.144 92.88V97.234H45.688V86.776H47.144V88.036C47.396 87.616 47.7414 87.3033 48.18 87.098C48.628 86.8833 49.0434 86.776 49.426 86.776ZM57.7391 92.936C58.1497 92.936 58.5091 92.8333 58.8171 92.628C59.1344 92.4133 59.3817 92.1193 59.5591 91.746C59.7364 91.3727 59.8251 90.9433 59.8251 90.458C59.8251 89.9727 59.7364 89.5433 59.5591 89.17C59.3817 88.7873 59.1344 88.4933 58.8171 88.288C58.5091 88.0827 58.1497 87.98 57.7391 87.98C57.3377 87.98 56.9784 88.0827 56.6611 88.288C56.3531 88.4933 56.1104 88.7873 55.9331 89.17C55.7557 89.5433 55.6671 89.9727 55.6671 90.458C55.6671 90.9433 55.7557 91.3727 55.9331 91.746C56.1104 92.1193 56.3531 92.4133 56.6611 92.628C56.9784 92.8333 57.3377 92.936 57.7391 92.936ZM57.7531 86.748C58.4344 86.748 59.0411 86.9067 59.5731 87.224C60.1144 87.5413 60.5344 87.98 60.8331 88.54C61.1317 89.1 61.2811 89.7393 61.2811 90.458C61.2811 91.1673 61.1317 91.802 60.8331 92.362C60.5344 92.922 60.1144 93.3607 59.5731 93.678C59.0411 93.9953 58.4344 94.154 57.7531 94.154C57.0624 94.154 56.4511 93.9953 55.9191 93.678C55.3871 93.3607 54.9671 92.922 54.6591 92.362C54.3604 91.802 54.2111 91.1673 54.2111 90.458C54.2111 89.7393 54.3604 89.1 54.6591 88.54C54.9671 87.98 55.3871 87.5413 55.9191 87.224C56.4511 86.9067 57.0624 86.748 57.7531 86.748ZM64.3576 86.818V94.098H62.9016V86.818H64.3576ZM63.6296 83.612C63.8722 83.612 64.0682 83.6913 64.2176 83.85C64.3762 83.9993 64.4556 84.1953 64.4556 84.438C64.4556 84.6713 64.3762 84.8673 64.2176 85.026C64.0682 85.1847 63.8722 85.264 63.6296 85.264C63.3869 85.264 63.1862 85.1847 63.0276 85.026C62.8782 84.8673 62.8036 84.6713 62.8036 84.438C62.8036 84.1953 62.8782 83.9993 63.0276 83.85C63.1862 83.6913 63.3869 83.612 63.6296 83.612ZM71.5366 90.038C71.5366 89.4127 71.378 88.918 71.0606 88.554C70.7526 88.19 70.328 88.008 69.7866 88.008C69.4226 88.0173 69.0913 88.1107 68.7926 88.288C68.5033 88.4653 68.2746 88.708 68.1066 89.016C67.948 89.3147 67.8686 89.6553 67.8686 90.038V94.098H66.4126V86.776H67.8686V88.008C68.0926 87.6533 68.4006 87.364 68.7926 87.14C69.194 86.9067 69.5906 86.79 69.9826 86.79C70.496 86.79 70.9813 86.902 71.4386 87.126C71.896 87.35 72.2693 87.7047 72.5586 88.19C72.848 88.666 72.9926 89.2633 72.9926 89.982V94.098H71.5366V90.038ZM77.5424 94.14C77.1224 94.14 76.7444 94.0467 76.4084 93.86C76.0817 93.664 75.8204 93.398 75.6244 93.062C75.4377 92.7167 75.3444 92.3247 75.3444 91.886V84.83H76.8004V91.816C76.8004 92.068 76.8704 92.2873 77.0104 92.474C77.1504 92.6607 77.3277 92.7587 77.5424 92.768C77.6917 92.768 77.8877 92.74 78.1304 92.684C78.1771 92.6747 78.2284 92.6653 78.2844 92.656L78.5924 94.014C78.2004 94.098 77.8504 94.14 77.5424 94.14ZM74.0844 86.832H78.3684V88.106H74.0844V86.832Z" fill="#303030"/>
<rect x="22" y="22" width="66" height="41.4857" rx="4" fill="#767676"/>
<path d="M38.208 47.228C37.36 47.228 36.6 47.036 35.928 46.652C35.264 46.26 34.744 45.72 34.368 45.032C34 44.336 33.816 43.548 33.816 42.668C33.816 41.78 34 40.992 34.368 40.304C34.744 39.616 35.264 39.08 35.928 38.696C36.6 38.304 37.36 38.108 38.208 38.108C38.808 38.108 39.376 38.228 39.912 38.468C40.448 38.7 40.92 39.024 41.328 39.44L40.392 40.4C40.136 40.08 39.812 39.828 39.42 39.644C39.036 39.46 38.632 39.368 38.208 39.368C37.624 39.368 37.108 39.504 36.66 39.776C36.212 40.048 35.864 40.436 35.616 40.94C35.376 41.436 35.256 42.012 35.256 42.668C35.256 43.324 35.376 43.904 35.616 44.408C35.864 44.904 36.212 45.288 36.66 45.56C37.108 45.832 37.624 45.968 38.208 45.968C38.656 45.968 39.06 45.876 39.42 45.692C39.78 45.508 40.084 45.268 40.332 44.972L41.328 45.896C40.912 46.328 40.444 46.66 39.924 46.892C39.412 47.116 38.84 47.228 38.208 47.228ZM43.1931 45.728C43.4251 45.728 43.6171 45.804 43.7691 45.956C43.9211 46.1 43.9971 46.292 43.9971 46.532C43.9971 46.764 43.9211 46.956 43.7691 47.108C43.6171 47.268 43.4251 47.348 43.1931 47.348C42.9531 47.348 42.7571 47.268 42.6051 47.108C42.4531 46.956 42.3771 46.764 42.3771 46.532C42.3771 46.292 42.4531 46.1 42.6051 45.956C42.7571 45.804 42.9531 45.728 43.1931 45.728ZM49.3515 45.992C49.6875 45.992 49.9835 45.908 50.2395 45.74C50.4955 45.572 50.6915 45.336 50.8275 45.032C50.9715 44.72 51.0435 44.36 51.0435 43.952C51.0435 43.544 50.9715 43.188 50.8275 42.884C50.6915 42.58 50.4955 42.344 50.2395 42.176C49.9835 42.008 49.6875 41.924 49.3515 41.924C49.0315 41.924 48.7315 42.016 48.4515 42.2C48.1795 42.384 47.9635 42.632 47.8035 42.944C47.6435 43.248 47.5635 43.584 47.5635 43.952C47.5635 44.32 47.6435 44.664 47.8035 44.984C47.9635 45.296 48.1795 45.544 48.4515 45.728C48.7315 45.904 49.0315 45.992 49.3515 45.992ZM49.4595 40.748C50.0435 40.748 50.5635 40.888 51.0195 41.168C51.4755 41.44 51.8315 41.82 52.0875 42.308C52.3515 42.788 52.4835 43.336 52.4835 43.952C52.4835 44.568 52.3515 45.124 52.0875 45.62C51.8315 46.108 51.4755 46.488 51.0195 46.76C50.5635 47.032 50.0435 47.168 49.4595 47.168C49.1475 47.168 48.8075 47.088 48.4395 46.928C48.0795 46.768 47.7875 46.512 47.5635 46.16V49.772H46.1235V40.76H47.5635V41.744C47.7875 41.4 48.0875 41.148 48.4635 40.988C48.8395 40.828 49.1715 40.748 49.4595 40.748ZM56.6653 45.98C56.9853 45.98 57.2693 45.9 57.5173 45.74C57.7733 45.572 57.9693 45.336 58.1053 45.032C58.2413 44.72 58.3093 44.364 58.3093 43.964C58.3093 43.564 58.2413 43.212 58.1053 42.908C57.9693 42.596 57.7733 42.356 57.5173 42.188C57.2693 42.02 56.9853 41.936 56.6653 41.936C56.3373 41.936 56.0493 42.02 55.8013 42.188C55.5533 42.356 55.3613 42.596 55.2253 42.908C55.0893 43.212 55.0213 43.564 55.0213 43.964C55.0213 44.364 55.0893 44.716 55.2253 45.02C55.3613 45.324 55.5533 45.56 55.8013 45.728C56.0493 45.896 56.3373 45.98 56.6653 45.98ZM56.6653 40.76C57.2653 40.76 57.7973 40.896 58.2613 41.168C58.7253 41.44 59.0893 41.82 59.3533 42.308C59.6173 42.788 59.7493 43.34 59.7493 43.964C59.7493 44.58 59.6173 45.132 59.3533 45.62C59.0893 46.108 58.7253 46.488 58.2613 46.76C57.7973 47.032 57.2653 47.168 56.6653 47.168C56.0653 47.168 55.5293 47.032 55.0573 46.76C54.5933 46.488 54.2293 46.112 53.9653 45.632C53.7093 45.144 53.5813 44.588 53.5813 43.964C53.5813 43.34 53.7093 42.788 53.9653 42.308C54.2293 41.82 54.5933 41.44 55.0573 41.168C55.5293 40.896 56.0653 40.76 56.6653 40.76ZM62.5526 40.82V47.132H61.1126V40.82H62.5526ZM61.8326 38.024C62.0646 38.024 62.2526 38.096 62.3966 38.24C62.5406 38.384 62.6126 38.572 62.6126 38.804C62.6126 39.036 62.5406 39.228 62.3966 39.38C62.2526 39.524 62.0646 39.596 61.8326 39.596C61.6006 39.596 61.4086 39.524 61.2566 39.38C61.1126 39.228 61.0406 39.036 61.0406 38.804C61.0406 38.572 61.1126 38.384 61.2566 38.24C61.4086 38.096 61.6006 38.024 61.8326 38.024ZM68.7613 43.7C68.7613 43.156 68.6293 42.732 68.3653 42.428C68.1093 42.124 67.7453 41.972 67.2733 41.972C66.9933 41.972 66.7333 42.048 66.4933 42.2C66.2613 42.344 66.0773 42.548 65.9413 42.812C65.8053 43.068 65.7413 43.364 65.7493 43.7V47.132H64.3093V40.76H65.7493V41.828C65.9173 41.532 66.1693 41.288 66.5053 41.096C66.8493 40.896 67.1933 40.796 67.5373 40.796C67.9533 40.796 68.3613 40.888 68.7613 41.072C69.1693 41.256 69.5093 41.564 69.7813 41.996C70.0613 42.428 70.2013 42.984 70.2013 43.664V47.132H68.7613V43.7ZM74.2749 47.156C73.8909 47.156 73.5469 47.072 73.2429 46.904C72.9389 46.728 72.6989 46.484 72.5229 46.172C72.3549 45.86 72.2669 45.508 72.2589 45.116V39.056H73.6989V45.056C73.6989 45.256 73.7549 45.428 73.8669 45.572C73.9789 45.716 74.1149 45.788 74.2749 45.788C74.4109 45.796 74.5789 45.776 74.7789 45.728C74.8349 45.712 74.8869 45.696 74.9349 45.68L75.2469 47.036C74.8789 47.116 74.5549 47.156 74.2749 47.156ZM71.1549 40.844H75.0669V42.08H71.1549V40.844Z" fill="white"/>
<defs>
<filter id="filter0_d_1900_24738" x="0" y="0" width="110" height="122" filterUnits="userSpaceOnUse" color-interpolation-filters="sRGB">
<feFlood flood-opacity="0" result="BackgroundImageFix"/>
<feColorMatrix in="SourceAlpha" type="matrix" values="0 0 0 0 0 0 0 0 0 0 0 0 0 0 0 0 0 0 127 0" result="hardAlpha"/>
<feOffset/>
<feGaussianBlur stdDeviation="3"/>
<feComposite in2="hardAlpha" operator="out"/>
<feColorMatrix type="matrix" values="0 0 0 0 0 0 0 0 0 0 0 0 0 0 0 0 0 0 0.3 0"/>
<feBlend mode="normal" in2="BackgroundImageFix" result="effect1_dropShadow_1900_24738"/>
<feBlend mode="normal" in="SourceGraphic" in2="effect1_dropShadow_1900_24738" result="shape"/>
</filter>
</defs>
</svg>
