<svg width="137" height="140" viewBox="0 0 137 140" fill="none" xmlns="http://www.w3.org/2000/svg">
<path d="M9.75173 8.238L2.06573 8.616L1.88373 7.328L9.75173 7.09V8.238ZM10.0597 4.402V5.606H2.26173V4.402H10.0597ZM12.1737 10.31V11.528H0.903734V10.31H12.1737ZM7.28773 11.262V16.106H5.78973V11.262H7.28773ZM10.8437 4.402V5.522C10.8437 6.46467 10.8157 7.30467 10.7597 8.042C10.7037 8.77933 10.5684 9.638 10.3537 10.618L8.86974 10.45C9.10307 9.526 9.24773 8.70467 9.30373 7.986C9.35973 7.258 9.38774 6.43667 9.38774 5.522V4.402H10.8437ZM23.3741 4.192V5.382H14.1341V4.192H23.3741ZM23.2761 7.804V8.994H14.2181V7.804H23.2761ZM17.3681 4.682V8.392H15.8561V4.682H17.3681ZM21.6521 4.682V8.392H20.1401V4.682H21.6521ZM24.3961 10.282V11.5H13.1401V10.282H24.3961ZM19.5101 8.602V11.01H18.0121V8.602H19.5101ZM23.1221 14.664V15.882H14.5401V14.664H23.1221ZM16.0521 12.41V15.084H14.5401V12.41H16.0521ZM32.733 4.682V6.67C32.733 7.66867 32.5976 8.62067 32.327 9.526C32.0563 10.4313 31.6596 11.234 31.137 11.934C30.6236 12.634 30.0123 13.166 29.303 13.53L28.379 12.298C29.0323 11.99 29.5923 11.542 30.059 10.954C30.5256 10.366 30.8803 9.70333 31.123 8.966C31.375 8.21933 31.501 7.454 31.501 6.67V4.682H32.733ZM33.013 4.682V6.67C33.013 7.426 33.1296 8.15867 33.363 8.868C33.6056 9.57733 33.951 10.2167 34.399 10.786C34.8563 11.3553 35.3883 11.7893 35.995 12.088L35.085 13.306C34.4036 12.942 33.811 12.424 33.307 11.752C32.8123 11.0707 32.4343 10.296 32.173 9.428C31.921 8.55067 31.795 7.63133 31.795 6.67V4.682H33.013ZM38.277 3.674V16.148H36.765V3.674H38.277ZM40.167 8.574V9.834H37.941V8.574H40.167ZM44.9833 7.86V10.17H43.4853V7.86H44.9833ZM49.4353 7.86V10.17H47.9233V7.86H49.4353ZM52.0953 9.694V10.898H40.8393V9.694H52.0953ZM46.4393 11.64C47.7926 11.64 48.8473 11.836 49.6033 12.228C50.3686 12.62 50.7513 13.1707 50.7513 13.88C50.7513 14.5987 50.3686 15.1493 49.6033 15.532C48.8473 15.924 47.7973 16.12 46.4533 16.12C45.0999 16.12 44.0453 15.924 43.2893 15.532C42.5333 15.1493 42.1553 14.5987 42.1553 13.88C42.1553 13.1707 42.5333 12.62 43.2893 12.228C44.0453 11.836 45.0953 11.64 46.4393 11.64ZM46.4393 12.802C45.5526 12.802 44.8713 12.8953 44.3953 13.082C43.9193 13.2593 43.6813 13.5253 43.6813 13.88C43.6813 14.2347 43.9193 14.5053 44.3953 14.692C44.8713 14.8787 45.5573 14.972 46.4533 14.972C47.3493 14.972 48.0306 14.8833 48.4973 14.706C48.9733 14.5193 49.2113 14.244 49.2113 13.88C49.2113 13.5253 48.9733 13.2593 48.4973 13.082C48.0306 12.8953 47.3446 12.802 46.4393 12.802ZM46.4673 3.884C47.3726 3.884 48.1566 3.97733 48.8193 4.164C49.4913 4.35067 50.0093 4.62133 50.3733 4.976C50.7373 5.33067 50.9193 5.75067 50.9193 6.236C50.9193 6.72133 50.7373 7.14133 50.3733 7.496C50.0093 7.85067 49.4913 8.12133 48.8193 8.308C48.1566 8.49467 47.3726 8.588 46.4673 8.588C45.5526 8.588 44.7639 8.49467 44.1013 8.308C43.4386 8.12133 42.9253 7.85067 42.5613 7.496C42.2066 7.14133 42.0293 6.72133 42.0293 6.236C42.0293 5.74133 42.2066 5.32133 42.5613 4.976C42.9253 4.62133 43.4386 4.35067 44.1013 4.164C44.7733 3.97733 45.5619 3.884 46.4673 3.884ZM46.4533 5.046C45.5386 5.046 44.8293 5.14867 44.3253 5.354C43.8306 5.55 43.5833 5.844 43.5833 6.236C43.5833 6.488 43.6953 6.70733 43.9193 6.894C44.1526 7.07133 44.4839 7.20667 44.9133 7.3C45.3426 7.384 45.8606 7.426 46.4673 7.426C47.0739 7.426 47.5919 7.384 48.0213 7.3C48.4506 7.20667 48.7773 7.07133 49.0013 6.894C49.2346 6.70733 49.3513 6.488 49.3513 6.236C49.3513 5.844 49.0993 5.55 48.5953 5.354C48.0913 5.14867 47.3773 5.046 46.4533 5.046ZM66.9422 5.018V6.208H56.8482V5.018H66.9422ZM67.5862 11.738V12.956H56.3022V11.738H67.5862ZM62.6722 12.788V16.148H61.1742V12.788H62.6722ZM61.9302 6.81C63.2462 6.81 64.2682 6.992 64.9962 7.356C65.7335 7.72 66.1022 8.24267 66.1022 8.924C66.1022 9.58667 65.7335 10.1047 64.9962 10.478C64.2682 10.8513 63.2462 11.038 61.9302 11.038C60.6142 11.038 59.5875 10.856 58.8502 10.492C58.1222 10.1187 57.7582 9.596 57.7582 8.924C57.7582 8.24267 58.1222 7.72 58.8502 7.356C59.5782 6.992 60.6048 6.81 61.9302 6.81ZM61.9302 7.944C61.0715 7.944 60.4228 8.028 59.9842 8.196C59.5455 8.35467 59.3262 8.59733 59.3262 8.924C59.3262 9.24133 59.5455 9.484 59.9842 9.652C60.4228 9.81067 61.0668 9.89 61.9162 9.89C62.7842 9.89 63.4375 9.81067 63.8762 9.652C64.3148 9.484 64.5342 9.24133 64.5342 8.924C64.5342 8.59733 64.3148 8.35467 63.8762 8.196C63.4375 8.028 62.7888 7.944 61.9302 7.944ZM62.6722 3.632V5.816H61.1742V3.632H62.6722ZM69.6445 16.904H68.5665L69.0845 13.726H70.5825L69.6445 16.904ZM85.2046 4.178V5.354H77.2806V4.178H85.2046ZM85.7646 4.178V5.2C85.7646 5.93733 85.746 6.586 85.7086 7.146C85.6713 7.706 85.578 8.32667 85.4286 9.008L83.9446 8.854C84.094 8.182 84.1873 7.58467 84.2246 7.062C84.262 6.53 84.2806 5.90933 84.2806 5.2V4.178H85.7646ZM84.7286 7.314L77.1266 7.636L76.9306 6.46L84.7286 6.264V7.314ZM87.1086 8.602V9.792H75.8806V8.602H87.1086ZM85.8486 10.702V13.838H78.6526V15.322H77.1686V12.746H84.3366V11.878H77.1406V10.702H85.8486ZM86.2686 14.818V15.98H77.1686V14.818H86.2686ZM98.379 3.674V11.318H96.867V3.674H98.379ZM98.379 11.906V16.148H96.867V13.124H89.979V11.906H98.379ZM89.797 9.484C91.113 9.484 92.1956 9.46533 93.045 9.428C93.9036 9.38133 94.7716 9.28333 95.649 9.134L95.817 10.338C94.921 10.4873 94.0296 10.59 93.143 10.646C92.2656 10.6927 91.1503 10.716 89.797 10.716H88.761V9.484H89.797ZM94.431 4.388V8.056H90.245V10.072H88.761V6.922H92.947V5.606H88.733V4.388H94.431ZM110.013 3.674V16.148H108.515V3.674H110.013ZM111.903 8.644V9.904H109.677V8.644H111.903ZM107.563 5.578V6.796H100.269V5.578H107.563ZM103.951 7.636C104.539 7.636 105.071 7.762 105.547 8.014C106.023 8.25667 106.392 8.602 106.653 9.05C106.924 9.48867 107.059 9.99267 107.059 10.562C107.059 11.122 106.924 11.626 106.653 12.074C106.392 12.5127 106.023 12.858 105.547 13.11C105.071 13.3527 104.539 13.474 103.951 13.474C103.363 13.474 102.831 13.3527 102.355 13.11C101.889 12.858 101.52 12.5127 101.249 12.074C100.988 11.6353 100.857 11.1313 100.857 10.562C100.857 9.99267 100.988 9.48867 101.249 9.05C101.52 8.602 101.889 8.25667 102.355 8.014C102.831 7.762 103.363 7.636 103.951 7.636ZM103.951 8.882C103.643 8.882 103.359 8.952 103.097 9.092C102.845 9.22267 102.649 9.41867 102.509 9.68C102.369 9.932 102.299 10.226 102.299 10.562C102.299 10.8887 102.369 11.1827 102.509 11.444C102.649 11.696 102.845 11.892 103.097 12.032C103.349 12.172 103.634 12.242 103.951 12.242C104.269 12.242 104.553 12.172 104.805 12.032C105.057 11.892 105.253 11.696 105.393 11.444C105.543 11.1827 105.617 10.8887 105.617 10.562C105.617 10.226 105.543 9.932 105.393 9.68C105.253 9.428 105.057 9.232 104.805 9.092C104.553 8.952 104.269 8.882 103.951 8.882ZM104.721 3.856V6.068H103.181V3.856H104.721ZM116.986 4.682V6.67C116.986 7.706 116.841 8.68133 116.552 9.596C116.272 10.5107 115.861 11.3227 115.32 12.032C114.778 12.732 114.134 13.264 113.388 13.628L112.478 12.368C113.14 12.0787 113.714 11.64 114.2 11.052C114.694 10.4547 115.072 9.778 115.334 9.022C115.595 8.266 115.726 7.482 115.726 6.67V4.682H116.986ZM117.252 4.682V6.67C117.252 7.44467 117.378 8.196 117.63 8.924C117.891 9.64267 118.264 10.2867 118.75 10.856C119.235 11.4253 119.8 11.85 120.444 12.13L119.562 13.348C118.824 13.0027 118.19 12.494 117.658 11.822C117.126 11.15 116.72 10.3753 116.44 9.498C116.16 8.61133 116.02 7.66867 116.02 6.67V4.682H117.252ZM122.852 3.66V16.162H121.34V3.66H122.852ZM134.094 5.732V6.95H130.804V5.732H134.094ZM134.136 8.406V9.624H130.804V8.406H134.136ZM131.14 4.71V10.688H125.344V4.71H131.14ZM126.828 5.9V9.498H129.67V5.9H126.828ZM135.158 3.688V12.76H133.646V3.688H135.158ZM135.438 14.664V15.896H127.024V14.664H135.438ZM128.536 11.92V15.28H127.024V11.92H128.536ZM12.8814 24.682V26.67C12.8814 27.6687 12.7461 28.6207 12.4754 29.526C12.2047 30.4313 11.8081 31.234 11.2854 31.934C10.7721 32.634 10.1607 33.166 9.45139 33.53L8.52739 32.298C9.18072 31.99 9.74072 31.542 10.2074 30.954C10.6741 30.366 11.0287 29.7033 11.2714 28.966C11.5234 28.2193 11.6494 27.454 11.6494 26.67V24.682H12.8814ZM13.1614 24.682V26.67C13.1614 27.426 13.2781 28.1587 13.5114 28.868C13.7541 29.5773 14.0994 30.2167 14.5474 30.786C15.0047 31.3553 15.5367 31.7893 16.1434 32.088L15.2334 33.306C14.5521 32.942 13.9594 32.424 13.4554 31.752C12.9607 31.0707 12.5827 30.296 12.3214 29.428C12.0694 28.5507 11.9434 27.6313 11.9434 26.67V24.682H13.1614ZM18.4254 23.674V36.148H16.9134V23.674H18.4254ZM20.3154 28.574V29.834H18.0894V28.574H20.3154ZM25.1317 27.86V30.17H23.6337V27.86H25.1317ZM29.5837 27.86V30.17H28.0717V27.86H29.5837ZM32.2437 29.694V30.898H20.9877V29.694H32.2437ZM26.5877 31.64C27.9411 31.64 28.9957 31.836 29.7517 32.228C30.5171 32.62 30.8997 33.1707 30.8997 33.88C30.8997 34.5987 30.5171 35.1493 29.7517 35.532C28.9957 35.924 27.9457 36.12 26.6017 36.12C25.2484 36.12 24.1937 35.924 23.4377 35.532C22.6817 35.1493 22.3037 34.5987 22.3037 33.88C22.3037 33.1707 22.6817 32.62 23.4377 32.228C24.1937 31.836 25.2437 31.64 26.5877 31.64ZM26.5877 32.802C25.7011 32.802 25.0197 32.8953 24.5437 33.082C24.0677 33.2593 23.8297 33.5253 23.8297 33.88C23.8297 34.2347 24.0677 34.5053 24.5437 34.692C25.0197 34.8787 25.7057 34.972 26.6017 34.972C27.4977 34.972 28.1791 34.8833 28.6457 34.706C29.1217 34.5193 29.3597 34.244 29.3597 33.88C29.3597 33.5253 29.1217 33.2593 28.6457 33.082C28.1791 32.8953 27.4931 32.802 26.5877 32.802ZM26.6157 23.884C27.5211 23.884 28.3051 23.9773 28.9677 24.164C29.6397 24.3507 30.1577 24.6213 30.5217 24.976C30.8857 25.3307 31.0677 25.7507 31.0677 26.236C31.0677 26.7213 30.8857 27.1413 30.5217 27.496C30.1577 27.8507 29.6397 28.1213 28.9677 28.308C28.3051 28.4947 27.5211 28.588 26.6157 28.588C25.7011 28.588 24.9124 28.4947 24.2497 28.308C23.5871 28.1213 23.0737 27.8507 22.7097 27.496C22.3551 27.1413 22.1777 26.7213 22.1777 26.236C22.1777 25.7413 22.3551 25.3213 22.7097 24.976C23.0737 24.6213 23.5871 24.3507 24.2497 24.164C24.9217 23.9773 25.7104 23.884 26.6157 23.884ZM26.6017 25.046C25.6871 25.046 24.9777 25.1487 24.4737 25.354C23.9791 25.55 23.7317 25.844 23.7317 26.236C23.7317 26.488 23.8437 26.7073 24.0677 26.894C24.3011 27.0713 24.6324 27.2067 25.0617 27.3C25.4911 27.384 26.0091 27.426 26.6157 27.426C27.2224 27.426 27.7404 27.384 28.1697 27.3C28.5991 27.2067 28.9257 27.0713 29.1497 26.894C29.3831 26.7073 29.4997 26.488 29.4997 26.236C29.4997 25.844 29.2477 25.55 28.7437 25.354C28.2397 25.1487 27.5257 25.046 26.6017 25.046ZM37.732 28.77V30.66H36.22V28.77H37.732ZM36.962 24.206C37.5594 24.206 38.0914 24.3133 38.558 24.528C39.034 24.7333 39.4027 25.0273 39.664 25.41C39.9254 25.7927 40.056 26.2267 40.056 26.712C40.056 27.1973 39.9254 27.6313 39.664 28.014C39.4027 28.3873 39.034 28.6813 38.558 28.896C38.0914 29.1013 37.5594 29.204 36.962 29.204C36.3647 29.204 35.828 29.1013 35.352 28.896C34.8854 28.6813 34.5167 28.3873 34.246 28.014C33.9847 27.6313 33.854 27.1973 33.854 26.712C33.854 26.2267 33.9847 25.7927 34.246 25.41C34.5167 25.0273 34.8854 24.7333 35.352 24.528C35.828 24.3133 36.3647 24.206 36.962 24.206ZM36.962 25.354C36.626 25.354 36.332 25.41 36.08 25.522C35.828 25.6247 35.632 25.7787 35.492 25.984C35.352 26.1893 35.282 26.432 35.282 26.712C35.282 26.9827 35.352 27.2207 35.492 27.426C35.632 27.622 35.828 27.776 36.08 27.888C36.332 28 36.626 28.056 36.962 28.056C37.2887 28.056 37.578 28 37.83 27.888C38.082 27.776 38.278 27.622 38.418 27.426C38.558 27.2207 38.628 26.9827 38.628 26.712C38.628 26.432 38.558 26.194 38.418 25.998C38.278 25.7927 38.082 25.634 37.83 25.522C37.578 25.41 37.2887 25.354 36.962 25.354ZM42.996 23.688V33.194H41.484V23.688H42.996ZM44.676 27.72V28.966H42.422V27.72H44.676ZM43.43 34.664V35.882H34.876V34.664H43.43ZM36.402 32.382V35.196H34.876V32.382H36.402ZM33.196 30.268C34.6614 30.268 36.0194 30.2447 37.27 30.198C38.5207 30.142 39.692 30.0347 40.784 29.876L40.882 30.968C39.7527 31.1827 38.572 31.3227 37.34 31.388C36.1174 31.444 34.7967 31.472 33.378 31.472L33.196 30.268ZM49.9264 30.954V33.936H48.4424V30.954H49.9264ZM53.8884 30.94V33.936H52.3904V30.94H53.8884ZM56.7444 33.46V34.692H45.4604V33.46H56.7444ZM55.4284 24.528V28.504H48.3024V30.772H46.8044V27.314H53.9164V25.746H46.7904V24.528H55.4284ZM55.7084 30.156V31.36H46.8044V30.156H55.7084ZM71.2973 23.66V36.162H69.7853V23.66H71.2973ZM70.1493 28.532V29.778H67.3913V28.532H70.1493ZM65.1373 26.796V27.608C65.1373 28.4947 64.9973 29.3487 64.7173 30.17C64.4466 30.9913 64.0546 31.7193 63.5413 32.354C63.0373 32.9793 62.4306 33.4553 61.7213 33.782L60.9093 32.62C61.5346 32.3307 62.0759 31.92 62.5333 31.388C62.9906 30.856 63.3359 30.2633 63.5693 29.61C63.8119 28.9567 63.9333 28.2893 63.9333 27.608V26.796H65.1373ZM65.4453 26.796V27.608C65.4453 28.2613 65.5666 28.9007 65.8093 29.526C66.0519 30.1513 66.4019 30.7207 66.8593 31.234C67.3259 31.738 67.8766 32.1347 68.5113 32.424L67.6993 33.572C66.9899 33.2547 66.3739 32.7927 65.8513 32.186C65.3379 31.5793 64.9413 30.8793 64.6613 30.086C64.3906 29.2927 64.2553 28.4667 64.2553 27.608V26.796H65.4453ZM68.0353 25.76V26.964H61.3013V25.76H68.0353ZM65.4453 23.94V26.39H63.9333V23.94H65.4453ZM83.4496 23.66V36.162H81.9376V23.66H83.4496ZM74.9236 31.962C76.1369 31.962 77.2056 31.934 78.1296 31.878C79.0536 31.8127 79.9963 31.696 80.9576 31.528L81.1116 32.76C80.1223 32.928 79.1469 33.0447 78.1856 33.11C77.2336 33.1753 76.1463 33.208 74.9236 33.208H73.8596V31.962H74.9236ZM79.6556 24.766V29.442H75.3996V32.424H73.8596V28.224H78.1296V25.998H73.8456V24.766H79.6556ZM93.5085 27.874V29.904H91.9825V27.874H93.5085ZM98.9545 23.674V30.884H97.4425V23.674H98.9545ZM88.6785 29.484C90.1812 29.484 91.5812 29.4607 92.8785 29.414C94.1852 29.358 95.4125 29.2507 96.5605 29.092L96.6725 30.142C95.4965 30.3567 94.2832 30.4967 93.0325 30.562C91.7818 30.6273 90.3912 30.6647 88.8605 30.674L88.6785 29.484ZM95.7625 27.118V28.322H89.7425V27.118H95.7625ZM95.6785 24.276V25.48H91.2685V27.524H89.7425V24.276H95.6785ZM92.1365 31.402V32.494H97.4565V31.402H98.9545V35.98H90.6385V31.402H92.1365ZM92.1365 34.776H97.4565V33.642H92.1365V34.776ZM111.177 23.66V36.134H109.679V23.66H111.177ZM103.085 24.864V32.592H101.573V24.864H103.085ZM102.651 31.696C103.64 31.696 104.625 31.654 105.605 31.57C106.585 31.486 107.569 31.346 108.559 31.15L108.741 32.41C107.733 32.6247 106.725 32.7787 105.717 32.872C104.718 32.956 103.696 32.998 102.651 32.998H101.573V31.696H102.651ZM122.769 23.66V36.162H121.243V23.66H122.769ZM124.659 28.406V29.666H122.419V28.406H124.659ZM114.607 31.85C115.764 31.85 116.777 31.822 117.645 31.766C118.513 31.7007 119.386 31.5887 120.263 31.43L120.417 32.704C119.53 32.8627 118.648 32.97 117.771 33.026C116.903 33.0727 115.848 33.096 114.607 33.096H113.585V31.85H114.607ZM119.381 24.85V26.068H115.083V32.438H113.585V24.85H119.381ZM127.221 33.74V35.28H125.625V33.74H127.221Z" fill="white"/>
<path d="M68.2929 139.207C68.6834 139.598 69.3166 139.598 69.7071 139.207L76.071 132.843C76.4616 132.453 76.4616 131.819 76.071 131.429C75.6805 131.038 75.0474 131.038 74.6568 131.429L69 137.086L63.3431 131.429C62.9526 131.038 62.3194 131.038 61.9289 131.429C61.5384 131.819 61.5384 132.453 61.9289 132.843L68.2929 139.207ZM68 53L68 138.5H70L70 53L68 53Z" fill="white"/>
</svg>
