<svg width="50" height="50" viewBox="0 0 50 50" fill="none" xmlns="http://www.w3.org/2000/svg">
<circle cx="25" cy="25" r="25" fill="#00C73C"/>
<path d="M25.1918 27.7767V21.2554H27.6419C29.1371 21.2554 29.9342 22.1651 29.9387 23.4172C29.9342 24.6647 29.1281 25.5699 27.6238 25.5699H26.3628V27.7767H25.1918ZM26.3628 24.6061H27.4617C28.3444 24.6016 28.7408 24.1062 28.7408 23.4172C28.7408 22.7191 28.3444 22.2372 27.4617 22.2372H26.3628V24.6061Z" fill="white"/>
<path d="M30.5152 26.3986C30.5152 25.2997 31.4295 24.9799 32.3347 24.9214C32.677 24.8944 33.3751 24.8628 33.5913 24.8538L33.5867 24.462C33.5867 23.9756 33.276 23.6964 32.704 23.6964C32.1906 23.6964 31.8753 23.9306 31.7853 24.2819H30.6774C30.7584 23.4487 31.506 22.8227 32.731 22.8227C33.6588 22.8227 34.7307 23.2055 34.7307 24.507V27.7767H33.6318V27.1012H33.5958C33.3796 27.5155 32.9247 27.8758 32.1546 27.8758C31.2223 27.8758 30.5152 27.3669 30.5152 26.3986ZM31.6231 26.3896C31.6231 26.8129 31.9699 27.0291 32.4518 27.0291C33.1499 27.0291 33.5958 26.5697 33.5958 26.0203L33.5913 25.6195C33.3841 25.6285 32.7446 25.669 32.5149 25.687C31.9699 25.7321 31.6231 25.9617 31.6231 26.3896Z" fill="white"/>
<path d="M36.325 29.6143C36.0953 29.6098 35.8791 29.6052 35.7305 29.5872V28.6685C35.8701 28.682 36.0638 28.682 36.2169 28.6865C36.4961 28.682 36.7303 28.664 36.9285 28.137L37.0276 27.8758L35.2441 22.8857H36.4601L37.595 26.5788H37.6491L38.784 22.8857H40L38.0364 28.3712C37.7572 29.1504 37.2438 29.6098 36.325 29.6143Z" fill="white"/>
<path d="M10 18H23.0215V31.0215H10V18Z" fill="white"/>
<path d="M13.3356 28.0166V21.005H14.6778L18.8146 26.0534H18.1636V21.005H19.7662V28.0166H18.434L14.2871 22.9683H14.9382V28.0166H13.3356Z" fill="#00C73C"/>
</svg>
