<svg width="24" height="25" viewBox="0 0 24 25" fill="none" xmlns="http://www.w3.org/2000/svg">
<path d="M19 8.5667H5C3.89543 8.5667 3 7.67127 3 6.5667V6.3667C3 5.26213 3.89543 4.3667 5 4.3667H11" stroke="#303030" stroke-width="1.4"/>
<mask id="path-2-inside-1_418_65555" fill="white">
<path fill-rule="evenodd" clip-rule="evenodd" d="M4 3.66675C2.89543 3.66675 2 4.56218 2 5.66675V19.6667C2 20.7713 2.89543 21.6667 4 21.6667H19C19.0047 21.6667 19.0095 21.6667 19.0142 21.6666C20.1122 21.659 21 20.7665 21 19.6667V9.8667C21 9.12642 20.5978 8.48007 20 8.13426V5.66675C20 4.56218 19.1046 3.66675 18 3.66675H4Z"/>
</mask>
<path d="M19.0142 21.6666L19.0045 20.2666L18.9945 20.2668L19.0142 21.6666ZM20 8.13426H18.6V8.94177L19.299 9.34611L20 8.13426ZM3.4 5.66675C3.4 5.33538 3.66863 5.06675 4 5.06675V2.26675C2.12223 2.26675 0.6 3.78898 0.6 5.66675H3.4ZM3.4 19.6667V5.66675H0.6V19.6667H3.4ZM4 20.2667C3.66863 20.2667 3.4 19.9981 3.4 19.6667H0.6C0.6 21.5445 2.12223 23.0667 4 23.0667V20.2667ZM19 20.2667H4V23.0667H19V20.2667ZM18.9945 20.2668C18.9965 20.2668 18.9984 20.2667 19 20.2667V23.0667C19.0111 23.0667 19.0224 23.0667 19.034 23.0665L18.9945 20.2668ZM19.6 19.6667C19.6 19.9966 19.3337 20.2644 19.0045 20.2667L19.024 23.0666C20.8908 23.0536 22.4 21.5365 22.4 19.6667H19.6ZM19.6 9.8667V19.6667H22.4V9.8667H19.6ZM19.299 9.34611C19.482 9.45197 19.6 9.64638 19.6 9.8667H22.4C22.4 8.60646 21.7136 7.50818 20.701 6.92242L19.299 9.34611ZM18.6 5.66675V8.13426H21.4V5.66675H18.6ZM18 5.06675C18.3314 5.06675 18.6 5.33538 18.6 5.66675H21.4C21.4 3.78898 19.8778 2.26675 18 2.26675V5.06675ZM4 5.06675H18V2.26675H4V5.06675Z" fill="#303030" mask="url(#path-2-inside-1_418_65555)"/>
<path d="M12.7 14.6667C12.7 13.3965 13.7297 12.3667 15 12.3667H20C20.718 12.3667 21.3 12.9488 21.3 13.6667V14.6667V15.6667C21.3 16.3847 20.718 16.9667 20 16.9667H15C13.7297 16.9667 12.7 15.937 12.7 14.6667Z" fill="white" stroke="#303030" stroke-width="1.4"/>
</svg>
