<svg width="250" height="56" viewBox="0 0 250 56" fill="none" xmlns="http://www.w3.org/2000/svg">
<g clip-path="url(#clip0_1009_66975)">
<path d="M3.73132 0H0V56H3.73132V0Z" fill="black"/>
<path d="M7.46258 0H5.59692V56H7.46258V0Z" fill="black"/>
<path d="M16.7909 0H11.194V56H16.7909V0Z" fill="black"/>
<path d="M27.9848 0H20.5222V56H27.9848V0Z" fill="black"/>
<path d="M31.7162 0H29.8506V56H31.7162V0Z" fill="black"/>
<path d="M39.1788 0H33.5818V56H39.1788V0Z" fill="black"/>
<path d="M57.8357 56H54.1044V0H57.8357V56ZM52.2387 56H48.5074V0H52.2387V56ZM44.7761 56H41.0448V0H44.7761V56Z" fill="black"/>
<path d="M70.8956 56H69.03V0H70.8956V56ZM63.4327 56H61.567V0H63.4327V56Z" fill="black"/>
<path d="M85.8208 56H82.0895V0H85.8208V56ZM76.4926 56H72.7612V0H76.4926V56Z" fill="black"/>
<path d="M100.746 56H95.1492V0H100.746V56ZM93.2835 56H87.6865V0H93.2835V56Z" fill="black"/>
<path d="M104.477 0H102.612V56H104.477V0Z" fill="black"/>
<path d="M111.94 0H106.343V56H111.94V0Z" fill="black"/>
<path d="M121.269 0H117.537V56H121.269V0Z" fill="black"/>
<path d="M125 0H123.134V56H125V0Z" fill="black"/>
<path d="M134.328 0H130.597V56H134.328V0Z" fill="black"/>
<path d="M138.06 0H136.194V56H138.06V0Z" fill="black"/>
<path d="M149.254 0H143.657V56H149.254V0Z" fill="black"/>
<path d="M154.851 0H151.12V56H154.851V0Z" fill="black"/>
<path d="M169.776 56H167.91V0H169.776V56ZM166.045 56H164.179V0H166.045V56ZM158.582 56H156.717V0H158.582V56Z" fill="black"/>
<path d="M179.104 0H175.373V56H179.104V0Z" fill="black"/>
<path d="M186.567 0H184.701V56H186.567V0Z" fill="black"/>
<path d="M192.164 0H188.433V56H192.164V0Z" fill="black"/>
<path d="M201.492 0H199.627V56H201.492V0Z" fill="black"/>
<path d="M229.477 56H225.746V0H229.477V56ZM223.88 56H220.149V0H223.88V56ZM216.418 56H212.687V0H216.418V56ZM208.955 56H205.224V0H208.955V56Z" fill="black"/>
<path d="M240.672 0H235.075V56H240.672V0Z" fill="black"/>
<path d="M244.403 0H242.537V56H244.403V0Z" fill="black"/>
<path d="M250 0H246.269V56H250V0Z" fill="black"/>
</g>
<defs>
<clipPath id="clip0_1009_66975">
<rect width="250" height="56" fill="white"/>
</clipPath>
</defs>
</svg>
