<svg width="50" height="50" viewBox="0 0 50 50" fill="none" xmlns="http://www.w3.org/2000/svg">
<circle cx="25" cy="25" r="25" fill="#FFEB00"/>
<g clip-path="url(#clip0_1149_70714)">
<path fill-rule="evenodd" clip-rule="evenodd" d="M14.5826 20C12.0511 20 10 21.6153 10 23.6073C10 24.8874 10.8501 26.0115 12.1263 26.6526L11.6939 28.2595C11.6772 28.3095 11.6918 28.3615 11.7274 28.3969C11.7524 28.4219 11.7858 28.4344 11.8213 28.4344C11.8485 28.4344 11.8757 28.424 11.9007 28.4052L13.7576 27.1563C14.027 27.1938 14.3027 27.2167 14.5826 27.2167C17.112 27.2167 19.1652 25.6014 19.1652 23.6094C19.1652 21.6174 17.112 20 14.5826 20Z" fill="black"/>
<path d="M23.0251 26.6026V28.9319H21.3604V20.3434H22.5343L22.739 20.8888C23.092 20.537 23.6288 20.1624 24.4956 20.1624C26.1269 20.1624 26.9018 21.378 26.8892 23.3429C26.8892 25.3995 25.6924 26.7171 23.9818 26.7171C23.6517 26.7171 23.4011 26.6942 23.0251 26.6026ZM23.0251 21.7277V25.4432C23.117 25.4536 23.3447 25.4765 23.5619 25.4765C24.7483 25.4765 25.2037 24.6481 25.2037 23.3409C25.2037 22.1939 24.8966 21.5008 23.9504 21.5008C23.6434 21.5008 23.3008 21.5924 23.0272 21.7277H23.0251Z" fill="black"/>
<path d="M30.5152 22.7622H31.4614V22.5582C31.4614 21.8775 31.0729 21.5591 30.4003 21.5591C29.8865 21.5591 29.2265 21.7069 28.6897 21.9691L28.2344 20.8555C28.8276 20.4454 29.7382 20.1624 30.5486 20.1624C32.1444 20.1624 33.0112 21.0033 33.0112 22.6061V26.5485H31.8374L31.6661 26.026C30.9935 26.5152 30.3774 26.7192 29.8197 26.7192C28.5999 26.7192 27.9148 25.9927 27.9148 24.7646C27.9148 23.4574 28.8276 22.7643 30.5131 22.7643L30.5152 22.7622ZM31.4614 24.954V23.8175H30.6969C29.8427 23.8175 29.4082 24.1235 29.4082 24.7376C29.4082 25.2038 29.6484 25.4307 30.1372 25.4307C30.5925 25.4307 31.1753 25.2038 31.4593 24.954H31.4614Z" fill="black"/>
<path d="M38.0491 25.9095C37.4685 27.454 36.7729 28.5801 35.7578 29.2046L34.7323 28.2617C35.3255 27.7496 35.7474 27.25 36.1108 26.5798L33.8989 20.5704L35.5511 20.127L36.9651 25.002L38.3666 20.1062L39.9979 20.56L38.0491 25.9116V25.9095Z" fill="black"/>
</g>
<defs>
<clipPath id="clip0_1149_70714">
<rect width="30" height="9.20455" fill="white" transform="translate(10 20)"/>
</clipPath>
</defs>
</svg>
