<svg width="24" height="25" viewBox="0 0 24 25" fill="none" xmlns="http://www.w3.org/2000/svg">
<path fill-rule="evenodd" clip-rule="evenodd" d="M4 3.66675C2.89543 3.66675 2 4.56218 2 5.66675V19.6667C2 20.7713 2.89543 21.6667 4 21.6667H19C19.0047 21.6667 19.0095 21.6667 19.0142 21.6666C20.1122 21.659 21 20.7665 21 19.6667V9.8667C21 9.12642 20.5978 8.48007 20 8.13426V5.66675C20 4.56218 19.1046 3.66675 18 3.66675H4Z" fill="#FF3838"/>
<path d="M3.5 6.26685C3.5 5.71456 3.94772 5.26685 4.5 5.26685H17.5C18.0523 5.26685 18.5 5.71456 18.5 6.26685V6.86685C18.5 7.41913 18.0523 7.86685 17.5 7.86685H4.5C3.94772 7.86685 3.5 7.41913 3.5 6.86685V6.26685Z" fill="white"/>
<path d="M12.7 14.6667C12.7 13.3965 13.7297 12.3667 15 12.3667H20C20.718 12.3667 21.3 12.9488 21.3 13.6667V14.6667V15.6667C21.3 16.3847 20.718 16.9667 20 16.9667H15C13.7297 16.9667 12.7 15.937 12.7 14.6667Z" fill="white" stroke="#FF3838" stroke-width="1.4"/>
</svg>
