<svg width="124" height="28" viewBox="0 0 124 28" fill="none" xmlns="http://www.w3.org/2000/svg">
<g clip-path="url(#clip0_1009_64919)">
<path d="M1.85073 0H0V28H1.85073V0Z" fill="black"/>
<path d="M3.70149 0H2.77612V28H3.70149V0Z" fill="black"/>
<path d="M8.32835 0H5.55225V28H8.32835V0Z" fill="black"/>
<path d="M13.8804 0H10.179V28H13.8804V0Z" fill="black"/>
<path d="M15.7313 0H14.8059V28H15.7313V0Z" fill="black"/>
<path d="M19.4326 0H16.6565V28H19.4326V0Z" fill="black"/>
<path d="M28.6865 28H26.8357V0H28.6865V28ZM25.9104 28H24.0596V0H25.9104V28ZM22.2089 28H20.3582V0H22.2089V28Z" fill="black"/>
<path d="M35.1642 28H34.2388V0H35.1642V28ZM31.4626 28H30.5372V0H31.4626V28Z" fill="black"/>
<path d="M42.5672 28H40.7164V0H42.5672V28ZM37.9403 28H36.0896V0H37.9403V28Z" fill="black"/>
<path d="M49.9701 28H47.194V0H49.9701V28ZM46.2687 28H43.4926V0H46.2687V28Z" fill="black"/>
<path d="M51.8209 0H50.8955V28H51.8209V0Z" fill="black"/>
<path d="M55.5224 0H52.7463V28H55.5224V0Z" fill="black"/>
<path d="M60.1493 0H58.2986V28H60.1493V0Z" fill="black"/>
<path d="M62 0H61.0746V28H62V0Z" fill="black"/>
<path d="M66.6269 0H64.7761V28H66.6269V0Z" fill="black"/>
<path d="M68.4776 0H67.5522V28H68.4776V0Z" fill="black"/>
<path d="M74.0299 0H71.2538V28H74.0299V0Z" fill="black"/>
<path d="M76.8061 0H74.9553V28H76.8061V0Z" fill="black"/>
<path d="M84.209 28H83.2836V0H84.209V28ZM82.3583 28H81.4329V0H82.3583V28ZM78.6568 28H77.7314V0H78.6568V28Z" fill="black"/>
<path d="M88.8358 0H86.9851V28H88.8358V0Z" fill="black"/>
<path d="M92.5372 0H91.6118V28H92.5372V0Z" fill="black"/>
<path d="M95.3134 0H93.4626V28H95.3134V0Z" fill="black"/>
<path d="M99.9401 0H99.0148V28H99.9401V0Z" fill="black"/>
<path d="M113.821 28H111.97V0H113.821V28ZM111.045 28H109.194V0H111.045V28ZM107.343 28H105.492V0H107.343V28ZM103.642 28H101.791V0H103.642V28Z" fill="black"/>
<path d="M119.373 0H116.597V28H119.373V0Z" fill="black"/>
<path d="M121.224 0H120.299V28H121.224V0Z" fill="black"/>
<path d="M124 0H122.149V28H124V0Z" fill="black"/>
</g>
<defs>
<clipPath id="clip0_1009_64919">
<rect width="124" height="28" fill="white"/>
</clipPath>
</defs>
</svg>
