<svg width="50" height="50" viewBox="0 0 50 50" fill="none" xmlns="http://www.w3.org/2000/svg">
<circle cx="25" cy="25" r="25" fill="#F4F4F4"/>
<path d="M21.6 21.6631H16.2912C15.4849 21.6631 14.8 22.3091 14.8 23.1154V34.2868C14.8 35.0931 15.4898 35.7488 16.2912 35.7488H33.7769C34.5832 35.7488 35.2001 35.0882 35.2001 34.2868V23.1154C35.2001 22.3091 34.5832 21.6631 33.7769 21.6631H28.4" stroke="#303030" stroke-width="1.2" stroke-miterlimit="10"/>
<path d="M14.8 29.9203H35.2001" stroke="#303030" stroke-width="1.2" stroke-miterlimit="10"/>
<path d="M14.8 32.8346H35.2001" stroke="#303030" stroke-width="1.2" stroke-miterlimit="10"/>
<path d="M28.1912 18.7149C26.4524 16.9761 23.6352 16.9761 21.8964 18.7149" stroke="#303030" stroke-width="1.2" stroke-miterlimit="10"/>
<path d="M26.6319 20.7598C25.7528 19.8807 24.3345 19.8807 23.4553 20.7598" stroke="#303030" stroke-width="1.2" stroke-miterlimit="10"/>
<path d="M29.4926 16.6215C27.0641 14.1929 23.1298 14.1929 20.7061 16.6215" stroke="#303030" stroke-width="1.2" stroke-miterlimit="10"/>
</svg>
