<svg width="30" height="30" viewBox="0 0 30 30" fill="none" xmlns="http://www.w3.org/2000/svg">
<circle cx="15" cy="15" r="15" fill="#F4F4F4"/>
<path d="M5.10674 10.1854C5.10674 10.1854 5.10346 9.58561 5.97898 9.67598C5.97898 9.67598 6.27104 9.71265 7.19763 9.767C7.19763 9.767 7.7896 9.82135 10.6905 10.2398C10.6905 10.2398 14.484 10.7126 16.6299 10.5672C16.6299 10.5672 18.8956 10.5214 21.05 9.86719C21.05 9.86719 23.6733 9.04013 24.0911 8.83386C24.0911 8.83386 24.2509 8.73105 24.4598 8.87053C24.4598 8.87053 24.5514 8.96745 24.7918 8.87643C24.7918 8.87643 25.0694 8.83386 24.9836 9.15211C24.9836 9.15211 24.1225 10.8043 19.0416 12.15C19.0416 12.15 16.3038 12.7681 11.8064 13.1132C11.8064 13.1132 10.2531 13.2586 8.46736 13.5677C8.46736 13.5677 7.44647 13.7589 7.23168 13.3679C7.23168 13.3679 7.12822 13.1682 6.64757 12.9862C6.64757 12.9862 5 12.0432 5 10.8855C5 10.8855 5.17419 10.4729 5.10608 10.1854H5.10674Z" fill="#007662"/>
<path d="M11.3238 19.0854C11.3238 19.0854 10.2551 16.8589 11.9007 14.7903C11.9007 14.7903 13.6989 12.7754 16.3346 14.2311C16.3346 14.2311 18.5185 15.2801 18.1636 18.4096C18.1636 18.4096 17.8643 21.9372 15.5586 24.2082C15.5586 24.2082 15.4087 24.4085 15.2869 24.2998C15.245 24.2625 15.2771 24.2763 15.2116 24.2638C15.2116 24.2638 14.6451 24.5218 14.9123 23.7923C14.9123 23.7923 16.4728 18.5137 15.467 17.0403C15.467 17.0403 14.8632 16.0325 13.8462 16.7378C13.8462 16.7378 13.2222 17.2145 13.4475 18.5314C13.4475 18.5314 13.8024 19.5804 12.9707 19.9013C12.9707 19.9013 12.0173 20.3171 11.3238 19.086V19.0854Z" fill="#007662"/>
<path d="M12.7657 7.79796C12.7657 7.79796 12.7743 6.07377 14.6137 6.03841C14.6137 6.03841 14.7106 6.04758 14.8082 6.01222C14.8082 6.01222 15.7983 5.89697 15.8337 6.37434C15.8337 6.37434 15.8075 6.68408 15.7721 6.79017C15.7721 6.79017 15.7629 6.97548 15.9751 7.11758C15.9751 7.11758 16.6915 7.9394 15.6568 9.08013C15.6568 9.08013 14.579 10.0526 13.3407 9.08013C13.3407 9.08013 12.7841 8.61192 12.7657 7.79796Z" fill="#CE0F41"/>
</svg>
