<svg width="36" height="36" viewBox="0 0 36 36" fill="none" xmlns="http://www.w3.org/2000/svg">
<rect width="36" height="36" rx="8" fill="#F4F4F4"/>
<path d="M25.4666 8.39941H10.5333C9.35509 8.39941 8.39996 9.35454 8.39996 10.5327V25.4661C8.39996 26.6443 9.35509 27.5994 10.5333 27.5994H25.4666C26.6448 27.5994 27.6 26.6443 27.6 25.4661V10.5327C27.6 9.35454 26.6448 8.39941 25.4666 8.39941Z" stroke="#A6A6A6" stroke-width="1.4" stroke-linecap="round" stroke-linejoin="round"/>
<path d="M14.2666 15.866C15.1503 15.866 15.8666 15.1497 15.8666 14.266C15.8666 13.3824 15.1503 12.666 14.2666 12.666C13.383 12.666 12.6666 13.3824 12.6666 14.266C12.6666 15.1497 13.383 15.866 14.2666 15.866Z" stroke="#A6A6A6" stroke-width="1.4" stroke-linecap="round" stroke-linejoin="round"/>
<path d="M27.6 21.1995L22.2667 15.8662L10.5333 27.5995" stroke="#A6A6A6" stroke-width="1.4" stroke-linecap="round" stroke-linejoin="round"/>
</svg>
