<svg width="50" height="50" viewBox="0 0 50 50" fill="none" xmlns="http://www.w3.org/2000/svg">
<path d="M7.5 39.5H14.6C14.9755 39.5017 15.3458 39.588 15.6834 39.7525C16.021 39.917 16.3172 40.1554 16.55 40.45L21.1 46.125C21.5685 46.709 22.1622 47.1803 22.8372 47.5041C23.5122 47.828 24.2513 47.9961 25 47.9961C25.7487 47.9961 26.4878 47.828 27.1628 47.5041C27.8378 47.1803 28.4315 46.709 28.9 46.125L33.45 40.45C33.6828 40.1554 33.979 39.917 34.3166 39.7525C34.6542 39.588 35.0245 39.5017 35.4 39.5H42.5C44.4891 39.5 46.3968 38.7098 47.8033 37.3033C49.2098 35.8968 50 33.9891 50 32V9.5C50 7.51088 49.2098 5.60322 47.8033 4.1967C46.3968 2.79018 44.4891 2 42.5 2H7.5C5.51088 2 3.60322 2.79018 2.1967 4.1967C0.790177 5.60322 0 7.51088 0 9.5V32C0 33.9891 0.790177 35.8968 2.1967 37.3033C3.60322 38.7098 5.51088 39.5 7.5 39.5ZM21.875 13.25C21.875 12.4212 22.2042 11.6263 22.7903 11.0403C23.3763 10.4542 24.1712 10.125 25 10.125C25.8288 10.125 26.6237 10.4542 27.2097 11.0403C27.7958 11.6263 28.125 12.4212 28.125 13.25V20.75C28.125 21.5788 27.7958 22.3737 27.2097 22.9597C26.6237 23.5458 25.8288 23.875 25 23.875C24.1712 23.875 23.3763 23.5458 22.7903 22.9597C22.2042 22.3737 21.875 21.5788 21.875 20.75V13.25ZM25 25.75C25.6181 25.75 26.2223 25.9333 26.7362 26.2767C27.2501 26.62 27.6506 27.1081 27.8871 27.6791C28.1236 28.2501 28.1855 28.8785 28.065 29.4847C27.9444 30.0908 27.6467 30.6477 27.2097 31.0847C26.7727 31.5217 26.2158 31.8194 25.6097 31.94C25.0035 32.0605 24.3751 31.9986 23.8041 31.7621C23.2331 31.5256 22.745 31.1251 22.4017 30.6112C22.0583 30.0973 21.875 29.4931 21.875 28.875C21.875 28.0462 22.2042 27.2513 22.7903 26.6653C23.3763 26.0792 24.1712 25.75 25 25.75Z" fill="#E1E1E1"/>
</svg>
