<svg width="159" height="120" viewBox="0 0 159 120" fill="none" xmlns="http://www.w3.org/2000/svg">
<path d="M9.88757 4.332V5.522C9.88757 6.34333 9.75224 7.10867 9.48157 7.818C9.22024 8.52733 8.8329 9.148 8.31957 9.68C7.80624 10.2027 7.18557 10.5993 6.45757 10.87L5.64557 9.666C6.28957 9.442 6.83557 9.12 7.28357 8.7C7.7409 8.27067 8.08157 7.78533 8.30557 7.244C8.52957 6.70267 8.64157 6.12867 8.64157 5.522V4.332H9.88757ZM10.1676 4.332V5.648C10.1676 6.18 10.2749 6.68867 10.4896 7.174C10.7136 7.65933 11.0402 8.08867 11.4696 8.462C11.9082 8.83533 12.4356 9.12 13.0516 9.316L12.2676 10.506C11.5676 10.2633 10.9656 9.904 10.4616 9.428C9.9669 8.94267 9.5889 8.378 9.32757 7.734C9.07557 7.09 8.94957 6.39467 8.94957 5.648V4.332H10.1676ZM15.5296 3.674V11.108H14.0176V3.674H15.5296ZM17.2516 6.698V7.958H15.1096V6.698H17.2516ZM11.4976 11.43C12.3562 11.43 13.0982 11.5233 13.7236 11.71C14.3489 11.8967 14.8249 12.1673 15.1516 12.522C15.4876 12.8673 15.6556 13.2873 15.6556 13.782C15.6556 14.2673 15.4876 14.6873 15.1516 15.042C14.8249 15.3967 14.3442 15.6627 13.7096 15.84C13.0842 16.0267 12.3469 16.12 11.4976 16.12C10.6482 16.12 9.9109 16.0267 9.28557 15.84C8.66024 15.6627 8.17957 15.3967 7.84357 15.042C7.50757 14.6873 7.33957 14.2673 7.33957 13.782C7.33957 13.2873 7.50757 12.8673 7.84357 12.522C8.17957 12.1673 8.66024 11.8967 9.28557 11.71C9.9109 11.5233 10.6482 11.43 11.4976 11.43ZM11.4976 12.62C10.6482 12.62 9.99024 12.718 9.52357 12.914C9.06624 13.11 8.83757 13.3993 8.83757 13.782C8.83757 14.1553 9.06624 14.4447 9.52357 14.65C9.99024 14.846 10.6482 14.944 11.4976 14.944C12.3562 14.944 13.0142 14.846 13.4716 14.65C13.9289 14.4447 14.1576 14.1553 14.1576 13.782C14.1576 13.3993 13.9289 13.11 13.4716 12.914C13.0142 12.718 12.3562 12.62 11.4976 12.62ZM24.3919 10.422V12.424H22.8939V10.422H24.3919ZM29.2779 9.582V10.786H18.0219V9.582H29.2779ZM28.2559 4.038V5.256H19.0159V4.038H28.2559ZM28.1579 7.44V8.658H19.0999V7.44H28.1579ZM22.2499 4.5V8.224H20.7379V4.5H22.2499ZM26.5339 4.5V8.224H25.0219V4.5H26.5339ZM27.9199 11.976V15.98H19.3659V11.976H27.9199ZM20.8359 13.18V14.776H26.4359V13.18H20.8359ZM37.4542 8.364V9.596H35.2702V8.364H37.4542ZM40.9122 3.66V16.134H39.4702V3.66H40.9122ZM38.3782 3.912V15.532H36.9642V3.912H38.3782ZM33.0582 4.612C33.6089 4.612 34.0849 4.794 34.4862 5.158C34.8876 5.51267 35.1956 6.026 35.4102 6.698C35.6342 7.37 35.7462 8.15867 35.7462 9.064C35.7462 9.96933 35.6342 10.758 35.4102 11.43C35.1956 12.102 34.8876 12.62 34.4862 12.984C34.0849 13.3387 33.6089 13.516 33.0582 13.516C32.5169 13.516 32.0456 13.3387 31.6442 12.984C31.2429 12.62 30.9349 12.102 30.7202 11.43C30.5056 10.758 30.3982 9.96933 30.3982 9.064C30.3982 8.15867 30.5056 7.37 30.7202 6.698C30.9349 6.026 31.2429 5.51267 31.6442 5.158C32.0456 4.794 32.5169 4.612 33.0582 4.612ZM33.0722 6.04C32.8016 6.04 32.5682 6.15667 32.3722 6.39C32.1762 6.62333 32.0269 6.96867 31.9242 7.426C31.8216 7.874 31.7702 8.41533 31.7702 9.05C31.7702 9.70333 31.8216 10.2587 31.9242 10.716C32.0269 11.164 32.1762 11.5047 32.3722 11.738C32.5682 11.9713 32.8016 12.088 33.0722 12.088C33.3336 12.088 33.5622 11.9713 33.7582 11.738C33.9636 11.5047 34.1176 11.164 34.2202 10.716C34.3229 10.2587 34.3742 9.708 34.3742 9.064C34.3742 8.42 34.3229 7.874 34.2202 7.426C34.1176 6.96867 33.9636 6.62333 33.7582 6.39C33.5622 6.15667 33.3336 6.04 33.0722 6.04ZM56.9911 9.918V11.122H45.7071V9.918H56.9911ZM52.2311 10.674V13.39H50.7191V10.674H52.2311ZM55.5491 4.234V8.756H47.1211V4.234H55.5491ZM48.6051 5.41V7.552H54.0511V5.41H48.6051ZM55.7451 14.664V15.882H47.0791V14.664H55.7451ZM48.5771 12.298V15.084H47.0791V12.298H48.5771ZM68.6254 3.66V16.134H67.1694V3.66H68.6254ZM65.0694 8.028V9.246H62.8714V8.028H65.0694ZM66.0774 3.912V15.532H64.6634V3.912H66.0774ZM61.4714 5.676V7.076C61.4714 8.03733 61.3688 8.94733 61.1634 9.806C60.9581 10.6647 60.6454 11.4393 60.2254 12.13C59.8054 12.8113 59.2874 13.348 58.6714 13.74L57.7474 12.62C58.3261 12.256 58.8068 11.7847 59.1894 11.206C59.5721 10.6273 59.8568 9.988 60.0434 9.288C60.2301 8.57867 60.3234 7.84133 60.3234 7.076V5.676H61.4714ZM61.7934 5.676V7.076C61.7934 7.81333 61.8821 8.518 62.0594 9.19C62.2368 9.85267 62.5121 10.4593 62.8854 11.01C63.2681 11.5607 63.7394 12.004 64.2994 12.34L63.4034 13.432C62.7874 13.068 62.2694 12.5593 61.8494 11.906C61.4388 11.2527 61.1354 10.5153 60.9394 9.694C60.7434 8.87267 60.6454 8 60.6454 7.076V5.676H61.7934ZM63.7954 5.018V6.236H58.1674V5.018H63.7954ZM79.8678 3.66V16.12H78.3558V3.66H79.8678ZM81.7158 8.546V9.806H79.4618V8.546H81.7158ZM76.5918 4.976C76.5918 6.908 76.1484 8.63 75.2618 10.142C74.3751 11.654 72.9518 12.9 70.9918 13.88L70.1658 12.732C71.8271 11.8733 73.0684 10.828 73.8898 9.596C74.7111 8.35467 75.1218 6.90333 75.1218 5.242V4.976H76.5918ZM75.8918 4.976V6.208H70.7818V4.976H75.8918ZM89.7307 11.29V11.808C89.7307 12.424 89.6233 13.0027 89.4087 13.544C89.2033 14.0853 88.8907 14.566 88.4707 14.986C88.0507 15.406 87.5373 15.728 86.9307 15.952L86.1887 14.846C86.702 14.6593 87.1407 14.4073 87.5047 14.09C87.8687 13.7633 88.1393 13.404 88.3167 13.012C88.494 12.62 88.5827 12.2187 88.5827 11.808V11.29H89.7307ZM90.0387 11.29V11.808C90.0387 12.4613 90.2207 13.0773 90.5847 13.656C90.958 14.2253 91.504 14.65 92.2227 14.93L91.6067 16.078C90.7013 15.7327 90.0293 15.1727 89.5907 14.398C89.1613 13.6233 88.9467 12.76 88.9467 11.808V11.29H90.0387ZM94.2247 11.29V11.808C94.2247 12.3773 94.1313 12.942 93.9447 13.502C93.758 14.062 93.4687 14.566 93.0767 15.014C92.6847 15.4713 92.1947 15.826 91.6067 16.078L90.9767 14.93C91.4527 14.7247 91.854 14.4493 92.1807 14.104C92.5073 13.7493 92.75 13.3713 92.9087 12.97C93.0673 12.5687 93.1467 12.1813 93.1467 11.808V11.29H94.2247ZM94.6447 11.29V11.808C94.6447 12.2467 94.7287 12.6667 94.8967 13.068C95.074 13.46 95.34 13.81 95.6947 14.118C96.0587 14.426 96.502 14.6687 97.0247 14.846L96.2827 15.952C95.3587 15.6347 94.6587 15.1073 94.1827 14.37C93.716 13.6327 93.4827 12.7787 93.4827 11.808V11.29H94.6447ZM95.9327 3.688V10.772H94.4067V3.688H95.9327ZM89.1987 4.36C89.824 4.36 90.3887 4.486 90.8927 4.738C91.406 4.99 91.8073 5.34 92.0967 5.788C92.386 6.236 92.5307 6.74 92.5307 7.3C92.5307 7.86933 92.386 8.378 92.0967 8.826C91.8073 9.274 91.406 9.624 90.8927 9.876C90.3887 10.128 89.824 10.254 89.1987 10.254C88.5733 10.254 88.0087 10.128 87.5047 9.876C87.0007 9.624 86.604 9.274 86.3147 8.826C86.0253 8.378 85.8807 7.86933 85.8807 7.3C85.8807 6.74 86.0253 6.236 86.3147 5.788C86.604 5.34 87.0007 4.99 87.5047 4.738C88.0087 4.486 88.5733 4.36 89.1987 4.36ZM89.1987 5.62C88.844 5.62 88.5267 5.69 88.2467 5.83C87.976 5.97 87.7567 6.166 87.5887 6.418C87.43 6.67 87.3507 6.964 87.3507 7.3C87.3507 7.64533 87.43 7.94867 87.5887 8.21C87.7567 8.462 87.976 8.658 88.2467 8.798C88.5267 8.92867 88.844 8.994 89.1987 8.994C89.5627 8.994 89.8847 8.92867 90.1647 8.798C90.4447 8.658 90.6593 8.462 90.8087 8.21C90.9673 7.94867 91.0467 7.64533 91.0467 7.3C91.0467 6.964 90.9673 6.67 90.8087 6.418C90.6593 6.166 90.44 5.97 90.1507 5.83C89.8707 5.69 89.5533 5.62 89.1987 5.62ZM103.521 4.374C104.389 4.374 105.168 4.52333 105.859 4.822C106.559 5.11133 107.11 5.522 107.511 6.054C107.922 6.586 108.127 7.202 108.127 7.902C108.127 8.59267 107.922 9.20867 107.511 9.75C107.11 10.282 106.559 10.6973 105.859 10.996C105.168 11.2853 104.389 11.43 103.521 11.43C102.653 11.43 101.869 11.2853 101.169 10.996C100.469 10.6973 99.9183 10.282 99.517 9.75C99.1157 9.20867 98.915 8.59267 98.915 7.902C98.915 7.202 99.1157 6.586 99.517 6.054C99.9183 5.522 100.469 5.11133 101.169 4.822C101.869 4.52333 102.653 4.374 103.521 4.374ZM103.521 5.606C102.924 5.606 102.387 5.69933 101.911 5.886C101.435 6.07267 101.062 6.33867 100.791 6.684C100.52 7.02933 100.385 7.43533 100.385 7.902C100.385 8.35933 100.52 8.76533 100.791 9.12C101.062 9.46533 101.435 9.73133 101.911 9.918C102.387 10.1047 102.924 10.198 103.521 10.198C104.128 10.198 104.664 10.1047 105.131 9.918C105.607 9.73133 105.976 9.46533 106.237 9.12C106.508 8.76533 106.643 8.35933 106.643 7.902C106.643 7.43533 106.508 7.02933 106.237 6.684C105.976 6.33867 105.607 6.07267 105.131 5.886C104.664 5.69933 104.128 5.606 103.521 5.606ZM109.177 13.32V14.58H97.893V13.32H109.177ZM120.419 3.688V12.774H118.893V3.688H120.419ZM120.769 14.664V15.896H112.271V14.664H120.769ZM113.769 11.934V15.294H112.271V11.934H113.769ZM114.441 4.374V5.606C114.441 6.418 114.306 7.188 114.035 7.916C113.765 8.644 113.368 9.28333 112.845 9.834C112.323 10.3753 111.688 10.786 110.941 11.066L110.171 9.862C110.815 9.62867 111.361 9.29267 111.809 8.854C112.267 8.406 112.607 7.902 112.831 7.342C113.065 6.782 113.181 6.20333 113.181 5.606V4.374H114.441ZM114.735 4.374V5.606C114.735 6.194 114.847 6.754 115.071 7.286C115.295 7.80867 115.631 8.28 116.079 8.7C116.537 9.11067 117.083 9.42333 117.717 9.638L116.947 10.842C116.21 10.5807 115.585 10.1933 115.071 9.68C114.558 9.15733 114.166 8.55067 113.895 7.86C113.634 7.16 113.503 6.40867 113.503 5.606V4.374H114.735ZM134.678 5.788V6.992H131.584V5.788H134.678ZM134.594 8.364V9.596H131.472V8.364H134.594ZM135.952 3.674V10.968H134.44V3.674H135.952ZM132.06 4.556C132.06 5.648 131.841 6.62333 131.402 7.482C130.964 8.34067 130.315 9.078 129.456 9.694C128.607 10.3007 127.562 10.7813 126.32 11.136L125.732 9.932C126.768 9.652 127.636 9.28333 128.336 8.826C129.036 8.36867 129.559 7.84133 129.904 7.244C130.259 6.64667 130.436 5.99333 130.436 5.284V4.556H132.06ZM131.5 4.556V5.774H126.404V4.556H131.5ZM131.864 11.122C132.695 11.122 133.423 11.22 134.048 11.416C134.683 11.612 135.168 11.8967 135.504 12.27C135.85 12.6433 136.022 13.0867 136.022 13.6C136.022 14.104 135.85 14.5427 135.504 14.916C135.168 15.28 134.683 15.56 134.048 15.756C133.423 15.9613 132.695 16.064 131.864 16.064C131.024 16.064 130.287 15.9613 129.652 15.756C129.027 15.56 128.542 15.28 128.196 14.916C127.851 14.5427 127.678 14.104 127.678 13.6C127.678 13.0867 127.851 12.6433 128.196 12.27C128.542 11.8967 129.027 11.612 129.652 11.416C130.287 11.22 131.024 11.122 131.864 11.122ZM131.864 12.298C131.015 12.298 130.352 12.41 129.876 12.634C129.41 12.858 129.176 13.18 129.176 13.6C129.176 13.8707 129.284 14.104 129.498 14.3C129.713 14.4867 130.021 14.6313 130.422 14.734C130.824 14.8367 131.304 14.888 131.864 14.888C132.415 14.888 132.886 14.8367 133.278 14.734C133.68 14.6313 133.988 14.4867 134.202 14.3C134.417 14.104 134.524 13.866 134.524 13.586C134.524 13.1753 134.286 12.858 133.81 12.634C133.344 12.41 132.695 12.298 131.864 12.298ZM149.113 10.688V11.934H137.829V10.688H149.113ZM144.171 11.486V16.134H142.673V11.486H144.171ZM143.429 4.136C144.306 4.136 145.081 4.248 145.753 4.472C146.425 4.696 146.943 5.018 147.307 5.438C147.68 5.858 147.867 6.348 147.867 6.908C147.867 7.45867 147.68 7.944 147.307 8.364C146.943 8.784 146.425 9.106 145.753 9.33C145.081 9.554 144.311 9.666 143.443 9.666C142.565 9.666 141.791 9.554 141.119 9.33C140.456 9.106 139.938 8.784 139.565 8.364C139.191 7.944 139.005 7.454 139.005 6.894C139.005 6.34333 139.191 5.858 139.565 5.438C139.938 5.018 140.456 4.696 141.119 4.472C141.791 4.248 142.561 4.136 143.429 4.136ZM143.429 5.326C142.85 5.326 142.346 5.39133 141.917 5.522C141.487 5.64333 141.151 5.82533 140.909 6.068C140.675 6.30133 140.559 6.58133 140.559 6.908C140.559 7.22533 140.675 7.50067 140.909 7.734C141.151 7.96733 141.487 8.14467 141.917 8.266C142.346 8.38733 142.85 8.448 143.429 8.448C144.017 8.448 144.525 8.38733 144.955 8.266C145.393 8.14467 145.729 7.96733 145.963 7.734C146.196 7.50067 146.313 7.22533 146.313 6.908C146.313 6.58133 146.196 6.30133 145.963 6.068C145.729 5.82533 145.393 5.64333 144.955 5.522C144.516 5.39133 144.007 5.326 143.429 5.326ZM151.171 16.904H150.093L150.611 13.726H152.109L151.171 16.904ZM11.0562 24.178V25.354H3.13219V24.178H11.0562ZM11.6162 24.178V25.2C11.6162 25.9373 11.5975 26.586 11.5602 27.146C11.5229 27.706 11.4295 28.3267 11.2802 29.008L9.79619 28.854C9.94552 28.182 10.0389 27.5847 10.0762 27.062C10.1135 26.53 10.1322 25.9093 10.1322 25.2V24.178H11.6162ZM10.5802 27.314L2.97819 27.636L2.78219 26.46L10.5802 26.264V27.314ZM12.9602 28.602V29.792H1.73219V28.602H12.9602ZM11.7002 30.702V33.838H4.50419V35.322H3.02019V32.746H10.1882V31.878H2.99219V30.702H11.7002ZM12.1202 34.818V35.98H3.02019V34.818H12.1202ZM24.2305 23.674V31.318H22.7185V23.674H24.2305ZM24.2305 31.906V36.148H22.7185V33.124H15.8305V31.906H24.2305ZM15.6485 29.484C16.9645 29.484 18.0472 29.4653 18.8965 29.428C19.7552 29.3813 20.6232 29.2833 21.5005 29.134L21.6685 30.338C20.7725 30.4873 19.8812 30.59 18.9945 30.646C18.1172 30.6927 17.0018 30.716 15.6485 30.716H14.6125V29.484H15.6485ZM20.2825 24.388V28.056H16.0965V30.072H14.6125V26.922H18.7985V25.606H14.5845V24.388H20.2825ZM35.8648 23.674V36.148H34.3668V23.674H35.8648ZM37.7548 28.644V29.904H35.5288V28.644H37.7548ZM33.4148 25.578V26.796H26.1208V25.578H33.4148ZM29.8028 27.636C30.3908 27.636 30.9228 27.762 31.3988 28.014C31.8748 28.2567 32.2435 28.602 32.5048 29.05C32.7755 29.4887 32.9108 29.9927 32.9108 30.562C32.9108 31.122 32.7755 31.626 32.5048 32.074C32.2435 32.5127 31.8748 32.858 31.3988 33.11C30.9228 33.3527 30.3908 33.474 29.8028 33.474C29.2148 33.474 28.6828 33.3527 28.2068 33.11C27.7402 32.858 27.3715 32.5127 27.1008 32.074C26.8395 31.6353 26.7088 31.1313 26.7088 30.562C26.7088 29.9927 26.8395 29.4887 27.1008 29.05C27.3715 28.602 27.7402 28.2567 28.2068 28.014C28.6828 27.762 29.2148 27.636 29.8028 27.636ZM29.8028 28.882C29.4948 28.882 29.2102 28.952 28.9488 29.092C28.6968 29.2227 28.5008 29.4187 28.3608 29.68C28.2208 29.932 28.1508 30.226 28.1508 30.562C28.1508 30.8887 28.2208 31.1827 28.3608 31.444C28.5008 31.696 28.6968 31.892 28.9488 32.032C29.2008 32.172 29.4855 32.242 29.8028 32.242C30.1202 32.242 30.4048 32.172 30.6568 32.032C30.9088 31.892 31.1048 31.696 31.2448 31.444C31.3942 31.1827 31.4688 30.8887 31.4688 30.562C31.4688 30.226 31.3942 29.932 31.2448 29.68C31.1048 29.428 30.9088 29.232 30.6568 29.092C30.4048 28.952 30.1202 28.882 29.8028 28.882ZM30.5728 23.856V26.068H29.0328V23.856H30.5728ZM42.8372 24.682V26.67C42.8372 27.706 42.6925 28.6813 42.4032 29.596C42.1232 30.5107 41.7125 31.3227 41.1712 32.032C40.6298 32.732 39.9858 33.264 39.2392 33.628L38.3292 32.368C38.9918 32.0787 39.5658 31.64 40.0512 31.052C40.5458 30.4547 40.9238 29.778 41.1852 29.022C41.4465 28.266 41.5772 27.482 41.5772 26.67V24.682H42.8372ZM43.1032 24.682V26.67C43.1032 27.4447 43.2292 28.196 43.4812 28.924C43.7425 29.6427 44.1158 30.2867 44.6012 30.856C45.0865 31.4253 45.6512 31.85 46.2952 32.13L45.4132 33.348C44.6758 33.0027 44.0412 32.494 43.5092 31.822C42.9772 31.15 42.5712 30.3753 42.2912 29.498C42.0112 28.6113 41.8712 27.6687 41.8712 26.67V24.682H43.1032ZM48.7032 23.66V36.162H47.1912V23.66H48.7032ZM59.9455 25.732V26.95H56.6555V25.732H59.9455ZM59.9875 28.406V29.624H56.6555V28.406H59.9875ZM56.9915 24.71V30.688H51.1955V24.71H56.9915ZM52.6795 25.9V29.498H55.5215V25.9H52.6795ZM61.0095 23.688V32.76H59.4975V23.688H61.0095ZM61.2895 34.664V35.896H52.8755V34.664H61.2895ZM54.3875 31.92V35.28H52.8755V31.92H54.3875ZM72.1744 25.662V26.88H66.1264V25.662H72.1744ZM69.1504 27.552C69.6731 27.552 70.1397 27.6733 70.5504 27.916C70.9704 28.1587 71.2924 28.504 71.5164 28.952C71.7497 29.3907 71.8664 29.8853 71.8664 30.436C71.8664 31.0147 71.7497 31.5233 71.5164 31.962C71.2924 32.4007 70.9704 32.746 70.5504 32.998C70.1397 33.2407 69.6777 33.362 69.1644 33.362C68.6417 33.362 68.1751 33.2407 67.7644 32.998C67.3537 32.746 67.0317 32.4007 66.7984 31.962C66.5744 31.514 66.4624 31.01 66.4624 30.45C66.4624 29.8807 66.5744 29.3813 66.7984 28.952C67.0317 28.5133 67.3537 28.1727 67.7644 27.93C68.1844 27.678 68.6464 27.552 69.1504 27.552ZM69.1504 28.812C68.8891 28.812 68.6557 28.882 68.4504 29.022C68.2451 29.1527 68.0864 29.344 67.9744 29.596C67.8624 29.8387 67.8064 30.1187 67.8064 30.436C67.8064 30.772 67.8624 31.066 67.9744 31.318C68.0864 31.57 68.2451 31.766 68.4504 31.906C68.6557 32.0367 68.8891 32.102 69.1504 32.102C69.4211 32.102 69.6591 32.0367 69.8644 31.906C70.0697 31.766 70.2284 31.57 70.3404 31.318C70.4617 31.066 70.5224 30.772 70.5224 30.436C70.5224 30.1187 70.4617 29.8387 70.3404 29.596C70.2284 29.344 70.0697 29.1527 69.8644 29.022C69.6591 28.882 69.4211 28.812 69.1504 28.812ZM76.7664 23.66V36.134H75.3244V23.66H76.7664ZM75.8004 28.812V30.044H73.6164V28.812H75.8004ZM74.1064 23.926V35.56H72.6784V23.926H74.1064ZM69.9064 24.024V26.418H68.4224V24.024H69.9064ZM88.1207 23.66V30.954H86.5807V23.66H88.1207ZM89.8287 26.74V28H87.6867V26.74H89.8287ZM84.0607 31.192C84.9101 31.192 85.6474 31.29 86.2727 31.486C86.8981 31.682 87.3787 31.9667 87.7147 32.34C88.0507 32.704 88.2187 33.1427 88.2187 33.656C88.2187 34.1693 88.0507 34.6127 87.7147 34.986C87.3787 35.3593 86.8981 35.644 86.2727 35.84C85.6474 36.036 84.9101 36.134 84.0607 36.134C83.2207 36.134 82.4881 36.036 81.8627 35.84C81.2374 35.644 80.7521 35.3593 80.4067 34.986C80.0707 34.6127 79.9027 34.1693 79.9027 33.656C79.9027 33.1427 80.0707 32.704 80.4067 32.34C80.7521 31.9667 81.2374 31.682 81.8627 31.486C82.4881 31.29 83.2207 31.192 84.0607 31.192ZM84.0607 32.396C83.2114 32.396 82.5534 32.5033 82.0867 32.718C81.6294 32.9327 81.4007 33.2453 81.4007 33.656C81.4007 33.9173 81.5034 34.146 81.7087 34.342C81.9234 34.5287 82.2267 34.6733 82.6187 34.776C83.0201 34.8693 83.5007 34.916 84.0607 34.916C84.6301 34.916 85.1107 34.8693 85.5027 34.776C85.9041 34.6733 86.2121 34.5287 86.4267 34.342C86.6414 34.146 86.7487 33.9173 86.7487 33.656C86.7487 33.2453 86.5154 32.9327 86.0487 32.718C85.5821 32.5033 84.9194 32.396 84.0607 32.396ZM79.8467 28.938C81.2467 28.938 82.3434 28.91 83.1367 28.854C83.9394 28.798 84.7187 28.6907 85.4747 28.532L85.6287 29.75C84.8541 29.9087 84.0514 30.016 83.2207 30.072C82.3994 30.128 81.2747 30.156 79.8467 30.156H78.8247V28.938H79.8467ZM84.3687 24.556V25.788H80.3367V29.764H78.8247V24.556H84.3687ZM97.9276 24.332V25.522C97.9276 26.3433 97.7923 27.1087 97.5216 27.818C97.2603 28.5273 96.8729 29.148 96.3596 29.68C95.8463 30.2027 95.2256 30.5993 94.4976 30.87L93.6856 29.666C94.3296 29.442 94.8756 29.12 95.3236 28.7C95.7809 28.2707 96.1216 27.7853 96.3456 27.244C96.5696 26.7027 96.6816 26.1287 96.6816 25.522V24.332H97.9276ZM98.2076 24.332V25.648C98.2076 26.18 98.3149 26.6887 98.5296 27.174C98.7536 27.6593 99.0803 28.0887 99.5096 28.462C99.9483 28.8353 100.476 29.12 101.092 29.316L100.308 30.506C99.6076 30.2633 99.0056 29.904 98.5016 29.428C98.0069 28.9427 97.6289 28.378 97.3676 27.734C97.1156 27.09 96.9896 26.3947 96.9896 25.648V24.332H98.2076ZM103.57 23.674V31.108H102.058V23.674H103.57ZM105.292 26.698V27.958H103.15V26.698H105.292ZM99.5376 31.43C100.396 31.43 101.138 31.5233 101.764 31.71C102.389 31.8967 102.865 32.1673 103.192 32.522C103.528 32.8673 103.696 33.2873 103.696 33.782C103.696 34.2673 103.528 34.6873 103.192 35.042C102.865 35.3967 102.384 35.6627 101.75 35.84C101.124 36.0267 100.387 36.12 99.5376 36.12C98.6883 36.12 97.9509 36.0267 97.3256 35.84C96.7003 35.6627 96.2196 35.3967 95.8836 35.042C95.5476 34.6873 95.3796 34.2673 95.3796 33.782C95.3796 33.2873 95.5476 32.8673 95.8836 32.522C96.2196 32.1673 96.7003 31.8967 97.3256 31.71C97.9509 31.5233 98.6883 31.43 99.5376 31.43ZM99.5376 32.62C98.6883 32.62 98.0303 32.718 97.5636 32.914C97.1063 33.11 96.8776 33.3993 96.8776 33.782C96.8776 34.1553 97.1063 34.4447 97.5636 34.65C98.0303 34.846 98.6883 34.944 99.5376 34.944C100.396 34.944 101.054 34.846 101.512 34.65C101.969 34.4447 102.198 34.1553 102.198 33.782C102.198 33.3993 101.969 33.11 101.512 32.914C101.054 32.718 100.396 32.62 99.5376 32.62ZM112.432 30.422V32.424H110.934V30.422H112.432ZM117.318 29.582V30.786H106.062V29.582H117.318ZM116.296 24.038V25.256H107.056V24.038H116.296ZM116.198 27.44V28.658H107.14V27.44H116.198ZM110.29 24.5V28.224H108.778V24.5H110.29ZM114.574 24.5V28.224H113.062V24.5H114.574ZM115.96 31.976V35.98H107.406V31.976H115.96ZM108.876 33.18V34.776H114.476V33.18H108.876ZM127.531 24.612V25.83H122.127V24.612H127.531ZM125.305 27.454V30.576H123.807V27.454H125.305ZM128.413 24.612V25.354C128.413 25.97 128.394 26.5627 128.357 27.132C128.329 27.692 128.249 28.3127 128.119 28.994L126.649 28.84C126.77 28.1493 126.845 27.5427 126.873 27.02C126.91 26.4973 126.929 25.942 126.929 25.354V24.612H128.413ZM131.367 23.674V33.012H129.841V23.674H131.367ZM132.977 27.58V28.826H130.737V27.58H132.977ZM131.759 34.664V35.896H123.247V34.664H131.759ZM124.759 32.186V35.042H123.247V32.186H124.759ZM121.385 30.002C122.822 30.002 124.185 29.9787 125.473 29.932C126.77 29.876 127.979 29.7687 129.099 29.61L129.197 30.702C128.058 30.9073 126.854 31.0473 125.585 31.122C124.325 31.1873 122.976 31.2247 121.539 31.234L121.385 30.002ZM135.175 30.072C136.342 30.072 137.289 30.0533 138.017 30.016C138.745 29.9693 139.473 29.8807 140.201 29.75L140.383 30.968C139.627 31.0987 138.871 31.1873 138.115 31.234C137.359 31.2713 136.379 31.29 135.175 31.29H134.251V30.072H135.175ZM139.669 24.542V28.392H135.749V30.8H134.251V27.244H138.143V25.76H134.237V24.542H139.669ZM144.107 23.688V32.858H142.595V23.688H144.107ZM142.889 25.648V26.866H140.425V25.648H142.889ZM144.443 34.622V35.854H135.903V34.622H144.443ZM137.415 32.172V35.112H135.903V32.172H137.415ZM142.889 28.448V29.666H140.425V28.448H142.889ZM155.727 23.688V32.998H154.229V23.688H155.727ZM157.463 27.608V28.854H155.293V27.608H157.463ZM153.361 25.074V26.278H146.011V25.074H153.361ZM149.679 26.824C150.267 26.824 150.79 26.9267 151.247 27.132C151.705 27.328 152.059 27.608 152.311 27.972C152.573 28.3267 152.703 28.7327 152.703 29.19C152.703 29.6567 152.573 30.072 152.311 30.436C152.059 30.7907 151.705 31.066 151.247 31.262C150.79 31.4487 150.267 31.542 149.679 31.542C149.091 31.542 148.564 31.4487 148.097 31.262C147.64 31.066 147.281 30.7907 147.019 30.436C146.767 30.072 146.641 29.6567 146.641 29.19C146.641 28.7327 146.767 28.3267 147.019 27.972C147.281 27.608 147.64 27.328 148.097 27.132C148.564 26.9267 149.091 26.824 149.679 26.824ZM149.679 27.972C149.203 27.972 148.821 28.084 148.531 28.308C148.242 28.5227 148.097 28.8167 148.097 29.19C148.097 29.5633 148.242 29.8573 148.531 30.072C148.821 30.2867 149.203 30.394 149.679 30.394C150.146 30.394 150.524 30.2867 150.813 30.072C151.103 29.8573 151.247 29.5633 151.247 29.19C151.247 28.826 151.103 28.532 150.813 28.308C150.533 28.084 150.155 27.972 149.679 27.972ZM150.435 23.674V25.662H148.909V23.674H150.435ZM156.217 34.664V35.896H147.831V34.664H156.217ZM149.329 32.284V35.182H147.831V32.284H149.329ZM23.4192 43.674V53.418H21.8932V43.674H23.4192ZM25.0992 47.86V49.106H22.8452V47.86H25.0992ZM23.8392 54.664V55.896H15.2992V54.664H23.8392ZM16.8112 52.788V55.028H15.2992V52.788H16.8112ZM18.1412 49.694V51.472H16.6432V49.694H18.1412ZM13.5072 50.926C14.9446 50.926 16.3119 50.898 17.6092 50.842C18.9159 50.786 20.1386 50.674 21.2772 50.506L21.3892 51.556C20.2412 51.7707 19.0419 51.9153 17.7912 51.99C16.5499 52.0647 15.1872 52.1067 13.7032 52.116L13.5072 50.926ZM20.9272 44.752V45.872H13.8432V44.752H20.9272ZM17.3852 46.278C18.2906 46.278 19.0139 46.4507 19.5552 46.796C20.0966 47.1413 20.3672 47.608 20.3672 48.196C20.3672 48.8027 20.0966 49.2787 19.5552 49.624C19.0139 49.96 18.2906 50.128 17.3852 50.128C16.4799 50.128 15.7566 49.96 15.2152 49.624C14.6832 49.2787 14.4172 48.8027 14.4172 48.196C14.4172 47.608 14.6832 47.1413 15.2152 46.796C15.7566 46.4507 16.4799 46.278 17.3852 46.278ZM17.3852 47.314C16.8999 47.314 16.5219 47.3933 16.2512 47.552C15.9806 47.7013 15.8452 47.9207 15.8452 48.21C15.8452 48.4807 15.9806 48.6953 16.2512 48.854C16.5219 49.0033 16.8999 49.078 17.3852 49.078C17.8612 49.078 18.2346 49.0033 18.5052 48.854C18.7852 48.6953 18.9252 48.476 18.9252 48.196C18.9252 47.916 18.7852 47.7013 18.5052 47.552C18.2346 47.3933 17.8612 47.314 17.3852 47.314ZM18.1412 43.618V45.242H16.6432V43.618H18.1412ZM32.2256 49.68V51.486H30.7276V49.68H32.2256ZM28.8236 43.87V44.822H34.1856V43.87H35.6836V48.014H27.3256V43.87H28.8236ZM28.8236 46.88H34.1856V45.956H28.8236V46.88ZM37.1256 48.812V50.016H25.8696V48.812H37.1256ZM35.7256 50.982V53.978H28.6976V55.28H27.2136V52.914H34.2416V52.088H27.1856V50.982H35.7256ZM36.0756 54.874V56.022H27.2136V54.874H36.0756ZM45.4344 50.03V53.628H43.9364V50.03H45.4344ZM49.9984 50.03V53.628H48.4864V50.03H49.9984ZM52.6164 53.39V54.636H41.3324V53.39H52.6164ZM46.9604 44.374C47.8471 44.374 48.6358 44.5093 49.3264 44.78C50.0264 45.0507 50.5724 45.4333 50.9644 45.928C51.3658 46.4227 51.5664 47.0013 51.5664 47.664C51.5664 48.308 51.3658 48.8773 50.9644 49.372C50.5724 49.8667 50.0264 50.2493 49.3264 50.52C48.6358 50.7907 47.8471 50.926 46.9604 50.926C46.0738 50.926 45.2804 50.7907 44.5804 50.52C43.8898 50.2493 43.3438 49.8667 42.9424 49.372C42.5504 48.8773 42.3544 48.308 42.3544 47.664C42.3544 47.0013 42.5504 46.4227 42.9424 45.928C43.3438 45.4333 43.8898 45.0507 44.5804 44.78C45.2804 44.5093 46.0738 44.374 46.9604 44.374ZM46.9604 45.55C46.3444 45.55 45.8031 45.6387 45.3364 45.816C44.8698 45.984 44.5011 46.2267 44.2304 46.544C43.9691 46.8613 43.8384 47.2347 43.8384 47.664C43.8384 48.084 43.9691 48.4527 44.2304 48.77C44.5011 49.078 44.8698 49.3207 45.3364 49.498C45.8031 49.666 46.3444 49.75 46.9604 49.75C47.5764 49.75 48.1178 49.666 48.5844 49.498C49.0511 49.3207 49.4151 49.078 49.6764 48.77C49.9378 48.4527 50.0684 48.084 50.0684 47.664C50.0684 47.2347 49.9378 46.8613 49.6764 46.544C49.4151 46.2267 49.0464 45.984 48.5704 45.816C48.1038 45.6387 47.5671 45.55 46.9604 45.55ZM57.7548 45.83V46.306C57.7548 47.0433 57.6148 47.7293 57.3348 48.364C57.0641 48.9987 56.6674 49.554 56.1448 50.03C55.6314 50.4967 55.0061 50.8467 54.2688 51.08L53.5408 49.904C54.1754 49.708 54.7168 49.428 55.1648 49.064C55.6128 48.6907 55.9488 48.2707 56.1728 47.804C56.3968 47.328 56.5088 46.8287 56.5088 46.306V45.83H57.7548ZM58.0208 45.83V46.306C58.0208 46.782 58.1374 47.2393 58.3708 47.678C58.6041 48.1073 58.9448 48.49 59.3928 48.826C59.8408 49.1527 60.3774 49.4047 61.0028 49.582L60.3308 50.758C59.5841 50.5433 58.9448 50.2213 58.4128 49.792C57.8808 49.3533 57.4748 48.84 57.1948 48.252C56.9241 47.6547 56.7888 47.006 56.7888 46.306V45.83H58.0208ZM60.5968 45.06V46.25H53.9328V45.06H60.5968ZM58.0208 43.632V45.522H56.5088V43.632H58.0208ZM62.7808 47.09V48.322H60.2328V47.09H62.7808ZM63.9288 43.688V51.206H62.4168V43.688H63.9288ZM59.7568 51.458C61.0728 51.458 62.1041 51.6633 62.8508 52.074C63.5974 52.4847 63.9708 53.0587 63.9708 53.796C63.9708 54.524 63.5928 55.0933 62.8368 55.504C62.0901 55.9147 61.0634 56.12 59.7568 56.12C58.4501 56.12 57.4234 55.9147 56.6768 55.504C55.9301 55.0933 55.5568 54.524 55.5568 53.796C55.5568 53.0587 55.9301 52.4847 56.6768 52.074C57.4234 51.6633 58.4501 51.458 59.7568 51.458ZM59.7568 52.62C58.8794 52.62 58.2074 52.7227 57.7408 52.928C57.2741 53.124 57.0408 53.4133 57.0408 53.796C57.0408 54.1693 57.2741 54.454 57.7408 54.65C58.2074 54.846 58.8794 54.944 59.7568 54.944C60.6341 54.944 61.3014 54.846 61.7588 54.65C62.2254 54.454 62.4588 54.1647 62.4588 53.782C62.4588 53.4087 62.2254 53.124 61.7588 52.928C61.3014 52.7227 60.6341 52.62 59.7568 52.62ZM76.0811 43.66V56.162H74.5551V43.66H76.0811ZM69.4311 44.584C70.0564 44.584 70.6118 44.766 71.0971 45.13C71.5918 45.4847 71.9744 45.9933 72.2451 46.656C72.5251 47.3187 72.6651 48.0887 72.6651 48.966C72.6651 49.8527 72.5251 50.632 72.2451 51.304C71.9744 51.9667 71.5918 52.48 71.0971 52.844C70.6118 53.208 70.0564 53.39 69.4311 53.39C68.8151 53.39 68.2598 53.2127 67.7651 52.858C67.2798 52.494 66.8971 51.976 66.6171 51.304C66.3464 50.632 66.2111 49.8527 66.2111 48.966C66.2111 48.0887 66.3464 47.3187 66.6171 46.656C66.8971 45.9933 67.2798 45.4847 67.7651 45.13C68.2598 44.766 68.8151 44.584 69.4311 44.584ZM69.4451 45.942C69.0904 45.942 68.7778 46.0633 68.5071 46.306C68.2458 46.5393 68.0404 46.8847 67.8911 47.342C67.7418 47.7993 67.6671 48.3407 67.6671 48.966C67.6671 49.6007 67.7418 50.1513 67.8911 50.618C68.0404 51.0753 68.2458 51.4253 68.5071 51.668C68.7778 51.9013 69.0858 52.018 69.4311 52.018C69.7858 52.018 70.0938 51.9013 70.3551 51.668C70.6258 51.4253 70.8358 51.0753 70.9851 50.618C71.1344 50.1513 71.2091 49.6007 71.2091 48.966C71.2091 48.3407 71.1344 47.7993 70.9851 47.342C70.8358 46.8847 70.6258 46.5393 70.3551 46.306C70.0938 46.0633 69.7904 45.942 69.4451 45.942ZM90.942 43.66V56.12H89.43V43.66H90.942ZM92.79 48.546V49.806H90.536V48.546H92.79ZM87.666 44.976C87.666 46.908 87.2227 48.63 86.336 50.142C85.4493 51.654 84.026 52.9 82.066 53.88L81.24 52.732C82.9013 51.8733 84.1427 50.828 84.964 49.596C85.7853 48.3547 86.196 46.9033 86.196 45.242V44.976H87.666ZM86.966 44.976V46.208H81.856V44.976H86.966ZM103.5 46.922V48.14H94.9603V46.922H103.5ZM96.4723 43.898V47.468H94.9603V43.898H96.4723ZM104.774 49.372V50.576H93.5183V49.372H104.774ZM99.1183 51.5C100.462 51.5 101.512 51.7053 102.268 52.116C103.034 52.5173 103.416 53.082 103.416 53.81C103.416 54.5287 103.034 55.0887 102.268 55.49C101.512 55.8913 100.462 56.092 99.1183 56.092C97.765 56.092 96.7103 55.8913 95.9543 55.49C95.1983 55.0887 94.8203 54.5287 94.8203 53.81C94.8203 53.082 95.1983 52.5173 95.9543 52.116C96.7103 51.7053 97.765 51.5 99.1183 51.5ZM99.1043 52.676C98.2083 52.676 97.5223 52.7693 97.0463 52.956C96.5797 53.1427 96.3463 53.4273 96.3463 53.81C96.3463 54.0433 96.4537 54.244 96.6683 54.412C96.883 54.58 97.1957 54.706 97.6063 54.79C98.017 54.874 98.521 54.916 99.1183 54.916C100.005 54.916 100.686 54.8227 101.162 54.636C101.638 54.4493 101.876 54.174 101.876 53.81C101.876 53.4273 101.638 53.1427 101.162 52.956C100.696 52.7693 100.01 52.676 99.1043 52.676ZM115.471 43.688V50.954H113.973V43.688H115.471ZM117.207 46.74V48H114.869V46.74H117.207ZM109.003 51.458V52.55H113.987V51.458H115.471V55.98H107.491V51.458H109.003ZM109.003 54.776H113.987V53.712H109.003V54.776ZM113.105 44.85V46.04H105.755V44.85H113.105ZM109.423 46.488C110.02 46.488 110.543 46.5813 110.991 46.768C111.448 46.9453 111.803 47.1973 112.055 47.524C112.316 47.8507 112.447 48.2333 112.447 48.672C112.447 49.1013 112.316 49.484 112.055 49.82C111.803 50.156 111.448 50.4173 110.991 50.604C110.543 50.7813 110.02 50.87 109.423 50.87C108.825 50.87 108.298 50.7813 107.841 50.604C107.383 50.4173 107.024 50.1607 106.763 49.834C106.511 49.498 106.385 49.1107 106.385 48.672C106.385 48.2427 106.511 47.8647 106.763 47.538C107.024 47.202 107.383 46.9453 107.841 46.768C108.298 46.5813 108.825 46.488 109.423 46.488ZM109.423 47.594C108.947 47.594 108.564 47.692 108.275 47.888C107.985 48.0747 107.841 48.336 107.841 48.672C107.841 49.008 107.985 49.274 108.275 49.47C108.564 49.666 108.947 49.764 109.423 49.764C109.899 49.764 110.277 49.666 110.557 49.47C110.846 49.274 110.991 49.008 110.991 48.672C110.991 48.336 110.846 48.0747 110.557 47.888C110.277 47.692 109.899 47.594 109.423 47.594ZM110.179 43.576V45.508H108.653V43.576H110.179ZM128.295 43.66V56.134H126.797V43.66H128.295ZM120.203 44.864V52.592H118.691V44.864H120.203ZM119.769 51.696C120.758 51.696 121.743 51.654 122.723 51.57C123.703 51.486 124.688 51.346 125.677 51.15L125.859 52.41C124.851 52.6247 123.843 52.7787 122.835 52.872C121.836 52.956 120.814 52.998 119.769 52.998H118.691V51.696H119.769ZM139.887 43.66V56.162H138.361V43.66H139.887ZM141.777 48.406V49.666H139.537V48.406H141.777ZM131.725 51.85C132.883 51.85 133.895 51.822 134.763 51.766C135.631 51.7007 136.504 51.5887 137.381 51.43L137.535 52.704C136.649 52.8627 135.767 52.97 134.889 53.026C134.021 53.0727 132.967 53.096 131.725 53.096H130.703V51.85H131.725ZM136.499 44.85V46.068H132.201V52.438H130.703V44.85H136.499ZM144.34 53.74V55.28H142.744V53.74H144.34Z" fill="white"/>
<path d="M114.043 119.707C114.433 120.098 115.067 120.098 115.457 119.707L121.821 113.343C122.212 112.953 122.212 112.319 121.821 111.929C121.431 111.538 120.797 111.538 120.407 111.929L114.75 117.586L109.093 111.929C108.703 111.538 108.069 111.538 107.679 111.929C107.288 112.319 107.288 112.953 107.679 113.343L114.043 119.707ZM113.75 71.5L113.75 119H115.75L115.75 71.5L113.75 71.5Z" fill="white"/>
</svg>
