<svg width="25" height="25" viewBox="0 0 25 25" fill="none" xmlns="http://www.w3.org/2000/svg">
<circle cx="12" cy="12.4999" r="12" fill="#E1E1E1"/>
<path d="M8.60321 9.03131H7.59874C7.38344 9.03131 7.22205 9.19277 7.22205 9.40797C7.22205 9.60542 7.38344 9.76684 7.59874 9.76684H8.60321C8.8005 9.76684 8.96192 9.60542 8.96192 9.40797C8.96192 9.19277 8.8005 9.03131 8.60321 9.03131Z" fill="#303030"/>
<path d="M14.63 10.2871C14.0202 9.67716 13.1771 9.30051 12.2444 9.30051C11.3116 9.30051 10.4686 9.67716 9.85878 10.2871C9.24888 10.8789 8.8722 11.722 8.8722 12.6548C8.8722 13.5874 9.24888 14.4305 9.85878 15.0404C10.4686 15.6503 11.3116 16.0269 12.2444 16.0269C13.1771 16.0269 14.0202 15.6503 14.63 15.0404C15.2399 14.4305 15.6166 13.5874 15.6166 12.6548C15.6166 11.722 15.2399 10.8789 14.63 10.2871ZM14.0919 14.5202C13.6256 14.9866 12.9619 15.2916 12.2444 15.2916C11.509 15.2916 10.8632 14.9866 10.3789 14.5202C9.91256 14.0359 9.62559 13.3901 9.62559 12.6548C9.62559 11.9373 9.91256 11.2737 10.3789 10.8072C10.8632 10.3229 11.509 10.0359 12.2444 10.0359C12.9619 10.0359 13.6256 10.3229 14.0919 10.8072C14.5762 11.2737 14.8632 11.9373 14.8632 12.6548C14.8632 13.3901 14.5762 14.0359 14.0919 14.5202Z" fill="#303030"/>
<path d="M18.343 8.24202C17.9484 7.84746 17.4103 7.61433 16.8004 7.61433H15.6704L15.4551 7.07611C15.3476 6.84297 15.2399 6.59194 15.0785 6.3945C14.8812 6.16136 14.6121 5.99994 14.2534 5.99994H10.3072C9.64348 5.99994 9.41032 6.48425 9.15922 6.98649L8.85431 7.61433H7.67042C7.07848 7.61433 6.54037 7.84746 6.14578 8.24202V8.2601C5.75115 8.65466 5.5 9.19274 5.5 9.78474V15.8296C5.5 16.4214 5.75115 16.9775 6.14578 17.3721C6.54037 17.7667 7.07848 17.9999 7.67042 17.9999H16.8004C17.4103 17.9999 17.9484 17.7667 18.343 17.3721C18.7377 16.9775 18.9888 16.4214 18.9888 15.8296V9.78474C18.9888 9.19274 18.7377 8.63672 18.343 8.24202ZM18.2534 15.8296C18.2534 16.2241 18.0919 16.5828 17.8229 16.852C17.5717 17.103 17.213 17.2644 16.8004 17.2644H7.67042C7.27582 17.2644 6.91706 17.103 6.66592 16.852C6.39688 16.5828 6.23546 16.2241 6.23546 15.8296V9.78474C6.23546 9.39 6.39688 9.03128 6.66592 8.78025C6.91706 8.51113 7.27582 8.34971 7.67042 8.34971H9.08748C9.24889 8.34971 9.37445 8.2601 9.42826 8.11658L9.82289 7.30938C9.96637 7.02233 10.0919 6.73528 10.3072 6.73528H14.2534C14.361 6.73528 14.4328 6.7892 14.5045 6.8609C14.6121 6.98649 14.6839 7.16586 14.7735 7.36311L15.0785 8.11658C15.1323 8.2601 15.2758 8.34971 15.4193 8.34971H16.8004C17.213 8.34971 17.5717 8.51113 17.8229 8.78025C18.0919 9.03128 18.2534 9.39 18.2534 9.78474V15.8296Z" fill="#303030"/>
</svg>
