<svg width="36" height="36" viewBox="0 0 36 36" fill="none" xmlns="http://www.w3.org/2000/svg">
<path d="M34.2001 17.8844C34.2001 8.99553 26.9313 1.7998 18 1.7998C9.06878 1.7998 1.80005 8.99553 1.80005 17.8844C1.80005 26.7732 9.06878 34.0074 18 34.0074C19.8559 34.0074 21.7117 33.6996 23.4903 33.0454L31.2616 34.1998C31.3003 34.1998 31.339 34.1998 31.339 34.1998C31.4936 34.1998 31.6483 34.1228 31.7642 34.0074C31.8802 33.8535 31.9576 33.6611 31.8802 33.4687L30.527 28.043C31.6096 26.7732 32.4602 25.311 33.0788 23.7718C33.8134 21.8863 34.2001 19.9238 34.2001 17.8844ZM29.4444 27.5813C29.3285 27.7352 29.2898 27.9276 29.3285 28.0815L30.5657 32.93L23.5289 31.8525C23.4903 31.8525 23.4516 31.8525 23.4516 31.8525C23.3743 31.8525 23.2969 31.8525 23.2583 31.891C21.5571 32.5067 19.8172 32.8145 18.0387 32.8145C9.76473 32.8145 2.99862 26.119 2.99862 17.8459C2.99862 9.61121 9.72606 2.87724 18.0387 2.87724C26.3514 2.87724 33.0788 9.57273 33.0788 17.8459C33.0788 19.7314 32.7308 21.5399 32.0349 23.31C31.4163 24.8492 30.527 26.273 29.4444 27.5813Z" fill="#303030"/>
<path d="M11.52 13.1396H24.48" stroke="#303030" stroke-width="1.4" stroke-linecap="square" stroke-linejoin="round"/>
<path d="M11.52 17.8516H24.48" stroke="#303030" stroke-width="1.4" stroke-linecap="square" stroke-linejoin="round"/>
<path d="M11.52 22.5645H24.48" stroke="#303030" stroke-width="1.4" stroke-linecap="square" stroke-linejoin="round"/>
</svg>
