<svg width="25" height="24" viewBox="0 0 25 24" fill="none" xmlns="http://www.w3.org/2000/svg">
<path d="M19.5 7.89995H5.5C4.39543 7.89995 3.5 7.00452 3.5 5.89995V5.69995C3.5 4.59538 4.39543 3.69995 5.5 3.69995H11.5" stroke="#FF3838" stroke-width="1.4"/>
<mask id="path-2-inside-1_978_59660" fill="white">
<path fill-rule="evenodd" clip-rule="evenodd" d="M4.5 3C3.39543 3 2.5 3.89543 2.5 5V19C2.5 20.1046 3.39543 21 4.5 21H19.5C19.5047 21 19.5093 21 19.5139 20.9999C20.6121 20.9924 21.5 20.0999 21.5 18.9999V9.19995C21.5 8.45967 21.0978 7.81332 20.5 7.46752V5C20.5 3.89543 19.6046 3 18.5 3H4.5Z"/>
</mask>
<path d="M19.5139 20.9999L19.5044 19.5999L19.495 19.6L19.5139 20.9999ZM20.5 7.46752H19.1V8.27502L19.799 8.67936L20.5 7.46752ZM3.9 5C3.9 4.66863 4.16863 4.4 4.5 4.4V1.6C2.62223 1.6 1.1 3.12223 1.1 5H3.9ZM3.9 19V5H1.1V19H3.9ZM4.5 19.6C4.16863 19.6 3.9 19.3314 3.9 19H1.1C1.1 20.8778 2.62223 22.4 4.5 22.4V19.6ZM19.5 19.6H4.5V22.4H19.5V19.6ZM19.495 19.6C19.4965 19.6 19.4982 19.6 19.5 19.6V22.4C19.5112 22.4 19.5221 22.3999 19.5329 22.3998L19.495 19.6ZM20.1 18.9999C20.1 19.3299 19.8336 19.5977 19.5044 19.5999L19.5235 22.3999C21.3906 22.3871 22.9 20.8699 22.9 18.9999H20.1ZM20.1 9.19995V18.9999H22.9V9.19995H20.1ZM19.799 8.67936C19.982 8.78522 20.1 8.97963 20.1 9.19995H22.9C22.9 7.93971 22.2136 6.84143 21.201 6.25567L19.799 8.67936ZM19.1 5V7.46752H21.9V5H19.1ZM18.5 4.4C18.8314 4.4 19.1 4.66863 19.1 5H21.9C21.9 3.12223 20.3778 1.6 18.5 1.6V4.4ZM4.5 4.4H18.5V1.6H4.5V4.4Z" fill="#FF3838" mask="url(#path-2-inside-1_978_59660)"/>
<path d="M13.2 14C13.2 12.7297 14.2297 11.7 15.5 11.7H20.5C21.218 11.7 21.8 12.282 21.8 13V14V15C21.8 15.718 21.218 16.3 20.5 16.3H15.5C14.2297 16.3 13.2 15.2703 13.2 14Z" fill="white" stroke="#FF3838" stroke-width="1.4"/>
</svg>
