<svg width="24" height="24" viewBox="0 0 24 24" fill="none" xmlns="http://www.w3.org/2000/svg">
<path d="M19.6912 13.5421C19.6928 13.5728 19.6963 13.6029 19.7017 13.6323V16.3461H4.28545V13.6323C4.29083 13.6029 4.29437 13.5728 4.29596 13.5421C4.5069 9.47421 7.8728 6.24028 11.9936 6.24028C16.1143 6.24028 19.4802 9.47421 19.6912 13.5421Z" stroke="#303030" stroke-width="1.4" stroke-linejoin="round"/>
<path d="M12.8052 8.55042C15.0858 8.90395 16.7936 10.6697 17.1607 12.8082" stroke="#303030" stroke-width="1.4" stroke-linecap="round" stroke-linejoin="round"/>
<mask id="path-3-inside-1_2154_2349" fill="white">
<rect x="2.7002" y="15.5747" width="18.5864" height="4.42532" rx="1"/>
</mask>
<rect x="2.7002" y="15.5747" width="18.5864" height="4.42532" rx="1" stroke="#303030" stroke-width="2.8" stroke-linejoin="round" mask="url(#path-3-inside-1_2154_2349)"/>
<line x1="5.46016" y1="4.83228" x2="6.34772" y2="5.71983" stroke="#303030" stroke-width="1.4" stroke-linecap="round"/>
<line x1="0.7" y1="-0.7" x2="1.95519" y2="-0.7" transform="matrix(-0.707107 0.707107 0.707107 0.707107 19.1626 4.83228)" stroke="#303030" stroke-width="1.4" stroke-linecap="round"/>
<line x1="0.7" y1="-0.7" x2="1.95519" y2="-0.7" transform="matrix(-4.37114e-08 1 1 4.37114e-08 12.436 2)" stroke="#303030" stroke-width="1.4" stroke-linecap="round"/>
</svg>
