<svg width="50" height="50" viewBox="0 0 50 50" fill="none" xmlns="http://www.w3.org/2000/svg">
<path fill-rule="evenodd" clip-rule="evenodd" d="M25.3874 15.4574C32.3169 15.4574 37.9763 20.8953 38.3311 27.7365H38.3487V31.526C39.479 31.7659 40.327 32.7697 40.327 33.9715V36.25C40.327 37.6307 39.2077 38.75 37.827 38.75H12.5C11.1193 38.75 10 37.6307 10 36.25V33.9715C10 32.6155 11.0796 31.5116 12.4262 31.4726V27.7365H12.4438C12.7986 20.8953 18.458 15.4574 25.3874 15.4574ZM36.5834 27.8271C36.5862 27.8805 36.5913 27.9332 36.5987 27.9851V31.4439H14.1762V27.9851C14.1836 27.9332 14.1887 27.8805 14.1915 27.8271C14.4983 21.9111 19.3941 17.2074 25.3874 17.2074C31.3808 17.2074 36.2766 21.9111 36.5834 27.8271ZM12.5 33.2215H37.827C38.2412 33.2215 38.577 33.5573 38.577 33.9715V36.25C38.577 36.6642 38.2412 37 37.827 37H12.5C12.0858 37 11.75 36.6642 11.75 36.25V33.9715C11.75 33.5573 12.0858 33.2215 12.5 33.2215Z" fill="#303030"/>
<path fill-rule="evenodd" clip-rule="evenodd" d="M25.7742 19.9635C25.8482 19.486 26.2954 19.1589 26.7729 19.2329C30.6668 19.8365 33.587 22.8528 34.2154 26.5129C34.2971 26.9892 33.9773 27.4416 33.501 27.5233C33.0248 27.6051 32.5724 27.2853 32.4906 26.809C31.9871 23.8763 29.642 21.4486 26.5048 20.9622C26.0273 20.8882 25.7002 20.4411 25.7742 19.9635Z" fill="#FF3838"/>
<path fill-rule="evenodd" clip-rule="evenodd" d="M14.4088 13.747C14.7505 13.4053 15.3045 13.4053 15.6462 13.747L17.303 15.4038C17.6447 15.7455 17.6447 16.2995 17.303 16.6412C16.9613 16.9829 16.4073 16.9829 16.0656 16.6412L14.4088 14.9845C14.0671 14.6427 14.0671 14.0887 14.4088 13.747Z" fill="#FF3838"/>
<path fill-rule="evenodd" clip-rule="evenodd" d="M35.82 13.747C35.4783 13.4053 34.9243 13.4053 34.5826 13.747L32.9258 15.4038C32.5841 15.7455 32.5841 16.2995 32.9258 16.6412C33.2675 16.9829 33.8215 16.9829 34.1632 16.6412L35.82 14.9845C36.1617 14.6427 36.1617 14.0887 35.82 13.747Z" fill="#FF3838"/>
<path fill-rule="evenodd" clip-rule="evenodd" d="M25.1944 10C24.7112 10 24.3194 10.3918 24.3194 10.875L24.3194 13.218C24.3194 13.7013 24.7112 14.093 25.1944 14.093C25.6777 14.093 26.0694 13.7013 26.0694 13.218L26.0694 10.875C26.0694 10.3918 25.6777 10 25.1944 10Z" fill="#FF3838"/>
</svg>
