<svg width="36" height="36" viewBox="0 0 36 36" fill="none" xmlns="http://www.w3.org/2000/svg">
<path d="M27.2899 16.6277L10.017 7.14492C9.81094 7.041 9.58175 6.99152 9.35119 7.00119C9.12064 7.01085 8.89639 7.07934 8.69972 7.20014C8.50306 7.32094 8.34052 7.49004 8.22754 7.69139C8.11455 7.89274 8.05488 8.11966 8.05418 8.35058V15.9097C8.05253 16.0705 8.10926 16.2264 8.21383 16.3485C8.3184 16.4706 8.46369 16.5505 8.62272 16.5735L22.6197 17.8333L8.56858 19.0932C8.40955 19.1161 8.26425 19.1961 8.15969 19.3182C8.05512 19.4403 7.99839 19.5962 8.00003 19.757V27.3161C8.00073 27.547 8.06041 27.7739 8.17339 27.9753C8.28637 28.1766 8.44891 28.3457 8.64558 28.4665C8.84224 28.5873 9.0665 28.6558 9.29705 28.6655C9.5276 28.6751 9.75679 28.6257 9.96286 28.5218L27.2357 19.039C27.4601 18.9304 27.6502 18.7619 27.785 18.5521C27.9198 18.3423 27.9941 18.0993 27.9997 17.8499C28.0053 17.6005 27.9419 17.3544 27.8167 17.1388C27.6915 16.9231 27.5092 16.7463 27.2899 16.6277Z" fill="#A6A6A6"/>
</svg>
