<svg width="110" height="122" viewBox="0 0 110 122" fill="none" xmlns="http://www.w3.org/2000/svg">
<g filter="url(#filter0_d_1900_24739)">
<rect x="6" y="6" width="98" height="110" rx="14" fill="white"/>
<rect x="6.5" y="6.5" width="97" height="109" rx="13.5" stroke="#FF3838"/>
</g>
<path d="M40.5753 85.474V86.678H37.9713V85.474H40.5753ZM37.9293 83.234C37.9293 84.3353 37.7333 85.2967 37.3413 86.118C36.9493 86.93 36.338 87.616 35.5073 88.176C34.686 88.736 33.622 89.1747 32.3153 89.492L31.7693 88.33C32.88 88.078 33.776 87.742 34.4573 87.322C35.1387 86.8927 35.6287 86.398 35.9273 85.838C36.226 85.278 36.3753 84.6527 36.3753 83.962V83.234H37.9293ZM37.4113 83.234V84.41H32.4133V83.234H37.4113ZM36.5993 86.328L32.0073 86.664L31.7973 85.516L36.5993 85.32V86.328ZM41.8353 82.674V89.016H40.3233V82.674H41.8353ZM41.8353 89.548V92.754H35.2133V94.448H33.7293V91.648H40.3513V90.71H33.7013V89.548H41.8353ZM42.1573 93.79V94.966H33.7293V93.79H42.1573ZM54.0577 82.66V95.148H52.5597V82.66H54.0577ZM53.4977 86.496V87.714H50.2917V86.496H53.4977ZM53.4977 89.072V90.304H50.2917V89.072H53.4977ZM47.9117 85.782V86.608C47.9117 87.4947 47.7717 88.3487 47.4917 89.17C47.221 89.982 46.829 90.7053 46.3157 91.34C45.8117 91.9747 45.2097 92.4553 44.5097 92.782L43.6977 91.62C44.323 91.3307 44.8643 90.92 45.3217 90.388C45.779 89.856 46.129 89.2633 46.3717 88.61C46.6143 87.9567 46.7357 87.2893 46.7357 86.608V85.782H47.9117ZM48.2197 85.782V86.608C48.2197 87.2613 48.341 87.9053 48.5837 88.54C48.8357 89.1653 49.1903 89.7347 49.6477 90.248C50.1143 90.752 50.6603 91.144 51.2857 91.424L50.4737 92.586C49.7643 92.278 49.1483 91.8207 48.6257 91.214C48.1123 90.598 47.7203 89.8933 47.4497 89.1C47.179 88.3067 47.0437 87.476 47.0437 86.608V85.782H48.2197ZM50.8377 84.76V85.95H44.0897V84.76H50.8377ZM48.2197 82.926V85.39H46.7357V82.926H48.2197ZM66.602 82.674V95.12H65.174V82.674H66.602ZM65.566 87.546V88.764H63.368V87.546H65.566ZM61.478 84.144C61.478 85.376 61.3427 86.496 61.072 87.504C60.8013 88.512 60.3253 89.4547 59.644 90.332C58.972 91.2093 58.0387 91.984 56.844 92.656L55.99 91.592C57.026 91.004 57.8427 90.3507 58.44 89.632C59.0373 88.9133 59.4573 88.1293 59.7 87.28C59.9427 86.4307 60.064 85.474 60.064 84.41V84.144H61.478ZM60.568 84.144V85.348H56.676V84.144H60.568ZM63.83 82.968V94.546H62.416V82.968H63.83ZM60.008 88.078L56.228 88.47L56.046 87.182L60.008 86.958V88.078ZM72.7203 83.192V83.892C72.7203 84.9653 72.4077 85.894 71.7823 86.678C71.157 87.462 70.275 88.0127 69.1363 88.33L68.4363 87.154C69.0803 86.9953 69.631 86.7527 70.0883 86.426C70.5457 86.09 70.891 85.7073 71.1243 85.278C71.3577 84.8393 71.4743 84.3773 71.4743 83.892V83.192H72.7203ZM73.0283 83.192V83.892C73.0283 84.592 73.285 85.2127 73.7983 85.754C74.321 86.2953 75.063 86.6733 76.0243 86.888L75.3523 88.064C74.2137 87.784 73.3317 87.28 72.7063 86.552C72.0903 85.8147 71.7823 84.928 71.7823 83.892V83.192H73.0283ZM73.0563 89.66V94.742H71.5443V89.66H73.0563ZM78.5163 82.674V95.12H77.0323V82.674H78.5163ZM68.2123 89.24C69.7337 89.24 71.1523 89.2167 72.4683 89.17C73.7937 89.114 75.049 89.002 76.2343 88.834L76.3323 89.912C75.119 90.1453 73.8637 90.2993 72.5663 90.374C71.269 90.4393 69.8783 90.472 68.3943 90.472L68.2123 89.24Z" fill="#303030"/>
<rect x="22" y="22" width="66" height="41.4857" rx="4" fill="#E03434"/>
<g clip-path="url(#clip0_1900_24739)">
<path d="M38.7187 41.3575H35.1074C34.2403 41.3575 33.5522 40.9975 33.0512 40.272C32.5998 39.6212 32.3713 38.8181 32.3713 37.8656C32.3713 36.913 32.6026 36.0711 33.0622 35.3899C33.5714 34.6339 34.2513 34.2573 35.1074 34.2573H38.7187V35.7582H35.3771C34.9725 35.7582 34.6587 35.9631 34.4275 36.373C34.221 36.7413 34.1164 37.1954 34.1164 37.7409C34.1164 38.2865 34.2238 38.7738 34.4357 39.1698C34.6697 39.6018 34.9835 39.8206 35.3744 39.8206H38.7159V41.3575H38.7187Z" fill="white"/>
<path d="M45.6496 38.8071C45.6496 39.6295 45.3166 40.2803 44.6532 40.7704C44.0559 41.2107 43.3237 41.4322 42.4594 41.4322C41.5951 41.4322 40.9098 41.2162 40.3372 40.7815C39.6931 40.2969 39.3711 39.6406 39.3711 38.8071V34.2573H40.9731V38.5468C40.9731 38.9178 41.1382 39.2169 41.4713 39.4384C41.7741 39.6434 42.1401 39.7458 42.5695 39.7458C42.9989 39.7458 43.3292 39.6461 43.6127 39.4495C43.9265 39.228 44.0862 38.9289 44.0862 38.544V34.2573H45.6524V38.8071H45.6496Z" fill="white"/>
<path d="M52.5556 41.3575H49.6077C48.6746 41.3575 47.9369 41.1332 47.3919 40.6846C46.9625 40.3329 46.6597 39.851 46.4835 39.2418C46.3652 38.8431 46.3074 38.4083 46.3074 37.9403C46.3074 37.8323 46.3074 37.7548 46.3074 37.7105C46.3101 37.6662 46.3129 37.6246 46.3184 37.5914V34.2573H47.9561V37.5942C47.9561 38.1951 48.0883 38.7018 48.3498 39.1117C48.6525 39.5852 49.0709 39.8206 49.6049 39.8206H52.5556V41.3575Z" fill="white"/>
<path d="M57.0369 35.7582H55.3633V41.3575H53.7448V35.7582H52.0713V34.2573H57.0369V35.7582Z" fill="white"/>
<path d="M63.7501 38.8071C63.7501 39.6295 63.4171 40.2803 62.7537 40.7704C62.1564 41.2107 61.4243 41.4322 60.56 41.4322C59.6957 41.4322 59.013 41.2162 58.4378 40.7815C57.7964 40.2969 57.4744 39.6406 57.4744 38.8071V34.2573H59.0763V38.5468C59.0763 38.9178 59.2415 39.2169 59.5745 39.4384C59.8773 39.6434 60.2434 39.7458 60.6728 39.7458C61.1022 39.7458 61.4325 39.6461 61.716 39.4495C62.0298 39.228 62.1895 38.9289 62.1895 38.544V34.2573H63.7556V38.8071H63.7501Z" fill="white"/>
<path d="M70.7417 41.363L66.0927 39.5824V41.3519H64.4742V39.0009C64.4742 38.436 64.6173 37.9791 64.9091 37.6302C65.2476 37.2231 65.7431 37.021 66.401 37.021H68.402C68.5865 37.021 68.7296 36.96 68.8314 36.8382C68.9305 36.7163 68.9828 36.5723 68.9828 36.4062C68.9828 36.229 68.9333 36.0794 68.8369 35.9604C68.7268 35.8247 68.5837 35.7582 68.402 35.7582H64.4714V34.2573H68.6828C69.3131 34.2573 69.8113 34.4789 70.1774 34.9247C70.5077 35.329 70.6756 35.8219 70.6756 36.4062C70.6756 36.9905 70.5105 37.4806 70.1774 37.8822C69.8086 38.3308 69.3104 38.5551 68.6801 38.5551H67.6616L70.7362 39.6849V41.3602L70.7417 41.363Z" fill="white"/>
<path d="M77.6285 41.3575H73.4198C72.7895 41.3575 72.2913 41.1304 71.9252 40.6763C71.5949 40.2692 71.427 39.7707 71.427 39.1781C71.427 38.6437 71.5674 38.1812 71.8454 37.788C71.5674 37.3976 71.427 36.9379 71.427 36.4117C71.427 35.8302 71.5922 35.3373 71.9252 34.9302C72.2913 34.4816 72.7895 34.2573 73.4198 34.2573H77.6285V35.7582H73.6951C73.5189 35.7582 73.3785 35.8219 73.274 35.9521C73.1721 36.0822 73.1198 36.2345 73.1198 36.4062C73.1198 36.5779 73.1694 36.7219 73.2684 36.841C73.3675 36.96 73.5107 37.021 73.6978 37.021H77.6312V38.5578H73.4721C73.3648 38.6049 73.2795 38.688 73.2161 38.8043C73.1528 38.9206 73.1226 39.0508 73.1226 39.1892C73.1226 39.3664 73.1721 39.516 73.2712 39.6461C73.3703 39.7735 73.5134 39.84 73.7006 39.84H77.634V41.3575H77.6285Z" fill="white"/>
<path d="M39.3266 51.6841H36.3787C35.4455 51.6841 34.7079 51.4598 34.1629 51.0112C33.7335 50.6595 33.4307 50.1777 33.2545 49.5685C33.1362 49.1697 33.0784 48.735 33.0784 48.267C33.0784 48.159 33.0784 48.0814 33.0784 48.0371C33.0784 47.9928 33.0839 47.9513 33.0894 47.9181V44.584H34.7271V47.9208C34.7271 48.5217 34.8565 49.0285 35.1207 49.4383C35.4235 49.9119 35.8419 50.1472 36.3732 50.1472H39.3239V51.6841H39.3266Z" fill="white"/>
<path d="M47.2925 51.6838H45.5419L43.6096 46.2258C43.5958 46.1704 43.5545 46.1399 43.483 46.1399C43.4114 46.1399 43.3646 46.1704 43.3316 46.2258L41.4434 51.6838H39.668C39.7698 51.346 39.9873 50.6786 40.3203 49.6762C40.6534 48.6737 40.9754 47.7267 41.292 46.8322C41.6443 45.8381 41.859 45.2843 41.9333 45.1735C42.0792 44.9741 42.2911 44.8246 42.5691 44.7194C42.8471 44.6141 43.1499 44.5615 43.4775 44.5615C43.805 44.5615 44.1051 44.6141 44.3831 44.7194C44.6583 44.8246 44.8675 44.9741 45.0134 45.1735C45.1015 45.2898 45.3189 45.8381 45.6657 46.8212C45.8804 47.4248 46.1997 48.3719 46.6236 49.6651C46.8824 50.4515 47.1026 51.1245 47.2897 51.6838H47.2925Z" fill="white"/>
<path d="M55.1152 50.2633C55.1152 50.7119 54.9225 51.0858 54.5344 51.3793C54.1711 51.6535 53.7362 51.7919 53.2325 51.7919C52.7976 51.7919 52.4067 51.6811 52.0571 51.4596C51.669 51.2132 51.3938 50.8559 51.2314 50.3935C51.1983 50.2993 51.0525 49.7953 50.7882 48.8787C50.5487 48.048 50.3423 47.3972 50.1634 46.9237C49.9184 46.284 49.7175 45.9711 49.5633 45.9905C49.4642 46.0154 49.3927 46.0542 49.3514 46.1096C49.3129 46.1677 49.2908 46.2453 49.2908 46.345V51.6784H47.6531V45.9877C47.6531 45.4699 47.8595 45.0739 48.2669 44.8025C48.6192 44.5699 49.0706 44.4536 49.6211 44.4536C50.3588 44.4536 50.9424 44.8081 51.3745 45.5197C51.6663 45.9933 51.9415 46.7603 52.2058 47.8237C52.4975 48.9895 52.7095 49.7123 52.8444 49.992C52.9159 50.1443 53.0288 50.219 53.1774 50.219C53.26 50.219 53.3288 50.1886 53.3866 50.1276C53.4444 50.064 53.4747 49.9781 53.4747 49.8701V44.5339H55.1124V50.2633H55.1152Z" fill="white"/>
<path d="M59.4036 51.6841H55.7896V44.584H59.4036C60.2597 44.584 60.9395 44.9606 61.4488 45.711C61.9084 46.3895 62.1396 47.2175 62.1396 48.1922C62.1396 49.167 61.9139 49.9479 61.4625 50.5986C60.9588 51.3241 60.2734 51.6841 59.4064 51.6841H59.4036ZM59.1284 50.1472C59.5137 50.1472 59.822 49.9285 60.056 49.4965C60.2679 49.1005 60.3753 48.6242 60.3753 48.0676C60.3753 47.511 60.2734 47.0707 60.0697 46.6996C59.8385 46.2898 59.5275 46.0849 59.1284 46.0849H57.4273V50.1472H59.1284Z" fill="white"/>
</g>
<defs>
<filter id="filter0_d_1900_24739" x="0" y="0" width="110" height="122" filterUnits="userSpaceOnUse" color-interpolation-filters="sRGB">
<feFlood flood-opacity="0" result="BackgroundImageFix"/>
<feColorMatrix in="SourceAlpha" type="matrix" values="0 0 0 0 0 0 0 0 0 0 0 0 0 0 0 0 0 0 127 0" result="hardAlpha"/>
<feOffset/>
<feGaussianBlur stdDeviation="3"/>
<feComposite in2="hardAlpha" operator="out"/>
<feColorMatrix type="matrix" values="0 0 0 0 1 0 0 0 0 0.219608 0 0 0 0 0.219608 0 0 0 0.8 0"/>
<feBlend mode="normal" in2="BackgroundImageFix" result="effect1_dropShadow_1900_24739"/>
<feBlend mode="normal" in="SourceGraphic" in2="effect1_dropShadow_1900_24739" result="shape"/>
</filter>
<clipPath id="clip0_1900_24739">
<rect width="45.2571" height="17.5371" fill="white" transform="translate(32.3713 34.2573)"/>
</clipPath>
</defs>
</svg>
