<svg width="96" height="96" viewBox="0 0 96 96" fill="none" xmlns="http://www.w3.org/2000/svg">
<rect x="0.5" y="0.5" width="95" height="95" rx="9.5" fill="#F4F4F4" stroke="#EBEBEB"/>
<rect opacity="0.9" x="0.5" y="0.5" width="95" height="95" rx="9.5" fill="#F4F4F4" stroke="#EBEBEB"/>
<path d="M47.9998 31.4611C44.438 31.4611 41.5496 34.2599 41.5496 37.7131C41.5496 41.1664 44.4379 43.9655 47.9998 43.9655C51.5624 43.9655 54.4499 41.1664 54.4499 37.7131C54.4499 34.2596 51.5624 31.4611 47.9998 31.4611ZM62.258 23.3599H57.2387C56.6697 20.8663 54.3785 19 51.6359 19H44.3631C41.6204 19 39.3292 20.8663 38.7611 23.3599H33.7417C30.5713 23.3599 28 25.851 28 28.9253V45.4346C28 48.5086 30.571 51 33.7417 51H62.2583C65.4287 51 68 48.5089 68 45.4346L67.9997 28.9245C67.9994 25.8506 65.4285 23.3595 62.2577 23.3595L62.258 23.3599ZM47.9998 46.9649C42.7283 46.9649 38.4548 42.8225 38.4548 37.7124C38.4548 32.6029 42.7285 28.4606 47.9998 28.4606C53.271 28.4606 57.5448 32.6031 57.5448 37.7124C57.5448 42.8225 53.2712 46.9649 47.9998 46.9649ZM62.318 30.1994C61.2275 30.1994 60.3443 29.3427 60.3443 28.2863C60.3443 27.2298 61.2272 26.3732 62.318 26.3732C63.408 26.3732 64.2917 27.2296 64.2917 28.2863C64.2917 29.3428 63.4079 30.1994 62.318 30.1994Z" fill="#E1E1E1"/>
<path d="M43.9637 73.472C44.1984 73.1093 44.3477 72.6933 44.4117 72.224C44.4757 71.744 44.5077 71.072 44.5077 70.208C44.5077 69.3547 44.4757 68.6933 44.4117 68.224C44.3477 67.7547 44.1984 67.3387 43.9637 66.976C43.8037 66.656 43.5584 66.384 43.2277 66.16C42.9077 65.936 42.4757 65.824 41.9317 65.824C41.377 65.824 40.9344 65.936 40.6037 66.16C40.2837 66.3733 40.0437 66.64 39.8837 66.96C39.649 67.3333 39.4997 67.7547 39.4357 68.224C39.3717 68.6933 39.3397 69.3547 39.3397 70.208C39.3397 71.0613 39.3717 71.728 39.4357 72.208C39.4997 72.6773 39.649 73.0933 39.8837 73.456C40.0437 73.776 40.2837 74.048 40.6037 74.272C40.9237 74.496 41.3664 74.608 41.9317 74.608C42.4864 74.608 42.9237 74.5013 43.2437 74.288C43.5637 74.064 43.8037 73.792 43.9637 73.472ZM45.2117 66.256C45.521 66.7787 45.713 67.328 45.7877 67.904C45.8624 68.48 45.8997 69.248 45.8997 70.208C45.8997 71.1893 45.8624 71.968 45.7877 72.544C45.713 73.12 45.521 73.6693 45.2117 74.192C44.9344 74.6827 44.529 75.1093 43.9957 75.472C43.4624 75.824 42.7744 76 41.9317 76C41.089 76 40.401 75.8187 39.8677 75.456C39.3344 75.0933 38.9344 74.672 38.6677 74.192C38.3584 73.6693 38.161 73.1147 38.0757 72.528C37.9904 71.9307 37.9477 71.1573 37.9477 70.208C37.9477 69.2693 37.9904 68.5067 38.0757 67.92C38.161 67.3333 38.3584 66.7787 38.6677 66.256C38.9237 65.7653 39.3184 65.344 39.8517 64.992C40.3957 64.6293 41.089 64.448 41.9317 64.448C42.7744 64.448 43.4624 64.6293 43.9957 64.992C44.529 65.344 44.9344 65.7653 45.2117 66.256ZM48.8237 76.832H47.4157L50.8077 63.712H52.1997L48.8237 76.832ZM57.5298 75.888H56.1698V66.128L54.4898 67.008L53.8978 65.792L56.1698 64.56H57.5298V75.888Z" fill="#A6A6A6"/>
</svg>
