<svg width="50" height="50" viewBox="0 0 50 50" fill="none" xmlns="http://www.w3.org/2000/svg">
<path d="M21.631 36.9172C21.631 38.2332 20.5642 39.3 19.2483 39.3C17.9323 39.3 16.8655 38.2332 16.8655 36.9172C16.8655 35.6013 17.9323 34.5345 19.2483 34.5345C20.5642 34.5345 21.631 35.6013 21.631 36.9172ZM37.0448 36.9172C37.0448 38.2332 35.978 39.3 34.662 39.3C33.3461 39.3 32.2793 38.2332 32.2793 36.9172C32.2793 35.6013 33.3461 34.5345 34.662 34.5345C35.978 34.5345 37.0448 35.6013 37.0448 36.9172Z" stroke="#FF3838" stroke-width="1.4"/>
<path d="M10 11.25H12.6174C13.3749 11.25 14.0674 11.678 14.4062 12.3556L15.3948 14.3328M15.3948 14.3328H37.0898C38.6254 14.3328 39.5882 15.9917 38.8263 17.325L34.9465 24.1147C34.5904 24.7378 33.9277 25.1224 33.21 25.1224H22.0257C21.2682 25.1224 20.5756 24.6944 20.2369 24.0168L20.019 23.581M15.3948 14.3328L20.019 23.581M37.7448 31.2879H26.9551H19.4016C17.9148 31.2879 16.9478 29.7233 17.6127 28.3935L20.019 23.581" stroke="#303030" stroke-width="1.4" stroke-linejoin="round"/>
</svg>
