<svg width="50" height="50" viewBox="0 0 50 50" fill="none" xmlns="http://www.w3.org/2000/svg">
<path d="M17.5 36.25V12.5C17.5 11.8125 18.0625 11.25 18.75 11.25H37.5C38.1875 11.25 38.75 11.8125 38.75 12.5V36.25C38.75 38.325 37.075 40 35 40H17.5" stroke="#303030" stroke-width="1.4" stroke-linecap="round" stroke-linejoin="round"/>
<path d="M14.375 40C12.65 40 11.25 38.6 11.25 36.875V25C11.25 24.3125 11.8125 23.75 12.5 23.75H17.5V36.875C17.5 38.6 16.1 40 14.375 40Z" stroke="#303030" stroke-width="1.4" stroke-linecap="round" stroke-linejoin="round"/>
<path d="M21.25 40H15" stroke="#303030" stroke-width="1.4" stroke-linecap="round" stroke-linejoin="round"/>
<path d="M22.5 16.25H33.75" stroke="#FF3838" stroke-width="1.4" stroke-linecap="round" stroke-linejoin="round"/>
<path d="M22.5 21.25H33.75" stroke="#FF3838" stroke-width="1.4" stroke-linecap="round" stroke-linejoin="round"/>
<path d="M22.5 26.25H33.75" stroke="#FF3838" stroke-width="1.4" stroke-linecap="round" stroke-linejoin="round"/>
</svg>
