<svg width="133" height="137" viewBox="0 0 133 137" fill="none" xmlns="http://www.w3.org/2000/svg">
<path d="M11.1747 4.332V5.508C11.1747 6.33867 11.044 7.10867 10.7827 7.818C10.5213 8.52733 10.1293 9.148 9.60668 9.68C9.09335 10.2027 8.47268 10.5947 7.74468 10.856L6.93268 9.666C7.58601 9.442 8.13668 9.12 8.58468 8.7C9.03268 8.27067 9.36868 7.78533 9.59268 7.244C9.82601 6.70267 9.94268 6.124 9.94268 5.508V4.332H11.1747ZM11.4407 4.332V5.648C11.4407 6.18 11.5527 6.68867 11.7767 7.174C12.0007 7.65933 12.3273 8.08867 12.7567 8.462C13.1953 8.83533 13.7227 9.12467 14.3387 9.33L13.5547 10.492C12.8547 10.2493 12.2527 9.89 11.7487 9.414C11.254 8.938 10.876 8.378 10.6147 7.734C10.3627 7.08067 10.2367 6.38533 10.2367 5.648V4.332H11.4407ZM16.8027 3.674V11.122H15.3047V3.674H16.8027ZM18.5387 6.698V7.944H16.3967V6.698H18.5387ZM12.7847 11.43C14.082 11.43 15.0993 11.6353 15.8367 12.046C16.574 12.4567 16.9427 13.0307 16.9427 13.768C16.9427 14.2627 16.7747 14.6827 16.4387 15.028C16.112 15.3827 15.636 15.6487 15.0107 15.826C14.3853 16.0127 13.6433 16.106 12.7847 16.106C11.9353 16.106 11.198 16.0127 10.5727 15.826C9.94735 15.6487 9.46668 15.3827 9.13068 15.028C8.79468 14.6733 8.62668 14.2533 8.62668 13.768C8.62668 13.2827 8.79468 12.8627 9.13068 12.508C9.46668 12.1533 9.94735 11.8873 10.5727 11.71C11.198 11.5233 11.9353 11.43 12.7847 11.43ZM12.7847 12.592C11.9353 12.592 11.2773 12.6947 10.8107 12.9C10.344 13.096 10.1107 13.3853 10.1107 13.768C10.1107 14.1507 10.344 14.4447 10.8107 14.65C11.2773 14.846 11.9353 14.944 12.7847 14.944C13.6433 14.944 14.3013 14.846 14.7587 14.65C15.2253 14.4447 15.4587 14.1507 15.4587 13.768C15.4587 13.3853 15.2253 13.096 14.7587 12.9C14.3013 12.6947 13.6433 12.592 12.7847 12.592ZM25.679 10.436V12.424H24.181V10.436H25.679ZM30.551 9.582V10.786H19.309V9.582H30.551ZM29.529 4.052V5.256H20.317V4.052H29.529ZM29.445 7.44V8.644H20.387V7.44H29.445ZM23.537 4.5V8.224H22.025V4.5H23.537ZM27.821 4.5V8.224H26.309V4.5H27.821ZM29.193 11.99V15.966H20.653V11.99H29.193ZM22.123 13.18V14.776H27.723V13.18H22.123ZM37.1733 3.87C38.5733 3.87 39.6653 4.05667 40.4493 4.43C41.2333 4.794 41.6253 5.31667 41.6253 5.998C41.6253 6.68867 41.2333 7.22067 40.4493 7.594C39.6653 7.958 38.5733 8.14 37.1733 8.14C35.764 8.14 34.6673 7.958 33.8833 7.594C33.1087 7.22067 32.7213 6.68867 32.7213 5.998C32.7213 5.31667 33.1087 4.794 33.8833 4.43C34.6673 4.05667 35.764 3.87 37.1733 3.87ZM37.1733 4.976C36.2213 4.976 35.498 5.06467 35.0033 5.242C34.518 5.41933 34.2753 5.676 34.2753 6.012C34.2753 6.348 34.518 6.60467 35.0033 6.782C35.4887 6.95 36.212 7.034 37.1733 7.034C38.1347 7.034 38.858 6.95 39.3433 6.782C39.8287 6.60467 40.0713 6.348 40.0713 6.012C40.0713 5.676 39.824 5.41933 39.3293 5.242C38.8347 5.06467 38.116 4.976 37.1733 4.976ZM42.7873 8.84V10.03H31.5453V8.84H42.7873ZM41.3873 10.884V13.908H34.3733V15.182H32.8893V12.858H39.9173V12.018H32.8613V10.884H41.3873ZM41.7513 14.874V16.022H32.8893V14.874H41.7513ZM50.3402 4.57C50.9562 4.57 51.5069 4.752 51.9922 5.116C52.4869 5.47067 52.8696 5.97933 53.1402 6.642C53.4109 7.30467 53.5462 8.07933 53.5462 8.966C53.5462 9.85267 53.4109 10.632 53.1402 11.304C52.8696 11.9667 52.4869 12.48 51.9922 12.844C51.5069 13.208 50.9562 13.39 50.3402 13.39C49.7149 13.39 49.1596 13.208 48.6742 12.844C48.1889 12.48 47.8062 11.9667 47.5262 11.304C47.2556 10.632 47.1202 9.85267 47.1202 8.966C47.1202 8.08867 47.2556 7.31867 47.5262 6.656C47.8062 5.99333 48.1889 5.48 48.6742 5.116C49.1596 4.752 49.7149 4.57 50.3402 4.57ZM50.3402 5.942C49.9856 5.942 49.6729 6.06333 49.4022 6.306C49.1409 6.53933 48.9356 6.88467 48.7862 7.342C48.6462 7.79933 48.5762 8.34067 48.5762 8.966C48.5762 9.60067 48.6462 10.1467 48.7862 10.604C48.9356 11.0613 49.1456 11.4113 49.4162 11.654C49.6869 11.8967 49.9949 12.018 50.3402 12.018C50.6856 12.018 50.9936 11.8967 51.2642 11.654C51.5349 11.4113 51.7402 11.0613 51.8802 10.604C52.0296 10.1467 52.1042 9.60067 52.1042 8.966C52.1042 8.34067 52.0296 7.79933 51.8802 7.342C51.7402 6.88467 51.5349 6.53933 51.2642 6.306C50.9936 6.06333 50.6856 5.942 50.3402 5.942ZM56.6962 3.674V16.12H55.1842V3.674H56.6962ZM58.5862 8.49V9.736H56.3462V8.49H58.5862ZM63.6126 4.948V5.83C63.6126 6.60467 63.4772 7.33267 63.2066 8.014C62.9359 8.69533 62.5346 9.29267 62.0026 9.806C61.4799 10.31 60.8452 10.6833 60.0986 10.926L59.3286 9.764C59.9819 9.54933 60.5372 9.24133 60.9946 8.84C61.4519 8.42933 61.7972 7.96733 62.0306 7.454C62.2639 6.93133 62.3806 6.39 62.3806 5.83V4.948H63.6126ZM63.9066 4.948V5.83C63.9066 6.362 64.0232 6.87067 64.2566 7.356C64.4992 7.84133 64.8446 8.27533 65.2926 8.658C65.7499 9.04067 66.2959 9.33467 66.9306 9.54L66.1606 10.716C65.4326 10.4827 64.8072 10.1233 64.2846 9.638C63.7619 9.15267 63.3652 8.58333 63.0946 7.93C62.8239 7.27667 62.6886 6.57667 62.6886 5.83V4.948H63.9066ZM69.5066 3.674V11.178H68.0086V3.674H69.5066ZM69.5066 11.794V16.12H68.0086V12.998H61.1066V11.794H69.5066ZM66.5246 4.472V5.676H59.7346V4.472H66.5246ZM78.8374 4.682V6.67C78.8374 7.66867 78.7021 8.62067 78.4314 9.526C78.1608 10.422 77.7641 11.22 77.2414 11.92C76.7281 12.62 76.1121 13.1567 75.3934 13.53L74.4974 12.298C75.1321 11.9993 75.6874 11.556 76.1634 10.968C76.6394 10.3707 76.9988 9.69867 77.2414 8.952C77.4934 8.20533 77.6194 7.44467 77.6194 6.67V4.682H78.8374ZM79.1174 4.682V6.67C79.1174 7.426 79.2341 8.15867 79.4674 8.868C79.7101 9.57733 80.0554 10.2167 80.5034 10.786C80.9608 11.3553 81.4974 11.7893 82.1134 12.088L81.2034 13.292C80.5128 12.9373 79.9201 12.424 79.4254 11.752C78.9308 11.0707 78.5528 10.296 78.2914 9.428C78.0394 8.56 77.9134 7.64067 77.9134 6.67V4.682H79.1174ZM84.3814 3.674V16.12H82.8694V3.674H84.3814ZM86.2854 8.574V9.834H84.0454V8.574H86.2854ZM91.0738 7.86V10.17H89.5758V7.86H91.0738ZM95.5398 7.86V10.17H94.0418V7.86H95.5398ZM98.1858 9.694V10.87H86.9438V9.694H98.1858ZM92.5578 11.64C93.9018 11.64 94.9518 11.836 95.7078 12.228C96.4638 12.62 96.8418 13.1707 96.8418 13.88C96.8418 14.5987 96.4638 15.1493 95.7078 15.532C94.9518 15.924 93.9018 16.12 92.5578 16.12C91.2044 16.12 90.1498 15.924 89.3938 15.532C88.6378 15.1493 88.2598 14.5987 88.2598 13.88C88.2598 13.1707 88.6378 12.62 89.3938 12.228C90.1498 11.836 91.2044 11.64 92.5578 11.64ZM92.5438 12.788C91.9464 12.788 91.4424 12.83 91.0318 12.914C90.6211 12.998 90.3084 13.1193 90.0938 13.278C89.8791 13.4367 89.7718 13.6373 89.7718 13.88C89.7718 14.2347 90.0051 14.5053 90.4718 14.692C90.9478 14.8787 91.6384 14.972 92.5438 14.972C93.4491 14.972 94.1351 14.8787 94.6018 14.692C95.0778 14.5053 95.3158 14.2347 95.3158 13.88C95.3158 13.6373 95.2084 13.4367 94.9938 13.278C94.7884 13.1193 94.4804 12.998 94.0698 12.914C93.6591 12.83 93.1504 12.788 92.5438 12.788ZM92.5718 3.884C93.4771 3.884 94.2611 3.97733 94.9238 4.164C95.5958 4.35067 96.1138 4.62133 96.4778 4.976C96.8418 5.33067 97.0238 5.75067 97.0238 6.236C97.0238 6.72133 96.8418 7.14133 96.4778 7.496C96.1138 7.84133 95.5958 8.112 94.9238 8.308C94.2611 8.49467 93.4771 8.588 92.5718 8.588C91.6664 8.588 90.8778 8.49467 90.2058 8.308C89.5338 8.112 89.0158 7.84133 88.6518 7.496C88.2971 7.14133 88.1198 6.72133 88.1198 6.236C88.1198 5.75067 88.2971 5.33067 88.6518 4.976C89.0158 4.62133 89.5338 4.35067 90.2058 4.164C90.8778 3.97733 91.6664 3.884 92.5718 3.884ZM92.5718 5.032C91.9651 5.032 91.4424 5.07867 91.0038 5.172C90.5744 5.26533 90.2431 5.40533 90.0098 5.592C89.7858 5.76933 89.6738 5.984 89.6738 6.236C89.6738 6.61867 89.9258 6.91733 90.4298 7.132C90.9338 7.33733 91.6478 7.44 92.5718 7.44C93.4864 7.44 94.1958 7.33733 94.6998 7.132C95.2131 6.91733 95.4698 6.61867 95.4698 6.236C95.4698 5.984 95.3531 5.76933 95.1198 5.592C94.8958 5.40533 94.5644 5.26533 94.1258 5.172C93.6964 5.07867 93.1784 5.032 92.5718 5.032ZM108.868 3.674V16.12H107.356V3.674H108.868ZM110.758 8.644V9.89H108.518V8.644H110.758ZM106.418 5.578V6.782H99.1101V5.578H106.418ZM102.806 7.636C103.394 7.636 103.921 7.762 104.388 8.014C104.864 8.25667 105.233 8.602 105.494 9.05C105.765 9.48867 105.9 9.988 105.9 10.548C105.9 11.108 105.765 11.612 105.494 12.06C105.233 12.4987 104.864 12.844 104.388 13.096C103.921 13.348 103.394 13.474 102.806 13.474C102.218 13.474 101.686 13.348 101.21 13.096C100.743 12.844 100.375 12.4987 100.104 12.06C99.8334 11.612 99.6981 11.108 99.6981 10.548C99.6981 9.988 99.8288 9.48867 100.09 9.05C100.361 8.602 100.734 8.25667 101.21 8.014C101.686 7.762 102.218 7.636 102.806 7.636ZM102.806 8.868C102.479 8.868 102.19 8.938 101.938 9.078C101.695 9.218 101.499 9.414 101.35 9.666C101.21 9.918 101.14 10.212 101.14 10.548C101.14 10.8933 101.21 11.192 101.35 11.444C101.49 11.696 101.686 11.892 101.938 12.032C102.19 12.172 102.479 12.242 102.806 12.242C103.123 12.242 103.408 12.172 103.66 12.032C103.912 11.892 104.108 11.696 104.248 11.444C104.388 11.1827 104.458 10.884 104.458 10.548C104.458 10.2213 104.388 9.932 104.248 9.68C104.108 9.41867 103.912 9.218 103.66 9.078C103.408 8.938 103.123 8.868 102.806 8.868ZM103.562 3.856V6.068H102.036V3.856H103.562ZM115.728 5.564V7.23C115.728 8.154 115.584 9.05467 115.294 9.932C115.014 10.8 114.608 11.57 114.076 12.242C113.544 12.914 112.919 13.418 112.2 13.754L111.346 12.578C111.981 12.2793 112.541 11.8453 113.026 11.276C113.512 10.7067 113.88 10.072 114.132 9.372C114.394 8.66267 114.524 7.94867 114.524 7.23V5.564H115.728ZM116.05 5.564V7.23C116.05 7.92067 116.181 8.602 116.442 9.274C116.704 9.93667 117.072 10.534 117.548 11.066C118.034 11.5887 118.598 11.9853 119.242 12.256L118.402 13.446C117.684 13.1287 117.054 12.6527 116.512 12.018C115.971 11.3833 115.556 10.6553 115.266 9.834C114.986 9.00333 114.846 8.13533 114.846 7.23V5.564H116.05ZM118.78 4.892V6.152H111.794V4.892H118.78ZM121.664 3.674V16.12H120.152V3.674H121.664ZM3.93302 24.318C4.55835 24.318 5.11835 24.444 5.61302 24.696C6.11702 24.9387 6.50902 25.2793 6.78902 25.718C7.07835 26.1567 7.22302 26.656 7.22302 27.216C7.22302 27.7667 7.07835 28.266 6.78902 28.714C6.50902 29.1527 6.11702 29.4933 5.61302 29.736C5.11835 29.9787 4.55835 30.1 3.93302 30.1C3.32635 30.1 2.77102 29.9787 2.26702 29.736C1.77235 29.4933 1.38035 29.148 1.09102 28.7C0.811016 28.252 0.671016 27.7527 0.671016 27.202C0.671016 26.6513 0.811016 26.1567 1.09102 25.718C1.38035 25.2793 1.77235 24.9387 2.26702 24.696C2.77102 24.444 3.32635 24.318 3.93302 24.318ZM3.93302 25.55C3.58768 25.55 3.27502 25.62 2.99502 25.76C2.72435 25.9 2.50968 26.096 2.35102 26.348C2.20168 26.5907 2.12702 26.8753 2.12702 27.202C2.12702 27.5287 2.20168 27.8227 2.35102 28.084C2.50968 28.336 2.72435 28.532 2.99502 28.672C3.27502 28.8027 3.58768 28.868 3.93302 28.868C4.28768 28.868 4.60035 28.8027 4.87102 28.672C5.15102 28.532 5.36568 28.336 5.51502 28.084C5.67368 27.8227 5.75302 27.5287 5.75302 27.202C5.75302 26.8753 5.67368 26.5907 5.51502 26.348C5.36568 26.096 5.15102 25.9 4.87102 25.76C4.60035 25.62 4.28768 25.55 3.93302 25.55ZM10.261 23.674V29.82H8.74902V23.674H10.261ZM11.983 26.348V27.594H9.63102V26.348H11.983ZM2.36502 34.58C2.90635 34.58 3.42435 34.552 3.91902 34.496C4.41368 34.4307 4.88502 34.3233 5.33302 34.174L5.57102 35.364C5.06702 35.5413 4.55835 35.658 4.04502 35.714C3.53168 35.77 2.97168 35.798 2.36502 35.798H1.70702V34.58H2.36502ZM3.16302 31.094V34.972H1.70702V31.094H3.16302ZM11.353 31.15V32.228H5.12302V31.15H11.353ZM8.23102 32.62C8.93102 32.62 9.50035 32.7787 9.93902 33.096C10.3777 33.4133 10.597 33.838 10.597 34.37C10.597 34.902 10.3777 35.3267 9.93902 35.644C9.50035 35.9613 8.93102 36.12 8.23102 36.12C7.54035 36.12 6.97568 35.9613 6.53702 35.644C6.09835 35.3267 5.87902 34.902 5.87902 34.37C5.87902 33.838 6.09835 33.4133 6.53702 33.096C6.97568 32.7787 7.54035 32.62 8.23102 32.62ZM8.24502 33.656C7.93702 33.656 7.68968 33.7213 7.50302 33.852C7.31635 33.9733 7.22302 34.146 7.22302 34.37C7.22302 34.5847 7.31635 34.7573 7.50302 34.888C7.68968 35.0187 7.93702 35.084 8.24502 35.084C8.55302 35.084 8.79568 35.0187 8.97302 34.888C9.15968 34.7573 9.25302 34.5847 9.25302 34.37C9.25302 34.146 9.15968 33.9733 8.97302 33.852C8.78635 33.7213 8.54368 33.656 8.24502 33.656ZM8.97302 30.17V31.99H7.51702V30.17H8.97302ZM18.3813 24.36C19.24 24.36 20.0193 24.5093 20.7193 24.808C21.4193 25.0973 21.97 25.5127 22.3713 26.054C22.7727 26.586 22.9733 27.1973 22.9733 27.888C22.9733 28.5787 22.7727 29.19 22.3713 29.722C21.97 30.254 21.4193 30.6693 20.7193 30.968C20.0287 31.2573 19.2493 31.402 18.3813 31.402C17.5133 31.402 16.7293 31.2573 16.0293 30.968C15.3293 30.6693 14.7787 30.254 14.3773 29.722C13.9853 29.19 13.7893 28.574 13.7893 27.874C13.7893 27.1833 13.9853 26.572 14.3773 26.04C14.7787 25.508 15.3293 25.0973 16.0293 24.808C16.7293 24.5093 17.5133 24.36 18.3813 24.36ZM18.3813 25.578C17.784 25.578 17.2473 25.6713 16.7713 25.858C16.2953 26.0447 15.922 26.3153 15.6513 26.67C15.3807 27.0153 15.2453 27.4213 15.2453 27.888C15.2453 28.3453 15.3807 28.7467 15.6513 29.092C15.922 29.4373 16.2907 29.7033 16.7573 29.89C17.2333 30.0767 17.7747 30.17 18.3813 30.17C18.988 30.17 19.5247 30.0767 19.9913 29.89C20.4673 29.7033 20.836 29.4373 21.0973 29.092C21.368 28.7467 21.5033 28.3453 21.5033 27.888C21.5033 27.4213 21.3727 27.0153 21.1113 26.67C20.85 26.3153 20.4813 26.0447 20.0053 25.858C19.5293 25.6713 18.988 25.578 18.3813 25.578ZM24.0233 33.306V34.538H12.7533V33.306H24.0233ZM35.2517 23.688V32.76H33.7537V23.688H35.2517ZM35.6157 34.664V35.882H27.1037V34.664H35.6157ZM28.6157 31.906V35.28H27.1037V31.906H28.6157ZM29.2877 24.36V25.592C29.2877 26.4133 29.1523 27.188 28.8817 27.916C28.611 28.644 28.2143 29.2833 27.6917 29.834C27.169 30.3753 26.5343 30.7813 25.7877 31.052L25.0177 29.848C25.6523 29.6147 26.1983 29.2787 26.6557 28.84C27.113 28.4013 27.4583 27.902 27.6917 27.342C27.925 26.782 28.0417 26.1987 28.0417 25.592V24.36H29.2877ZM29.5677 24.36V25.592C29.5677 26.18 29.6797 26.74 29.9037 27.272C30.137 27.804 30.4777 28.2753 30.9257 28.686C31.3737 29.0967 31.915 29.414 32.5497 29.638L31.7797 30.828C31.0423 30.5667 30.417 30.1793 29.9037 29.666C29.3997 29.1527 29.0123 28.546 28.7417 27.846C28.4803 27.146 28.3497 26.3947 28.3497 25.592V24.36H29.5677ZM49.5106 25.788V26.978H46.4166V25.788H49.5106ZM49.4406 28.364V29.568H46.3186V28.364H49.4406ZM50.7846 23.674V30.968H49.2726V23.674H50.7846ZM46.8926 24.556C46.8926 25.648 46.6686 26.6233 46.2206 27.482C45.7819 28.3407 45.1379 29.0733 44.2886 29.68C43.4392 30.2867 42.3939 30.7673 41.1526 31.122L40.5646 29.932C41.6099 29.6427 42.4826 29.274 43.1826 28.826C43.8826 28.3687 44.4052 27.8413 44.7506 27.244C45.1052 26.6373 45.2826 25.9793 45.2826 25.27V24.556H46.8926ZM46.3326 24.556V25.76H41.2366V24.556H46.3326ZM46.6966 31.108C47.5366 31.108 48.2692 31.2107 48.8946 31.416C49.5199 31.612 50.0006 31.8967 50.3366 32.27C50.6819 32.6433 50.8546 33.082 50.8546 33.586C50.8546 34.09 50.6819 34.5287 50.3366 34.902C50.0006 35.2753 49.5199 35.56 48.8946 35.756C48.2692 35.9613 47.5366 36.064 46.6966 36.064C45.8566 36.064 45.1192 35.9613 44.4846 35.756C43.8592 35.56 43.3739 35.2753 43.0286 34.902C42.6926 34.5287 42.5246 34.09 42.5246 33.586C42.5246 33.082 42.6926 32.6433 43.0286 32.27C43.3739 31.8967 43.8592 31.612 44.4846 31.416C45.1099 31.2107 45.8472 31.108 46.6966 31.108ZM46.6966 32.284C46.1459 32.284 45.6699 32.3353 45.2686 32.438C44.8672 32.5407 44.5592 32.69 44.3446 32.886C44.1299 33.0727 44.0226 33.306 44.0226 33.586C44.0226 33.866 44.1299 34.104 44.3446 34.3C44.5592 34.4867 44.8672 34.6313 45.2686 34.734C45.6699 34.8367 46.1459 34.888 46.6966 34.888C47.2472 34.888 47.7232 34.8367 48.1246 34.734C48.5259 34.6313 48.8339 34.4867 49.0486 34.3C49.2632 34.104 49.3706 33.866 49.3706 33.586C49.3706 33.166 49.1326 32.844 48.6566 32.62C48.1899 32.396 47.5366 32.284 46.6966 32.284ZM63.9589 30.716V31.934H52.6889V30.716H63.9589ZM59.0309 31.486V36.134H57.5469V31.486H59.0309ZM58.2889 24.15C59.1662 24.15 59.9409 24.262 60.6129 24.486C61.2849 24.71 61.8029 25.032 62.1669 25.452C62.5402 25.8627 62.7269 26.348 62.7269 26.908C62.7269 27.4587 62.5402 27.944 62.1669 28.364C61.8029 28.7747 61.2849 29.0967 60.6129 29.33C59.9409 29.554 59.1662 29.666 58.2889 29.666C57.4209 29.666 56.6509 29.554 55.9789 29.33C55.3069 29.0967 54.7842 28.7747 54.4109 28.364C54.0376 27.944 53.8509 27.4587 53.8509 26.908C53.8509 26.348 54.0376 25.8627 54.4109 25.452C54.7842 25.032 55.3069 24.71 55.9789 24.486C56.6509 24.262 57.4209 24.15 58.2889 24.15ZM58.2889 25.34C57.7102 25.34 57.2016 25.4007 56.7629 25.522C56.3336 25.6433 55.9976 25.8253 55.7549 26.068C55.5216 26.3013 55.4049 26.5767 55.4049 26.894C55.4049 27.2207 55.5216 27.5053 55.7549 27.748C55.9976 27.9813 56.3336 28.1633 56.7629 28.294C57.2016 28.4153 57.7102 28.476 58.2889 28.476C58.8769 28.476 59.3856 28.4153 59.8149 28.294C60.2536 28.1633 60.5896 27.9813 60.8229 27.748C61.0656 27.5053 61.1869 27.2207 61.1869 26.894C61.1869 26.5767 61.0656 26.3013 60.8229 26.068C60.5896 25.8253 60.2536 25.6433 59.8149 25.522C59.3856 25.4007 58.8769 25.34 58.2889 25.34ZM77.4898 24.178V25.354H69.5658V24.178H77.4898ZM78.0498 24.178V25.214C78.0498 25.942 78.0311 26.5907 77.9938 27.16C77.9564 27.72 77.8631 28.3407 77.7138 29.022L76.2298 28.868C76.3791 28.196 76.4724 27.5987 76.5098 27.076C76.5471 26.544 76.5658 25.9233 76.5658 25.214V24.178H78.0498ZM77.0138 27.314L69.4118 27.636L69.2298 26.474L77.0138 26.264V27.314ZM79.3798 28.602V29.792H68.1798V28.602H79.3798ZM78.1338 30.702V33.838H70.9378V35.322H69.4538V32.746H76.6358V31.864H69.4258V30.702H78.1338ZM78.5538 34.818V35.98H69.4538V34.818H78.5538ZM90.6641 23.674V31.318H89.1521V23.674H90.6641ZM90.6641 31.906V36.12H89.1521V33.124H82.2501V31.906H90.6641ZM82.0821 29.498C83.3608 29.498 84.4294 29.4747 85.2881 29.428C86.1561 29.372 87.0334 29.2693 87.9201 29.12L88.0881 30.338C87.1921 30.4873 86.3054 30.59 85.4281 30.646C84.5508 30.6927 83.4354 30.716 82.0821 30.716H81.0321V29.498H82.0821ZM86.7021 24.388V28.042H82.5021V30.072H81.0321V26.908H85.2181V25.592H81.0041V24.388H86.7021ZM102.312 23.674V36.12H100.8V23.674H102.312ZM104.202 28.644V29.89H101.962V28.644H104.202ZM99.8624 25.578V26.782H92.5544V25.578H99.8624ZM96.2504 27.636C96.8384 27.636 97.3658 27.762 97.8324 28.014C98.3084 28.2567 98.6771 28.602 98.9384 29.05C99.2091 29.4887 99.3444 29.988 99.3444 30.548C99.3444 31.108 99.2091 31.612 98.9384 32.06C98.6771 32.4987 98.3084 32.844 97.8324 33.096C97.3658 33.348 96.8384 33.474 96.2504 33.474C95.6624 33.474 95.1304 33.348 94.6544 33.096C94.1878 32.844 93.8191 32.4987 93.5484 32.06C93.2778 31.612 93.1424 31.108 93.1424 30.548C93.1424 29.988 93.2731 29.4887 93.5344 29.05C93.8051 28.602 94.1784 28.2567 94.6544 28.014C95.1304 27.762 95.6624 27.636 96.2504 27.636ZM96.2504 28.868C95.9238 28.868 95.6344 28.938 95.3824 29.078C95.1398 29.218 94.9438 29.414 94.7944 29.666C94.6544 29.918 94.5844 30.212 94.5844 30.548C94.5844 30.8933 94.6544 31.192 94.7944 31.444C94.9344 31.696 95.1304 31.892 95.3824 32.032C95.6344 32.172 95.9238 32.242 96.2504 32.242C96.5678 32.242 96.8524 32.172 97.1044 32.032C97.3564 31.892 97.5524 31.696 97.6924 31.444C97.8324 31.1827 97.9024 30.884 97.9024 30.548C97.9024 30.2213 97.8324 29.932 97.6924 29.68C97.5524 29.4187 97.3564 29.218 97.1044 29.078C96.8524 28.938 96.5678 28.868 96.2504 28.868ZM97.0064 23.856V26.068H95.4804V23.856H97.0064ZM109.229 24.682V26.67C109.229 27.706 109.084 28.6813 108.795 29.596C108.515 30.5107 108.104 31.3227 107.563 32.032C107.021 32.732 106.377 33.2593 105.631 33.614L104.735 32.368C105.388 32.0693 105.962 31.626 106.457 31.038C106.951 30.45 107.329 29.778 107.591 29.022C107.852 28.266 107.983 27.482 107.983 26.67V24.682H109.229ZM109.495 24.682V26.67C109.495 27.4447 109.621 28.196 109.873 28.924C110.134 29.6427 110.507 30.2867 110.993 30.856C111.478 31.4253 112.043 31.85 112.687 32.13L111.805 33.348C111.077 33.0027 110.442 32.494 109.901 31.822C109.369 31.15 108.963 30.3753 108.683 29.498C108.412 28.6113 108.277 27.6687 108.277 26.67V24.682H109.495ZM115.109 23.66V36.148H113.597V23.66H115.109ZM126.379 25.732V26.936H123.089V25.732H126.379ZM126.407 28.406V29.61H123.089V28.406H126.407ZM123.425 24.696V30.688H117.643V24.696H123.425ZM119.113 25.9V29.484H121.955V25.9H119.113ZM127.429 23.688V32.746H125.931V23.688H127.429ZM127.709 34.664V35.882H119.309V34.664H127.709ZM120.807 31.906V35.266H119.309V31.906H120.807ZM130.439 36.904H129.361L129.879 33.726H131.377L130.439 36.904ZM25.0243 44.332V45.508C25.0243 46.3387 24.8936 47.1087 24.6323 47.818C24.371 48.5273 23.979 49.148 23.4563 49.68C22.943 50.2027 22.3223 50.5947 21.5943 50.856L20.7823 49.666C21.4356 49.442 21.9863 49.12 22.4343 48.7C22.8823 48.2707 23.2183 47.7853 23.4423 47.244C23.6756 46.7027 23.7923 46.124 23.7923 45.508V44.332H25.0243ZM25.2903 44.332V45.648C25.2903 46.18 25.4023 46.6887 25.6263 47.174C25.8503 47.6593 26.177 48.0887 26.6063 48.462C27.045 48.8353 27.5723 49.1247 28.1883 49.33L27.4043 50.492C26.7043 50.2493 26.1023 49.89 25.5983 49.414C25.1036 48.938 24.7256 48.378 24.4643 47.734C24.2123 47.0807 24.0863 46.3853 24.0863 45.648V44.332H25.2903ZM30.6523 43.674V51.122H29.1543V43.674H30.6523ZM32.3883 46.698V47.944H30.2463V46.698H32.3883ZM26.6343 51.43C27.9316 51.43 28.949 51.6353 29.6863 52.046C30.4236 52.4567 30.7923 53.0307 30.7923 53.768C30.7923 54.2627 30.6243 54.6827 30.2883 55.028C29.9616 55.3827 29.4856 55.6487 28.8603 55.826C28.235 56.0127 27.493 56.106 26.6343 56.106C25.785 56.106 25.0476 56.0127 24.4223 55.826C23.797 55.6487 23.3163 55.3827 22.9803 55.028C22.6443 54.6733 22.4763 54.2533 22.4763 53.768C22.4763 53.2827 22.6443 52.8627 22.9803 52.508C23.3163 52.1533 23.797 51.8873 24.4223 51.71C25.0476 51.5233 25.785 51.43 26.6343 51.43ZM26.6343 52.592C25.785 52.592 25.127 52.6947 24.6603 52.9C24.1936 53.096 23.9603 53.3853 23.9603 53.768C23.9603 54.1507 24.1936 54.4447 24.6603 54.65C25.127 54.846 25.785 54.944 26.6343 54.944C27.493 54.944 28.151 54.846 28.6083 54.65C29.075 54.4447 29.3083 54.1507 29.3083 53.768C29.3083 53.3853 29.075 53.096 28.6083 52.9C28.151 52.6947 27.493 52.592 26.6343 52.592ZM39.5286 50.436V52.424H38.0306V50.436H39.5286ZM44.4006 49.582V50.786H33.1586V49.582H44.4006ZM43.3786 44.052V45.256H34.1666V44.052H43.3786ZM43.2946 47.44V48.644H34.2366V47.44H43.2946ZM37.3866 44.5V48.224H35.8746V44.5H37.3866ZM41.6706 44.5V48.224H40.1586V44.5H41.6706ZM43.0426 51.99V55.966H34.5026V51.99H43.0426ZM35.9726 53.18V54.776H41.5726V53.18H35.9726ZM52.8635 51.486V56.12H51.3095V51.486H52.8635ZM57.1475 51.486V56.12H55.6075V51.486H57.1475ZM59.8915 50.674V51.892H48.6215V50.674H59.8915ZM54.2215 44.15C55.0988 44.15 55.8735 44.262 56.5455 44.486C57.2175 44.71 57.7355 45.0273 58.0995 45.438C58.4728 45.8487 58.6595 46.3293 58.6595 46.88C58.6595 47.44 58.4728 47.93 58.0995 48.35C57.7355 48.7607 57.2175 49.078 56.5455 49.302C55.8735 49.526 55.0988 49.638 54.2215 49.638C53.3535 49.638 52.5835 49.526 51.9115 49.302C51.2395 49.078 50.7168 48.7607 50.3435 48.35C49.9702 47.93 49.7835 47.44 49.7835 46.88C49.7835 46.3293 49.9702 45.8487 50.3435 45.438C50.7168 45.018 51.2395 44.7007 51.9115 44.486C52.5835 44.262 53.3535 44.15 54.2215 44.15ZM54.2215 45.34C53.6428 45.34 53.1342 45.4007 52.6955 45.522C52.2662 45.6433 51.9302 45.8207 51.6875 46.054C51.4542 46.2873 51.3375 46.5627 51.3375 46.88C51.3375 47.2067 51.4542 47.4867 51.6875 47.72C51.9302 47.9533 52.2662 48.1307 52.6955 48.252C53.1342 48.3733 53.6428 48.434 54.2215 48.434C54.8095 48.434 55.3182 48.3733 55.7475 48.252C56.1862 48.1213 56.5222 47.944 56.7555 47.72C56.9982 47.4867 57.1195 47.2067 57.1195 46.88C57.1195 46.5627 56.9982 46.2873 56.7555 46.054C56.5222 45.8207 56.1862 45.6433 55.7475 45.522C55.3182 45.4007 54.8095 45.34 54.2215 45.34ZM65.1558 51.318V54.37H63.6718V51.318H65.1558ZM69.2718 51.318V54.37H67.7878V51.318H69.2718ZM71.5678 45.34V46.544H61.3758V45.34H71.5678ZM72.1278 53.572V54.79H60.8578V53.572H72.1278ZM66.4718 47.188C67.7598 47.188 68.7725 47.398 69.5098 47.818C70.2472 48.238 70.6158 48.8213 70.6158 49.568C70.6158 50.3053 70.2472 50.8793 69.5098 51.29C68.7725 51.7007 67.7598 51.906 66.4718 51.906C65.1745 51.906 64.1572 51.7007 63.4198 51.29C62.6825 50.8793 62.3138 50.3053 62.3138 49.568C62.3138 48.812 62.6825 48.2287 63.4198 47.818C64.1572 47.398 65.1745 47.188 66.4718 47.188ZM66.4718 48.336C65.9025 48.336 65.4218 48.3827 65.0298 48.476C64.6472 48.5693 64.3532 48.7093 64.1478 48.896C63.9425 49.0827 63.8398 49.302 63.8398 49.554C63.8398 49.8153 63.9425 50.0347 64.1478 50.212C64.3532 50.3893 64.6472 50.5247 65.0298 50.618C65.4218 50.702 65.9025 50.744 66.4718 50.744C67.0318 50.744 67.5032 50.702 67.8858 50.618C68.2778 50.5247 68.5765 50.3893 68.7818 50.212C68.9872 50.0347 69.0898 49.8153 69.0898 49.554C69.0898 49.302 68.9872 49.0827 68.7818 48.896C68.5765 48.7093 68.2778 48.5693 67.8858 48.476C67.5032 48.3827 67.0318 48.336 66.4718 48.336ZM67.2278 43.814V46.082H65.7298V43.814H67.2278ZM83.3842 43.674V56.12H81.8722V43.674H83.3842ZM79.7022 44.976C79.7022 46.2827 79.5155 47.4773 79.1422 48.56C78.7782 49.6427 78.1715 50.6413 77.3222 51.556C76.4728 52.4613 75.3528 53.25 73.9622 53.922L73.1642 52.732C74.3588 52.1627 75.3248 51.5093 76.0622 50.772C76.8088 50.0347 77.3502 49.2133 77.6862 48.308C78.0315 47.3933 78.2042 46.3713 78.2042 45.242V44.976H79.7022ZM78.9042 44.976V46.18H73.7942V44.976H78.9042ZM95.0605 43.674V52.648H93.5485V43.674H95.0605ZM96.7965 47.272V48.504H94.6405V47.272H96.7965ZM91.7145 44.612C91.7145 45.7133 91.4858 46.7073 91.0285 47.594C90.5712 48.4713 89.9085 49.2273 89.0405 49.862C88.1818 50.4967 87.1412 50.996 85.9185 51.36L85.2885 50.156C86.8192 49.7173 88.0045 49.0733 88.8445 48.224C89.6938 47.3747 90.1185 46.4087 90.1185 45.326V44.612H91.7145ZM90.9165 44.612V45.83H85.8205V44.612H90.9165ZM95.5505 54.664V55.882H87.1505V54.664H95.5505ZM88.6625 51.738V55.182H87.1505V51.738H88.6625ZM107.829 43.66V56.148H106.317V43.66H107.829ZM101.179 44.57C101.804 44.57 102.359 44.752 102.845 45.116C103.33 45.48 103.708 45.9933 103.979 46.656C104.259 47.3187 104.399 48.0887 104.399 48.966C104.399 49.8527 104.259 50.632 103.979 51.304C103.708 51.9667 103.33 52.48 102.845 52.844C102.359 53.208 101.804 53.39 101.179 53.39C100.553 53.39 99.9982 53.208 99.5128 52.844C99.0275 52.48 98.6448 51.9667 98.3648 51.304C98.0942 50.632 97.9588 49.8527 97.9588 48.966C97.9588 48.0887 98.0942 47.3187 98.3648 46.656C98.6448 45.9933 99.0275 45.48 99.5128 45.116C99.9982 44.752 100.553 44.57 101.179 44.57ZM101.179 45.942C100.824 45.942 100.516 46.0633 100.255 46.306C99.9935 46.5393 99.7882 46.8847 99.6388 47.342C99.4895 47.7993 99.4148 48.3407 99.4148 48.966C99.4148 49.6007 99.4895 50.1467 99.6388 50.604C99.7882 51.0613 99.9935 51.4113 100.255 51.654C100.516 51.8967 100.824 52.018 101.179 52.018C101.533 52.018 101.841 51.8967 102.103 51.654C102.373 51.4113 102.583 51.0613 102.733 50.604C102.882 50.1373 102.957 49.5913 102.957 48.966C102.957 48.3407 102.882 47.7993 102.733 47.342C102.583 46.8847 102.373 46.5393 102.103 46.306C101.841 46.0633 101.533 45.942 101.179 45.942ZM13.694 70.366V72.998H12.182V70.366H13.694ZM13.386 65.956V66.222C13.386 67.3047 13.078 68.252 12.462 69.064C11.8554 69.8667 10.9967 70.4313 9.88602 70.758L9.20002 69.582C9.83469 69.4047 10.3714 69.148 10.81 68.812C11.258 68.476 11.5987 68.084 11.832 67.636C12.0654 67.188 12.182 66.7167 12.182 66.222V65.956H13.386ZM13.694 65.956V66.222C13.694 66.7073 13.8107 67.1647 14.044 67.594C14.2774 68.0233 14.618 68.4013 15.066 68.728C15.5234 69.0547 16.0647 69.302 16.69 69.47L16.004 70.632C14.8934 70.3147 14.03 69.764 13.414 68.98C12.798 68.196 12.49 67.2767 12.49 66.222V65.956H13.694ZM16.368 65.2V66.404H9.53602V65.2H16.368ZM13.694 63.772V65.732H12.182V63.772H13.694ZM19.112 63.66V76.148H17.614V63.66H19.112ZM8.90602 72.48C10.474 72.48 11.8974 72.4567 13.176 72.41C14.464 72.3633 15.696 72.2467 16.872 72.06L16.984 73.166C15.78 73.39 14.548 73.5393 13.288 73.614C12.028 73.6793 10.6234 73.712 9.07402 73.712L8.90602 72.48ZM31.7124 63.674V76.12H30.2844V63.674H31.7124ZM30.6484 68.546V69.778H28.4224V68.546H30.6484ZM28.8844 63.912V75.504H27.4844V63.912H28.8844ZM22.3324 71.948C23.2377 71.948 24.0217 71.9293 24.6844 71.892C25.347 71.8453 26.0144 71.7567 26.6864 71.626L26.8404 72.858C26.131 72.998 25.4357 73.0913 24.7544 73.138C24.0824 73.1753 23.275 73.194 22.3324 73.194H21.4924V71.948H22.3324ZM26.0844 65.144V66.362H22.9764V72.536H21.4924V65.144H26.0844ZM36.9692 73.768C37.3706 73.3853 37.8419 72.956 38.3832 72.48C39.1392 71.808 39.7412 71.248 40.1892 70.8C40.6466 70.3427 41.0292 69.876 41.3372 69.4C41.6546 68.924 41.8132 68.476 41.8132 68.056C41.8132 67.6733 41.7339 67.3327 41.5752 67.034C41.4259 66.7353 41.2159 66.502 40.9452 66.334C40.6839 66.166 40.3806 66.082 40.0352 66.082C39.6339 66.082 39.2466 66.2127 38.8732 66.474C38.5092 66.7353 38.2339 67.0713 38.0472 67.482L36.7732 66.922C37.0532 66.2873 37.4966 65.7693 38.1032 65.368C38.7192 64.9573 39.3632 64.752 40.0352 64.752C40.6606 64.752 41.2159 64.892 41.7012 65.172C42.1959 65.452 42.5786 65.844 42.8492 66.348C43.1292 66.8427 43.2692 67.412 43.2692 68.056C43.2692 68.6907 43.0732 69.3253 42.6812 69.96C42.2986 70.5853 41.8412 71.164 41.3092 71.696C40.7772 72.2187 40.0912 72.8487 39.2512 73.586C38.7379 74.0153 38.2992 74.4027 37.9352 74.748L36.9692 73.768ZM36.9692 73.768H43.4232V75.042H37.1092L36.9692 73.768ZM48.0743 64.08C48.6996 64.08 49.2596 64.2013 49.7543 64.444C50.2583 64.6773 50.6503 65.0087 50.9303 65.438C51.2196 65.858 51.3643 66.3387 51.3643 66.88C51.3643 67.4213 51.2196 67.9067 50.9303 68.336C50.6503 68.756 50.2583 69.0873 49.7543 69.33C49.2596 69.5633 48.7043 69.68 48.0883 69.68C47.463 69.68 46.8983 69.5633 46.3943 69.33C45.8996 69.0873 45.5123 68.756 45.2323 68.336C44.9523 67.9067 44.8123 67.4213 44.8123 66.88C44.8123 66.348 44.9523 65.8673 45.2323 65.438C45.5123 65.0087 45.8996 64.6773 46.3943 64.444C46.8983 64.2013 47.4583 64.08 48.0743 64.08ZM48.0743 65.298C47.7383 65.298 47.4303 65.3633 47.1503 65.494C46.8796 65.6247 46.665 65.8113 46.5063 66.054C46.3476 66.2873 46.2683 66.5627 46.2683 66.88C46.2683 67.1973 46.3476 67.4773 46.5063 67.72C46.665 67.9627 46.8796 68.1493 47.1503 68.28C47.4303 68.4013 47.7383 68.462 48.0743 68.462C48.429 68.462 48.7416 68.4013 49.0123 68.28C49.2923 68.1493 49.5116 67.9627 49.6703 67.72C49.829 67.4773 49.9083 67.1973 49.9083 66.88C49.9083 66.5627 49.829 66.2873 49.6703 66.054C49.5116 65.8113 49.2923 65.6247 49.0123 65.494C48.7416 65.3633 48.429 65.298 48.0743 65.298ZM54.8643 63.674V69.96H53.3523V63.674H54.8643ZM54.8643 70.52V73.754H48.1723V75.42H46.7023V72.662H53.3663V71.682H46.6743V70.52H54.8643ZM55.2283 74.79V75.966H46.7023V74.79H55.2283ZM69.4312 65.494V66.712H65.7212V65.494H69.4312ZM69.4312 68.49V69.708H65.7212V68.49H69.4312ZM70.3832 63.688V72.816H68.8712V63.688H70.3832ZM70.7052 74.664V75.882H62.2772V74.664H70.7052ZM63.7892 71.892V75.266H62.2772V71.892H63.7892ZM63.4672 64.43C64.0739 64.43 64.6245 64.57 65.1192 64.85C65.6139 65.1207 66.0012 65.4987 66.2812 65.984C66.5705 66.4693 66.7152 67.0153 66.7152 67.622C66.7152 68.2287 66.5705 68.7747 66.2812 69.26C66.0012 69.736 65.6139 70.1093 65.1192 70.38C64.6245 70.6413 64.0739 70.772 63.4672 70.772C62.8605 70.772 62.3099 70.6367 61.8152 70.366C61.3205 70.0953 60.9285 69.722 60.6392 69.246C60.3592 68.77 60.2192 68.224 60.2192 67.608C60.2192 67.0013 60.3592 66.46 60.6392 65.984C60.9285 65.4987 61.3205 65.1207 61.8152 64.85C62.3099 64.57 62.8605 64.43 63.4672 64.43ZM63.4672 65.76C63.1219 65.76 62.8092 65.8393 62.5292 65.998C62.2585 66.1473 62.0439 66.362 61.8852 66.642C61.7265 66.922 61.6472 67.2487 61.6472 67.622C61.6472 67.986 61.7265 68.308 61.8852 68.588C62.0439 68.868 62.2585 69.0873 62.5292 69.246C62.8092 69.3953 63.1219 69.47 63.4672 69.47C63.8125 69.47 64.1205 69.3953 64.3912 69.246C64.6712 69.0873 64.8905 68.868 65.0492 68.588C65.2079 68.308 65.2872 67.986 65.2872 67.622C65.2872 67.2487 65.2079 66.922 65.0492 66.642C64.8905 66.362 64.6712 66.1473 64.3912 65.998C64.1205 65.8393 63.8125 65.76 63.4672 65.76ZM76.4315 65.032V65.914C76.4315 66.7073 76.2962 67.4493 76.0255 68.14C75.7549 68.8213 75.3535 69.4187 74.8215 69.932C74.2989 70.436 73.6689 70.814 72.9315 71.066L72.1755 69.876C72.8195 69.6613 73.3655 69.3533 73.8135 68.952C74.2709 68.5413 74.6162 68.0747 74.8495 67.552C75.0829 67.0293 75.1995 66.4833 75.1995 65.914V65.032H76.4315ZM76.7115 65.032V65.914C76.7115 66.4273 76.8189 66.922 77.0335 67.398C77.2575 67.8647 77.5889 68.28 78.0275 68.644C78.4662 69.008 78.9982 69.288 79.6235 69.484L78.8955 70.66C78.1675 70.4267 77.5469 70.0767 77.0335 69.61C76.5295 69.1433 76.1469 68.5927 75.8855 67.958C75.6242 67.3233 75.4935 66.642 75.4935 65.914V65.032H76.7115ZM79.2875 64.542V65.76H72.5815V64.542H79.2875ZM82.0175 63.674V71.108H80.5195V63.674H82.0175ZM83.7535 66.67V67.902H81.6115V66.67H83.7535ZM78.0135 71.374C78.8629 71.374 79.6002 71.4673 80.2255 71.654C80.8509 71.8407 81.3269 72.116 81.6535 72.48C81.9895 72.8347 82.1575 73.2547 82.1575 73.74C82.1575 74.4867 81.7842 75.0653 81.0375 75.476C80.3002 75.896 79.2922 76.106 78.0135 76.106C77.1642 76.106 76.4222 76.0127 75.7875 75.826C75.1622 75.6393 74.6815 75.3687 74.3455 75.014C74.0095 74.6593 73.8415 74.2347 73.8415 73.74C73.8415 73.2547 74.0095 72.8347 74.3455 72.48C74.6815 72.116 75.1622 71.8407 75.7875 71.654C76.4222 71.4673 77.1642 71.374 78.0135 71.374ZM78.0135 72.564C77.4442 72.564 76.9589 72.6107 76.5575 72.704C76.1655 72.788 75.8622 72.9187 75.6475 73.096C75.4329 73.2733 75.3255 73.488 75.3255 73.74C75.3255 74.132 75.5589 74.4307 76.0255 74.636C76.4922 74.8413 77.1502 74.944 77.9995 74.944C78.8582 74.944 79.5162 74.8413 79.9735 74.636C80.4402 74.4307 80.6735 74.132 80.6735 73.74C80.6735 73.488 80.5709 73.2733 80.3655 73.096C80.1602 72.9187 79.8569 72.788 79.4555 72.704C79.0635 72.6107 78.5829 72.564 78.0135 72.564ZM89.3679 67.874V69.904H87.8559V67.874H89.3679ZM94.8139 63.674V70.884H93.3159V63.674H94.8139ZM84.5519 69.484C86.0545 69.484 87.4545 69.4607 88.7519 69.414C90.0585 69.358 91.2859 69.2507 92.4339 69.092L92.5319 70.128C91.3559 70.3427 90.1285 70.4873 88.8499 70.562C87.5805 70.6273 86.2085 70.66 84.7339 70.66L84.5519 69.484ZM91.6499 67.118V68.308H85.6299V67.118H91.6499ZM91.5519 64.262V65.48H87.1279V67.524H85.6299V64.262H91.5519ZM87.9959 71.388V72.48H93.3299V71.388H94.8139V75.966H86.5119V71.388H87.9959ZM87.9959 74.776H93.3299V73.628H87.9959V74.776ZM107.064 63.674V76.12H105.566V63.674H107.064ZM98.9722 64.864V72.592H97.4602V64.864H98.9722ZM98.5522 71.71C100.662 71.71 102.631 71.5233 104.46 71.15L104.642 72.41C103.616 72.6153 102.598 72.7647 101.59 72.858C100.592 72.942 99.5788 72.984 98.5522 72.984H97.4602V71.71H98.5522ZM118.685 63.66V76.148H117.173V63.66H118.685ZM120.575 68.406V69.652H118.335V68.406H120.575ZM110.523 71.836C111.736 71.836 112.767 71.8127 113.617 71.766C114.466 71.71 115.32 71.598 116.179 71.43L116.333 72.69C115.446 72.858 114.569 72.97 113.701 73.026C112.833 73.0727 111.773 73.096 110.523 73.096H109.515V71.836H110.523ZM115.311 64.85V66.068H111.013V72.438H109.515V64.85H115.311ZM122.367 73.6C122.628 73.6 122.834 73.6793 122.983 73.838C123.142 73.9967 123.221 74.202 123.221 74.454C123.221 74.7153 123.142 74.9253 122.983 75.084C122.834 75.2427 122.628 75.322 122.367 75.322C122.124 75.322 121.919 75.238 121.751 75.07C121.583 74.9113 121.499 74.706 121.499 74.454C121.499 74.202 121.578 73.9967 121.737 73.838C121.905 73.6793 122.115 73.6 122.367 73.6Z" fill="white"/>
<path d="M66.2929 136.707C66.6834 137.098 67.3166 137.098 67.7071 136.707L74.0711 130.343C74.4616 129.953 74.4616 129.319 74.0711 128.929C73.6806 128.538 73.0474 128.538 72.6569 128.929L67 134.586L61.3432 128.929C60.9526 128.538 60.3195 128.538 59.9289 128.929C59.5384 129.319 59.5384 129.953 59.9289 130.343L66.2929 136.707ZM66 95L66 136H68L68 95L66 95Z" fill="white"/>
</svg>
