<svg width="22" height="22" viewBox="0 0 22 22" fill="none" xmlns="http://www.w3.org/2000/svg">
<circle cx="11" cy="11" r="9.3" stroke="#EBEBEB" stroke-width="1.4"/>
<path d="M12.0122 14.1247C11.3689 14.1247 10.8061 13.9828 10.3236 13.6991C9.84122 13.4153 9.46284 12.9849 9.18851 12.4078C8.92365 11.8213 8.79122 11.0835 8.79122 10.1943C8.79122 9.29567 8.91892 8.55783 9.17432 7.98081C9.42973 7.40378 9.79865 6.97338 10.2811 6.68959C10.7635 6.40581 11.3405 6.26392 12.0122 6.26392C12.7311 6.26392 13.3743 6.42946 13.9419 6.76054C14.5189 7.08216 14.973 7.53621 15.3041 8.1227C15.6446 8.70919 15.8149 9.39973 15.8149 10.1943C15.8149 10.9984 15.6446 11.6936 15.3041 12.2801C14.973 12.8666 14.5189 13.3207 13.9419 13.6423C13.3743 13.9639 12.7311 14.1247 12.0122 14.1247ZM7.5 16.7639V6.37743H9.61419V7.93824L9.57162 10.2085L9.71351 12.4646V16.7639H7.5ZM11.6291 12.3085C11.998 12.3085 12.3243 12.2234 12.6081 12.0531C12.9014 11.8828 13.1331 11.6416 13.3034 11.3295C13.4831 11.0078 13.573 10.6295 13.573 10.1943C13.573 9.74973 13.4831 9.37135 13.3034 9.05919C13.1331 8.74702 12.9014 8.50581 12.6081 8.33554C12.3243 8.16527 11.998 8.08013 11.6291 8.08013C11.2601 8.08013 10.9291 8.16527 10.6358 8.33554C10.3426 8.50581 10.1108 8.74702 9.94054 9.05919C9.77027 9.37135 9.68514 9.74973 9.68514 10.1943C9.68514 10.6295 9.77027 11.0078 9.94054 11.3295C10.1108 11.6416 10.3426 11.8828 10.6358 12.0531C10.9291 12.2234 11.2601 12.3085 11.6291 12.3085Z" fill="#4168F6"/>
</svg>
