<svg width="158" height="24" viewBox="0 0 158 24" fill="none" xmlns="http://www.w3.org/2000/svg">
<g id="Gu2_TVfbBdJ7KwaJHiNgHdnew3j52y7s8kJJst42bYKjoKK8UQEwRV2wIvVijZmi7aP6RLG12Rb65YpeSXDfmA 1" clip-path="url(#clip0_1542_58720)">
<path id="Vector" d="M91.6539 6.01905L83.928 10.0561C83.8893 10.0763 83.8568 10.1067 83.8342 10.1441C83.8115 10.1815 83.7996 10.2243 83.7996 10.268V18.9202C83.7996 19.0082 83.8478 19.0892 83.9255 19.1309L91.4123 23.1541C91.4488 23.1737 91.4897 23.1834 91.531 23.1825C91.5724 23.1815 91.6127 23.1698 91.6482 23.1486C91.6837 23.1274 91.7131 23.0974 91.7336 23.0614C91.754 23.0254 91.7647 22.9848 91.7648 22.9434V14.4714C91.7648 14.3825 91.8138 14.301 91.8925 14.2598L99.73 10.1365V10.1229L91.8754 6.01905C91.8412 6.00121 91.8032 5.99189 91.7646 5.99189C91.7261 5.99189 91.6881 6.00121 91.6539 6.01905Z" fill="white"/>
<path id="Vector_2" d="M91.7648 23.3436L99.604 19.1311C99.642 19.1106 99.6738 19.0802 99.6959 19.0431C99.718 19.006 99.7297 18.9637 99.7297 18.9205V10.5327C99.7297 10.4916 99.719 10.4511 99.6988 10.4153C99.6785 10.3795 99.6494 10.3496 99.6142 10.3283C99.579 10.307 99.5389 10.2952 99.4978 10.2939C99.4567 10.2926 99.416 10.302 99.3795 10.321L91.8925 14.26C91.8539 14.2803 91.8216 14.3107 91.7991 14.348C91.7766 14.3853 91.7647 14.4281 91.7648 14.4717V23.3436Z" fill="#FFDA00"/>
<path id="Vector_3" d="M95.9426 1.46492C94.9951 0.517445 93.4591 0.517696 92.5119 1.46492L91.7645 2.21204L91.0174 1.46492C90.0702 0.517696 88.5339 0.517445 87.5867 1.46492C86.6392 2.41265 86.6392 3.94864 87.5867 4.89561L88.3338 5.64298V5.64324L91.7643 9.07391H91.765L95.1957 5.64324L95.9426 4.89561C96.8898 3.94839 96.8903 2.4124 95.9426 1.46492Z" fill="#E84E0E"/>
<path id="Vector_4" d="M84.5537 11.4083L91.0106 14.7714V22.0824L84.5537 18.6128V11.4083ZM89.5787 7.95473L91.231 9.60736C91.301 9.67744 91.3841 9.73303 91.4756 9.77095C91.5671 9.80887 91.6652 9.82835 91.7642 9.82832H91.765C91.9651 9.82832 92.1569 9.74889 92.2982 9.60711L93.9508 7.95473L98.1394 10.1431L91.8022 13.4438C91.7901 13.4501 91.7796 13.4584 91.7677 13.4649L85.3898 10.1431L89.5787 7.95473ZM88.1201 4.36241C87.8073 4.04858 87.6316 3.62353 87.6316 3.1804C87.6316 2.73726 87.8073 2.31219 88.1201 1.99837C88.2749 1.84268 88.4591 1.71925 88.662 1.63523C88.8648 1.55122 89.0823 1.50828 89.3019 1.50891C89.5215 1.5083 89.7391 1.55128 89.9421 1.63534C90.145 1.7194 90.3293 1.84286 90.4842 1.99861L91.2315 2.74574C91.373 2.88709 91.5648 2.96646 91.7648 2.96642C91.9648 2.96637 92.1565 2.8869 92.2979 2.74548L93.045 1.99837C93.2 1.8427 93.3842 1.71929 93.5872 1.63528C93.7901 1.55127 94.0077 1.50831 94.2273 1.50891C94.4469 1.50831 94.6645 1.55127 94.8675 1.63528C95.0704 1.71929 95.2546 1.8427 95.4096 1.99837C96.0612 2.64996 96.0612 3.71082 95.4091 4.36292L93.6675 6.10478L92.5498 7.22269L91.7647 8.00803L90.9796 7.22269L89.862 6.10478L88.1201 4.36241ZM98.9755 18.6128L92.5189 22.0824V14.7711L98.9755 11.4083V18.6128ZM99.6937 9.2534L95.0685 6.83682L96.476 5.42904C97.7156 4.1892 97.7156 2.17183 96.476 0.931734C96.1813 0.635592 95.8309 0.400814 95.4449 0.240986C95.0589 0.0811596 94.6451 -0.000556946 94.2273 0.000585556C93.8095 -0.000551224 93.3957 0.0811901 93.0097 0.241062C92.6237 0.400936 92.2733 0.635769 91.9787 0.931978L91.7647 1.14565L91.5505 0.931978C91.2559 0.635769 90.9055 0.400936 90.5195 0.241062C90.1335 0.0811901 89.7197 -0.000551224 89.3019 0.000585556C88.8842 -0.000595093 88.4704 0.0811253 88.0845 0.241001C87.6986 0.400879 87.3482 0.635738 87.0537 0.931978C85.8136 2.17182 85.8136 4.1892 87.0532 5.42904L88.4607 6.83682L83.835 9.25366C83.5965 9.37782 83.3967 9.56513 83.2574 9.79513C83.1182 10.0251 83.0448 10.289 83.0454 10.5579V18.6347C83.0451 18.9006 83.1171 19.1616 83.2535 19.3899C83.39 19.6181 83.5858 19.8051 83.8201 19.9308L91.0686 23.8261C91.2829 23.9405 91.522 24.0004 91.7649 24.0003C92.0078 24.0002 92.2469 23.9402 92.4611 23.8256L99.7088 19.9311C99.9433 19.8054 100.139 19.6185 100.276 19.3901C100.412 19.1618 100.484 18.9007 100.484 18.6347V10.5576C100.484 10.2887 100.411 10.0248 100.271 9.79481C100.132 9.56481 99.9323 9.37751 99.6937 9.2534ZM115.403 5.87627H117.514V16.0361H115.403V10.2305H112.731V8.49848H115.403L115.403 5.87627ZM111.065 18.0811H117.811V19.7797H108.955V14.9473H111.065V18.0811ZM105.458 12.6386C107.635 11.2861 108.658 9.5709 108.658 7.19579V6.22268H110.769V7.3607C110.769 8.11939 110.67 8.82856 110.488 9.47186L114.018 12.391L112.633 13.9579L109.795 11.1871C109.07 12.4734 107.932 13.4795 106.612 14.2548L105.458 12.6386ZM127.741 7.49923H123.304V8.93389H127.741V7.49923ZM121.193 5.86621H129.835V10.5669H121.193V5.86621ZM121.127 20.149V16.3395H127.741V15.5969H121.127V14.0466H124.442V13.0079H118.917V11.3749H132.111V13.0079H126.603V14.0466H129.901V17.7908H123.304V18.5661H130.132V20.149H121.127ZM143.773 10.7087H145.917V12.5066H143.773V19.6644H141.662V5.87627H143.773V10.7087ZM136.764 14.3865C137.588 14.3865 138.132 13.7271 138.132 12.8362C138.132 11.9624 137.588 11.2695 136.764 11.2695C135.906 11.2695 135.345 11.9624 135.345 12.8362C135.345 13.7271 135.906 14.3865 136.764 14.3865ZM136.764 16.0195C134.685 16.0195 133.349 14.6009 133.349 12.8362C133.349 11.088 134.685 9.63677 136.764 9.63677C138.842 9.63677 140.128 11.088 140.128 12.8362C140.128 14.6009 138.842 16.0195 136.764 16.0195ZM135.691 5.66183H137.786V7.49243H140.804V9.15838H132.706V7.49243H135.692L135.691 5.66183ZM155.751 5.87627H157.862V19.6644H155.751V5.87627ZM153.36 8.13573C153.36 12.3085 150.49 14.898 147.62 16.5142L146.482 14.8153C149.039 13.3641 151.281 11.3025 151.281 8.63071H146.779V6.88231H153.36V8.13573ZM5.89839 9.97362L7.12566 10.8598L4.10851 14.6439L7.60279 18.837L6.39211 19.7747L2.26735 14.7286L5.89839 9.97362ZM1.70474 19.5354H0.136841V6.36019L1.70474 6.01855V19.5354ZM11.9339 18.428C12.1491 18.428 12.3724 18.3999 12.6041 18.3426C12.8362 18.286 13.0682 18.2121 13.3 18.1213C13.532 18.0303 13.7505 17.9192 13.9536 17.7888C14.1469 17.666 14.3289 17.5262 14.4973 17.3709V15.1894H12.8671C12.0415 15.1894 11.4392 15.3314 11.0596 15.6155C10.681 15.8996 10.4915 16.3486 10.4915 16.9622C10.4915 17.9393 10.9719 18.428 11.9339 18.428ZM8.99095 17.0303C8.99095 16.0871 9.30619 15.3681 9.93767 14.8742C10.5679 14.3797 11.4857 14.1323 12.6896 14.1323H14.4973V13.5358C14.4973 12.0928 13.8603 11.3713 12.5876 11.3713C12.1793 11.3713 11.7497 11.4279 11.3015 11.5418C10.852 11.6554 10.4402 11.7974 10.0651 11.9679L9.60459 10.8598C10.08 10.5948 10.5872 10.3914 11.1139 10.2544C11.6531 10.1129 12.1793 10.0415 12.6896 10.0415C14.8945 10.0415 15.9966 11.2177 15.9966 13.5697V19.5356H14.838L14.6504 18.513C14.1844 18.8881 13.6876 19.1777 13.1589 19.3823C12.631 19.5872 12.1283 19.6892 11.6499 19.6892C10.8208 19.6892 10.1707 19.4534 9.69911 18.9818C9.22725 18.5102 8.99095 17.8599 8.99095 17.0303ZM24.5481 9.97362L25.7753 10.8598L22.7592 14.6439L26.2525 18.837L25.0433 19.7747L20.9183 14.7286L24.5481 9.97362ZM20.3557 19.5354H18.7875V6.36019L20.3557 6.01855V19.5354ZM30.5849 18.428C30.799 18.428 31.0233 18.3999 31.2551 18.3426C31.4871 18.286 31.7191 18.2121 31.9509 18.1213C32.1829 18.0303 32.4004 17.9192 32.6045 17.7888C32.7974 17.6657 32.9791 17.5259 33.1475 17.3709V15.1894H31.518C30.6915 15.1894 30.0889 15.3314 29.7105 15.6155C29.3309 15.8996 29.1424 16.3486 29.1424 16.9622C29.1424 17.9393 29.6228 18.428 30.5849 18.428ZM27.6419 17.0303C27.6419 16.0871 27.9571 15.3681 28.5873 14.8742C29.2188 14.3797 30.1354 14.1323 31.3405 14.1323H33.1473V13.5358C33.1473 12.0928 32.5112 11.3713 31.2385 11.3713C30.829 11.3713 30.4006 11.4279 29.9514 11.5418C29.5019 11.6554 29.0901 11.7974 28.7161 11.9679L28.2555 10.8598C28.7307 10.595 29.2375 10.3916 29.7638 10.2544C30.3031 10.1129 30.829 10.0415 31.3405 10.0415C33.5444 10.0415 34.6475 11.2177 34.6475 13.5697V19.5356H33.4879L33.3003 18.513C32.8343 18.8881 32.3383 19.1777 31.8089 19.3823C31.281 19.5872 30.7782 19.6892 30.3008 19.6892C29.4707 19.6892 28.8204 19.4534 28.3488 18.9818C27.8772 18.5102 27.6419 17.8599 27.6419 17.0303ZM40.9563 11.3198C40.1386 11.3198 39.5104 11.6265 39.0732 12.2404C38.6348 12.8538 38.4163 13.7517 38.4163 14.9335C38.4163 16.1042 38.6348 16.9873 39.0732 17.5841C39.5104 18.1807 40.1386 18.4791 40.9563 18.4791C41.7854 18.4791 42.4189 18.1807 42.8573 17.5841C43.2945 16.9876 43.5132 16.1042 43.5132 14.9335C43.5132 13.7517 43.2945 12.854 42.8573 12.2404C42.4189 11.6267 41.7854 11.3198 40.9563 11.3198ZM40.9563 10.0586C42.2515 10.0586 43.2689 10.4792 44.0069 11.3198C44.746 12.161 45.1155 13.3656 45.1155 14.9335C45.1155 16.4788 44.7493 17.6668 44.0157 18.4964C43.2834 19.3252 42.2626 19.7403 40.9563 19.7403C39.6612 19.7403 38.6438 19.3252 37.9058 18.4964C37.1667 17.6668 36.7971 16.4788 36.7971 14.9335C36.7971 13.3656 37.1689 12.1607 37.9136 11.3198C38.6582 10.4792 39.6725 10.0586 40.9563 10.0586ZM46.6666 10.4168L48.1154 10.2293V8.40547L50.638 7.85997V10.2293H53.3314V12.1046H50.638V15.9564C50.638 17.4054 50.9279 17.661 51.6096 17.661C52.0873 17.661 52.6836 17.5077 53.1439 17.3544L53.6894 19.1098C53.3143 19.3996 52.0189 19.7916 50.9794 19.7916C49.087 19.7916 48.1154 18.5474 48.1154 16.1439V12.1044H46.6666V10.4168ZM60.0266 17.1497V15.4453H58.8845C57.6062 15.4453 56.9584 15.9054 56.9584 16.8259C56.9584 17.5248 57.3164 17.8657 58.0494 17.8657C58.7312 17.8657 59.6005 17.5248 60.0266 17.1497ZM58.6118 13.8601H60.0266V13.5531C60.0266 12.5305 59.4471 12.0531 58.4413 12.0531C57.6746 12.0531 56.6856 12.2748 55.8847 12.6665L55.2027 10.9965C56.0891 10.3829 57.4529 9.95653 58.6631 9.95653C61.0492 9.95653 62.3446 11.218 62.3446 13.6213V19.5361H60.5892L60.3333 18.7518C59.3277 19.4849 58.4076 19.7918 57.572 19.7918C55.7482 19.7918 54.7256 18.7008 54.7256 16.8599C54.7256 14.8998 56.0891 13.8601 58.612 13.8601M67.2115 19.5361H64.7227V6.39437L67.2115 5.95118V19.5361ZM74.7046 14.5929L77.8919 18.377L75.9829 19.8602L72.1138 15.0871V19.5361H69.625V6.39437L72.1138 5.95118V14.4908L75.6591 9.68427L77.551 10.9794L74.7046 14.5929Z" fill="#1D1D1B"/>
</g>
<defs>
<clipPath id="clip0_1542_58720">
<rect width="157.726" height="24" fill="white" transform="translate(0.137085)"/>
</clipPath>
</defs>
</svg>
