<svg width="94" height="94" viewBox="0 0 94 94" fill="none" xmlns="http://www.w3.org/2000/svg">
<path d="M41.3333 41.4385H32.4852C31.1414 41.4385 30 42.5151 30 43.859V62.478C30 63.8218 31.1495 64.9147 32.4852 64.9147H61.6281C62.9719 64.9147 64 63.8137 64 62.478V43.859C64 42.5151 62.9719 41.4385 61.6281 41.4385H52.6667" stroke="#303030" stroke-width="1.4" stroke-miterlimit="10"/>
<path d="M30 55.2005H64" stroke="#303030" stroke-width="1.4" stroke-miterlimit="10"/>
<path d="M30 60.0576H64" stroke="#303030" stroke-width="1.4" stroke-miterlimit="10"/>
<path d="M52.3187 36.5248C49.4206 33.6267 44.7253 33.6267 41.8272 36.5248" stroke="#303030" stroke-width="1.4" stroke-miterlimit="10"/>
<path d="M49.7197 39.9329C48.2544 38.4677 45.8906 38.4677 44.4254 39.9329" stroke="#303030" stroke-width="1.4" stroke-miterlimit="10"/>
<path d="M54.4876 33.0357C50.44 28.9881 43.8829 28.9881 39.8434 33.0357" stroke="#303030" stroke-width="1.4" stroke-miterlimit="10"/>
</svg>
