<svg width="94" height="94" viewBox="0 0 94 94" fill="none" xmlns="http://www.w3.org/2000/svg">
<path d="M47 53.0195V41H51.5156C54.2715 41 55.7407 42.6768 55.749 44.9844C55.7407 47.2837 54.2549 48.9521 51.4824 48.9521H49.1582V53.0195H47ZM49.1582 47.1758H51.1836C52.8105 47.1675 53.541 46.2544 53.541 44.9844C53.541 43.6978 52.8105 42.8096 51.1836 42.8096H49.1582V47.1758Z" fill="white"/>
<path d="M56.8115 50.4795C56.8115 48.4541 58.4966 47.8647 60.165 47.7568C60.7959 47.707 62.0825 47.6489 62.481 47.6323L62.4727 46.9102C62.4727 46.0137 61.8999 45.499 60.8457 45.499C59.8994 45.499 59.3184 45.9307 59.1523 46.5781H57.1104C57.2598 45.0425 58.6377 43.8887 60.8955 43.8887C62.6055 43.8887 64.5811 44.5942 64.5811 46.9932V53.0195H62.5557V51.7744H62.4893C62.0908 52.5381 61.2524 53.2021 59.833 53.2021C58.1147 53.2021 56.8115 52.2642 56.8115 50.4795ZM58.8535 50.4629C58.8535 51.2432 59.4927 51.6416 60.3809 51.6416C61.6675 51.6416 62.4893 50.7949 62.4893 49.7822L62.481 49.0435C62.0991 49.0601 60.9204 49.1348 60.4971 49.168C59.4927 49.251 58.8535 49.6743 58.8535 50.4629Z" fill="white"/>
<path d="M67.5195 56.4062C67.0962 56.3979 66.6978 56.3896 66.4238 56.3564V54.6631C66.6812 54.688 67.0381 54.688 67.3203 54.6963C67.835 54.688 68.2666 54.6548 68.6318 53.6836L68.8145 53.2021L65.5273 44.0049H67.7686L69.8604 50.8115H69.96L72.0518 44.0049H74.293L70.6738 54.1152C70.1592 55.5513 69.2129 56.3979 67.5195 56.4062Z" fill="white"/>
<path d="M19 35H43V59H19V35Z" fill="white"/>
<path d="M25.1478 53.4615V40.5385H27.6217L35.2463 49.8431H34.0463V40.5385H37.0001V53.4615H34.5448L26.9017 44.1569H28.1017V53.4615H25.1478Z" fill="#00C73C"/>
</svg>
