<svg width="94" height="94" viewBox="0 0 94 94" fill="none" xmlns="http://www.w3.org/2000/svg">
<g clip-path="url(#clip0_1697_32459)">
<path fill-rule="evenodd" clip-rule="evenodd" d="M26.8597 38C21.9655 38 18 41.1229 18 44.9741C18 47.4491 19.6435 49.6222 22.1108 50.8617L21.2749 53.9684C21.2426 54.065 21.2709 54.1656 21.3396 54.234C21.388 54.2823 21.4526 54.3065 21.5213 54.3065C21.5738 54.3065 21.6263 54.2863 21.6747 54.2501L25.2646 51.8355C25.7856 51.908 26.3186 51.9522 26.8597 51.9522C31.7499 51.9522 35.7194 48.8294 35.7194 44.9781C35.7194 41.1269 31.7499 38 26.8597 38Z" fill="#303030"/>
<path d="M43.1819 50.7651V55.2683H39.9635V38.664H42.233L42.6287 39.7184C43.3111 39.0383 44.349 38.3139 46.0248 38.3139C49.1786 38.3139 50.6767 40.6641 50.6525 44.463C50.6525 48.439 48.3386 50.9864 45.0314 50.9864C44.3934 50.9864 43.9088 50.9422 43.1819 50.7651ZM43.1819 41.3402V48.5236C43.3596 48.5437 43.7998 48.5879 44.2197 48.5879C46.5134 48.5879 47.3937 46.9863 47.3937 44.459C47.3937 42.2416 46.8001 40.9015 44.9708 40.9015C44.3772 40.9015 43.715 41.0786 43.186 41.3402H43.1819Z" fill="#303030"/>
<path d="M57.6628 43.3403H59.492V42.9459C59.492 41.6299 58.7409 41.0142 57.4407 41.0142C56.4473 41.0142 55.1712 41.2999 54.1334 41.807L53.2531 39.654C54.3999 38.8612 56.1606 38.3139 57.7274 38.3139C60.8125 38.3139 62.4883 39.9397 62.4883 43.0384V50.6605H60.2189L59.8878 49.6504C58.5875 50.5961 57.3962 50.9904 56.3181 50.9904C53.9598 50.9904 52.6353 49.586 52.6353 47.2116C52.6353 44.6844 54.3999 43.3443 57.6587 43.3443L57.6628 43.3403ZM59.492 47.5778V45.3806H58.0141C56.3625 45.3806 55.5225 45.9721 55.5225 47.1593C55.5225 48.0608 55.9869 48.4994 56.9319 48.4994C57.8122 48.4994 58.9388 48.0608 59.488 47.5778H59.492Z" fill="#303030"/>
<path d="M72.2284 49.425C71.1057 52.411 69.761 54.5882 67.7985 55.7954L65.8158 53.9724C66.9626 52.9825 67.7783 52.0166 68.481 50.7208L64.2045 39.1026L67.3987 38.2455L70.1326 47.6704L72.8422 38.2052L75.996 39.0825L72.2284 49.429V49.425Z" fill="#303030"/>
</g>
<defs>
<clipPath id="clip0_1697_32459">
<rect width="58" height="17.7955" fill="white" transform="translate(18 38)"/>
</clipPath>
</defs>
</svg>
