<svg width="94" height="94" viewBox="0 0 94 94" fill="none" xmlns="http://www.w3.org/2000/svg">
<g clip-path="url(#clip0_1697_32439)">
<path d="M50.2553 57.4894V61.8298C50.2553 63.0306 49.286 64 48.0851 64H32.8936C31.6928 64 30.7234 63.0306 30.7234 61.8298V32.8936C30.7234 31.6928 31.6928 30.7234 32.8936 30.7234H48.0851C49.286 30.7234 50.2553 31.6928 50.2553 32.8936V43.7447" stroke="#303030" stroke-width="1.4" stroke-miterlimit="10"/>
<path d="M30.7234 59.6596H50.2553" stroke="#303030" stroke-width="1.4" stroke-miterlimit="10"/>
<path d="M30.7234 34.3404H50.2553" stroke="#303030" stroke-width="1.4" stroke-miterlimit="10"/>
<path d="M39.4043 61.8298H41.5745" stroke="#303030" stroke-width="1.4" stroke-miterlimit="10"/>
<path d="M40.8511 41.5745V53.1417C40.8511 54.3425 41.7987 55.3191 42.9706 55.3191H61.1643C62.3362 55.3191 63.2838 54.3425 63.2838 53.1417V40.1349C63.2838 38.934 62.3362 37.9574 61.1643 37.9574H52.4328" stroke="#303030" stroke-width="1.4" stroke-miterlimit="10"/>
<path d="M63.2766 51.7021H40.8511" stroke="#303030" stroke-width="1.4" stroke-miterlimit="10"/>
<path d="M63.2766 48.0851H40.8511" stroke="#303030" stroke-width="1.4" stroke-miterlimit="10"/>
<path d="M53.1489 40.8511L50.2553 43.7447L47.3617 40.8511" stroke="#303030" stroke-width="1.4" stroke-miterlimit="10"/>
<path d="M37.9574 44.4681L40.8511 41.5745L43.7447 44.4681" stroke="#303030" stroke-width="1.4" stroke-miterlimit="10"/>
</g>
<defs>
<clipPath id="clip0_1697_32439">
<rect width="34" height="34.7234" fill="white" transform="translate(30 30)"/>
</clipPath>
</defs>
</svg>
